<svg width="49" height="49" viewBox="0 0 49 49" fill="none" xmlns="http://www.w3.org/2000/svg">
<mask id="mask0_263_19634" style="mask-type:alpha" maskUnits="userSpaceOnUse" x="0" y="0" width="49" height="49">
<rect x="0.437744" y="0.398682" width="48" height="48" fill="#C4C4C4"/>
</mask>
<g mask="url(#mask0_263_19634)">
<path d="M14.4377 19.3987V30.3987C14.4377 33.1601 18.9149 35.3987 24.4377 35.3987C29.9606 35.3987 34.4377 33.1601 34.4377 30.3987V19.3987" stroke="#031461" stroke-width="2" stroke-linecap="square" stroke-linejoin="round"/>
<path d="M14.4377 24.3987C14.4377 27.1601 18.9149 29.3987 24.4377 29.3987C29.9606 29.3987 34.4377 27.1601 34.4377 24.3987" stroke="#031461" stroke-width="2" stroke-linecap="square"/>
<path d="M24.4377 23.3987C29.9606 23.3987 34.4377 21.1601 34.4377 18.3987C34.4377 15.6373 29.9606 13.3987 24.4377 13.3987C18.9149 13.3987 14.4377 15.6373 14.4377 18.3987C14.4377 21.1601 18.9149 23.3987 24.4377 23.3987Z" stroke="#031461" stroke-width="1.5"/>
<path d="M24.4377 23.3987C29.9606 23.3987 34.4377 21.1601 34.4377 18.3987C34.4377 15.6373 29.9606 13.3987 24.4377 13.3987C18.9149 13.3987 14.4377 15.6373 14.4377 18.3987C14.4377 21.1601 18.9149 23.3987 24.4377 23.3987Z" stroke="#031461" stroke-width="2"/>
<path d="M14.4377 19.3987V30.3987C14.4377 33.1601 18.9149 35.3987 24.4377 35.3987C29.9606 35.3987 34.4377 33.1601 34.4377 30.3987V19.3987" stroke="#031461" stroke-width="2" stroke-linecap="square" stroke-linejoin="round"/>
<path d="M24.4377 23.3987C29.9606 23.3987 34.4377 21.1601 34.4377 18.3987C34.4377 15.6373 29.9606 13.3987 24.4377 13.3987C18.9149 13.3987 14.4377 15.6373 14.4377 18.3987C14.4377 21.1601 18.9149 23.3987 24.4377 23.3987Z" stroke="#031461" stroke-width="2"/>
<path d="M20.9377 23.3987V35.3987" stroke="#031461" stroke-width="2"/>
<path d="M27.9377 23.3987V35.3987" stroke="#031461" stroke-width="2"/>
</g>
</svg>
