<svg width="49" height="49" viewBox="0 0 49 49" fill="none" xmlns="http://www.w3.org/2000/svg">
<circle cx="24.4377" cy="24.3987" r="12" stroke="#031461" stroke-width="2"/>
<path fill-rule="evenodd" clip-rule="evenodd" d="M21.4185 20.6594C20.4311 20.6594 19.5916 20.9958 18.9998 21.6383C18.4089 22.2797 18.0763 23.2139 18.0763 24.3892C18.0763 25.5645 18.4088 26.5167 18.9986 27.1767C19.5896 27.838 20.429 28.1947 21.4185 28.1947C22.408 28.1947 23.2474 27.838 23.8383 27.1767C24.4281 26.5167 24.7607 25.5645 24.7607 24.3892C24.7607 23.2185 24.428 22.2845 23.8372 21.6419C23.2455 20.9984 22.4061 20.6594 21.4185 20.6594ZM28.3216 20.6594C26.7811 20.6594 25.6506 21.6406 25.6506 22.9049C25.6506 23.9912 26.3882 24.6392 27.1517 24.943L28.0487 25.3207L28.1706 25.3719C28.4206 25.4765 28.6135 25.5572 28.752 25.6503C28.8297 25.7024 28.8829 25.7539 28.917 25.8087C28.9502 25.862 28.9692 25.9245 28.9692 26.006C28.9692 26.1602 28.9118 26.2762 28.7948 26.3584C28.6716 26.445 28.4703 26.5023 28.1703 26.5023C27.6487 26.5023 27.0224 26.2253 26.5355 25.8119L26.4439 25.7341L25.3419 27.0761L25.424 27.1518C26.1755 27.8448 27.1881 28.1947 28.1325 28.1947C29.8851 28.1947 30.9357 27.1248 30.9357 25.8736C30.9357 25.3553 30.7995 24.9345 30.5429 24.5967C30.2875 24.2603 29.9194 24.0152 29.4714 23.8351L28.5918 23.4851L28.4904 23.4453L28.4904 23.4453C28.2194 23.339 28.0007 23.2533 27.8425 23.1554C27.67 23.0487 27.5983 22.9456 27.5983 22.8103C27.5983 22.6601 27.6595 22.5501 27.7725 22.473C27.891 22.3921 28.0748 22.3423 28.3216 22.3423C28.8371 22.3423 29.2476 22.5181 29.6969 22.8574L29.7889 22.9269L30.7677 21.6951L30.6931 21.6206C30.0543 20.9818 29.1629 20.6594 28.3216 20.6594ZM20.0428 24.3892C20.0428 23.7227 20.182 23.208 20.4212 22.8635C20.657 22.5239 20.9944 22.3423 21.4185 22.3423C21.8427 22.3423 22.1826 22.524 22.4208 22.864C22.6622 23.2085 22.8036 23.7231 22.8036 24.3892C22.8036 25.0602 22.6621 25.5924 22.4195 25.953C22.1798 26.3093 21.8395 26.5023 21.4185 26.5023C20.9976 26.5023 20.6598 26.3095 20.4224 25.9534C20.182 25.5928 20.0428 25.0605 20.0428 24.3892Z" fill="#031461"/>
</svg>
