<svg width="48" height="49" viewBox="0 0 48 49" fill="none" xmlns="http://www.w3.org/2000/svg">
<mask id="mask0_263_16372" style="mask-type:alpha" maskUnits="userSpaceOnUse" x="0" y="0" width="48" height="49">
<rect y="0.300537" width="48" height="48" fill="#C4C4C4"/>
</mask>
<g mask="url(#mask0_263_16372)">
<path d="M40.5 13.0422L25.5 4.38198C24.5718 3.84608 23.4282 3.84608 22.5 4.38198L7.5 13.0422C6.5718 13.5781 6 14.5685 6 15.6403V32.9608C6 34.0326 6.5718 35.023 7.5 35.5589L22.5 44.2191C23.4282 44.755 24.5718 44.755 25.5 44.2191L40.5 35.5589C41.4282 35.023 42 34.0326 42 32.9608V15.6403C42 14.5685 41.4282 13.5781 40.5 13.0422Z" stroke="#031461" stroke-width="2"/>
<path d="M24 31.8005C28.1421 31.8005 31.5 28.4427 31.5 24.3005C31.5 20.1584 28.1421 16.8005 24 16.8005C19.8579 16.8005 16.5 20.1584 16.5 24.3005C16.5 28.4427 19.8579 31.8005 24 31.8005Z" fill="#FFDB00"/>
<path d="M24 27.0223V38.3005M24 10.3005V21.3618V10.3005Z" stroke="#031461" stroke-width="2"/>
<path d="M21.2329 25.8977L11.875 31.3005M36.1237 17.3005L26.852 22.6535L36.1237 17.3005Z" stroke="#031461" stroke-width="2"/>
<path d="M26.7038 25.8619L36.1237 31.3005M11.875 17.3005L21.3689 22.7818L11.875 17.3005Z" stroke="#031461" stroke-width="2"/>
<path fill-rule="evenodd" clip-rule="evenodd" d="M24 34.3005C29.5228 34.3005 34 29.8234 34 24.3005C34 21.6389 32.9601 19.2201 31.2645 17.4283C29.4418 15.5022 26.8612 14.3005 24 14.3005C18.4772 14.3005 14 18.7777 14 24.3005C14 29.8234 18.4772 34.3005 24 34.3005Z" stroke="#031461" stroke-width="2"/>
<path d="M24 27.3005C25.6569 27.3005 27 25.9574 27 24.3005C27 22.6437 25.6569 21.3005 24 21.3005C22.3431 21.3005 21 22.6437 21 24.3005C21 25.9574 22.3431 27.3005 24 27.3005Z" stroke="#031461" stroke-width="2"/>
</g>
</svg>
