<svg width="49" height="49" viewBox="0 0 49 49" fill="none" xmlns="http://www.w3.org/2000/svg">
<mask id="mask0_263_18776" style="mask-type:alpha" maskUnits="userSpaceOnUse" x="0" y="0" width="49" height="49">
<rect x="0.5" y="0.642578" width="48" height="48" fill="#C4C4C4"/>
</mask>
<g mask="url(#mask0_263_18776)">
<path d="M34.6798 10.2773H14.3198V39.0073H34.6798V10.2773Z" stroke="#031461" stroke-width="2" stroke-miterlimit="10"/>
<path d="M31.4098 13.5576H17.5898V17.6876H31.4098V13.5576Z" stroke="#031461" stroke-width="2" stroke-miterlimit="10"/>
<path d="M19.5898 21.457H17.5898V23.457H19.5898V21.457Z" stroke="#031461" stroke-width="2" stroke-miterlimit="10"/>
<path d="M25.5 21.457H23.5V23.457H25.5V21.457Z" stroke="#031461" stroke-width="2" stroke-miterlimit="10"/>
<path d="M31.4097 21.457H29.4097V23.457H31.4097V21.457Z" stroke="#031461" stroke-width="2" stroke-miterlimit="10"/>
<path d="M19.5898 27.457H17.5898V29.457H19.5898V27.457Z" stroke="#031461" stroke-width="2" stroke-miterlimit="10"/>
<path d="M25.5 27.457H23.5V29.457H25.5V27.457Z" stroke="#031461" stroke-width="2" stroke-miterlimit="10"/>
<path d="M31.4097 27.457H29.4097V35.457H31.4097V27.457Z" stroke="#031461" stroke-width="2" stroke-miterlimit="10"/>
<path d="M19.5898 33.3877H17.5898V35.3877H19.5898V33.3877Z" stroke="#031461" stroke-width="2" stroke-miterlimit="10"/>
<path d="M25.5 33.3877H23.5V35.3877H25.5V33.3877Z" stroke="#031461" stroke-width="2" stroke-miterlimit="10"/>
</g>
</svg>
