<svg width="49" height="49" viewBox="0 0 49 49" fill="none" xmlns="http://www.w3.org/2000/svg">
<mask id="mask0_263_18780" style="mask-type:alpha" maskUnits="userSpaceOnUse" x="0" y="0" width="49" height="49">
<rect x="0.5" y="0.642578" width="48" height="48" fill="#C4C4C4"/>
</mask>
<g mask="url(#mask0_263_18780)">
<path d="M18.5798 34.0424L15.5298 30.9824L16.9398 29.5724L18.5798 31.2124L21.3498 28.4424L22.7698 29.8524L18.5798 34.0424Z" fill="#031461"/>
<path d="M18.5798 27.8129L15.5298 24.7629L16.9398 23.3429L18.5798 24.9929L21.3498 22.2129L22.7698 23.6329L18.5798 27.8129Z" fill="#031461"/>
<path d="M18.5798 21.5927L15.5298 18.5327L16.9398 17.1227L18.5798 18.7627L21.3498 15.9927L22.7698 17.4127L18.5798 21.5927Z" fill="#031461"/>
<path d="M33.4521 17.7427H25.4521V19.7427H33.4521V17.7427Z" fill="#031461"/>
<path d="M33.4521 23.6626H25.4521V25.6626H33.4521V23.6626Z" fill="#031461"/>
<path d="M33.4521 29.5825H25.4521V31.5825H33.4521V29.5825Z" fill="#031461"/>
<path d="M37.54 37.7226H11.54V11.6426H37.54V37.7226ZM13.54 35.7226H35.54V13.6426H13.54V35.7226Z" fill="#031461"/>
</g>
</svg>
