<svg width="48" height="49" viewBox="0 0 48 49" fill="none" xmlns="http://www.w3.org/2000/svg">
<mask id="mask0_263_16383" style="mask-type:alpha" maskUnits="userSpaceOnUse" x="0" y="0" width="48" height="49">
<rect y="0.300781" width="48" height="48" fill="#C4C4C4"/>
</mask>
<g mask="url(#mask0_263_16383)">
<path d="M40.5 13.0425L25.5 4.38222C24.5718 3.84632 23.4282 3.84633 22.5 4.38222L7.5 13.0425C6.5718 13.5784 6 14.5688 6 15.6406V32.9611C6 34.0329 6.5718 35.0232 7.5 35.5591L22.5 44.2194C23.4282 44.7553 24.5718 44.7553 25.5 44.2194L40.5 35.5591C41.4282 35.0232 42 34.0329 42 32.9611V15.6406C42 14.5688 41.4282 13.5784 40.5 13.0425Z" stroke="#031461" stroke-width="2"/>
<path d="M36 30.8008L35.4961 31.6646L37 32.5418V30.8008H36ZM30 27.3008H29V27.8752L29.4961 28.1646L30 27.3008ZM36 20.5727H37V19.992L36.4957 19.7042L36 20.5727ZM29.5758 16.906L28.6323 17.2375L28.756 17.5896L29.0801 17.7745L29.5758 16.906ZM28.4848 13.8008L29.4283 13.4693L29.3027 13.1118L28.9717 12.9273L28.4848 13.8008ZM24 11.3008L24.4869 10.4273L23 9.59848V11.3008H24ZM24 20.1482H23V20.7288L23.5043 21.0167L24 20.1482ZM30 23.5727H31V22.992L30.4957 22.7042L30 23.5727ZM36.5039 29.937L30.5039 26.437L29.4961 28.1646L35.4961 31.6646L36.5039 29.937ZM35 20.5727V30.8008H37V20.5727H35ZM29.0801 17.7745L35.5043 21.4412L36.4957 19.7042L30.0715 16.0375L29.0801 17.7745ZM27.5414 14.1322L28.6323 17.2375L30.5192 16.5746L29.4283 13.4693L27.5414 14.1322ZM23.5131 12.1742L27.998 14.6742L28.9717 12.9273L24.4869 10.4273L23.5131 12.1742ZM25 20.1482V11.3008H23V20.1482H25ZM23.5043 21.0167L29.5043 24.4412L30.4957 22.7042L24.4957 19.2797L23.5043 21.0167ZM29 23.5727V27.3008H31V23.5727H29Z" fill="#031461"/>
<path fill-rule="evenodd" clip-rule="evenodd" d="M30 33.8008L18 26.8008V14.3008L22.4848 16.8008L23.5758 19.906L30 23.5727V33.8008Z" stroke="#031461" stroke-width="2"/>
<path fill-rule="evenodd" clip-rule="evenodd" d="M24 37.8008L12 30.8008V18.3008L16.4848 20.8008L17.5758 23.906L24 27.5727V37.8008Z" fill="#FFDB00" stroke="#031461" stroke-width="2"/>
</g>
</svg>
