<svg width="48" height="49" viewBox="0 0 48 49" fill="none" xmlns="http://www.w3.org/2000/svg">
<path fill-rule="evenodd" clip-rule="evenodd" d="M26 3.51319L41 12.1734C42.2376 12.888 43 14.2085 43 15.6375V32.9581C43 34.3871 42.2376 35.7076 41 36.4222L26 45.0824C24.7624 45.7969 23.2376 45.7969 22 45.0824L7 36.4222C5.7624 35.7076 5 34.3871 5 32.9581V15.6376C5 14.2085 5.76239 12.888 7 12.1734L22 3.51319C23.2376 2.79866 24.7624 2.79866 26 3.51319ZM25 5.24524C24.3812 4.88798 23.6188 4.88798 23 5.24524L8 13.9055C7.3812 14.2628 7 14.923 7 15.6376V32.9581C7 33.6726 7.3812 34.3328 8 34.6901L23 43.3504C23.6188 43.7076 24.3812 43.7076 25 43.3504L40 34.6901C40.6188 34.3328 41 33.6726 41 32.9581V15.6375C41 14.923 40.6188 14.2628 40 13.9055L25 5.24524Z" fill="#031461"/>
<path fill-rule="evenodd" clip-rule="evenodd" d="M27.3902 17.2004C26.292 16.2885 24.252 15.6758 21.9168 15.6758C18.4189 15.6758 15.5833 17.0506 15.5833 18.7466V26.4237C15.5833 27.9735 17.6459 29.273 20.4229 29.6218C19.886 28.4891 19.5856 27.2223 19.5856 25.8855C19.5856 21.3758 23.0035 17.6644 27.3902 17.2004Z" fill="#FFDB00"/>
<path fill-rule="evenodd" clip-rule="evenodd" d="M14.1836 17.6212C14.1836 17.0531 14.6901 16.2514 16.1732 15.5323C17.5874 14.8466 19.6112 14.3945 21.9011 14.3945C24.191 14.3945 26.2149 14.8466 27.6291 15.5323C29.0015 16.1977 29.5376 16.9339 29.61 17.4902C30.3142 17.6205 30.9877 17.8384 31.6187 18.1323V18.0439C31.6187 17.9922 31.6147 17.9415 31.6072 17.892C31.6148 17.803 31.6187 17.7127 31.6187 17.6212C31.6187 15.855 30.1736 14.5434 28.5016 13.7327C26.7607 12.8886 24.4258 12.3945 21.9011 12.3945C19.3764 12.3945 17.0416 12.8886 15.3006 13.7327C13.6286 14.5434 12.1836 15.855 12.1836 17.6212C12.1836 17.7127 12.1875 17.803 12.1951 17.892C12.1875 17.9415 12.1836 17.9922 12.1836 18.0439V21.6932V22.6932V27.7652C12.1836 29.5315 13.6286 30.8431 15.3006 31.6538C17.0416 32.4979 19.3764 32.9919 21.9011 32.9919C22.489 32.9919 23.0666 32.9651 23.6288 32.9134C22.803 32.3993 22.0728 31.7461 21.471 30.9866C19.3583 30.9339 17.4981 30.4965 16.1732 29.8541C14.6901 29.1351 14.1836 28.3334 14.1836 27.7652V25.9336C14.5333 26.1765 14.9108 26.3927 15.3006 26.5818C16.5718 27.1981 18.1595 27.6278 19.9066 27.8148C19.7427 27.1601 19.6554 26.4749 19.655 25.7695C18.296 25.5827 17.1028 25.2329 16.1732 24.7821C14.6901 24.063 14.1836 23.2613 14.1836 22.6932V21.6932V20.8616C14.5333 21.1045 14.9108 21.3207 15.3006 21.5097C16.6432 22.1607 18.339 22.6035 20.2027 22.772C20.4669 22.0779 20.8203 21.4277 21.2489 20.8356C19.2281 20.7589 17.4515 20.3299 16.1732 19.7101C14.6901 18.991 14.1836 18.1893 14.1836 17.6212Z" fill="#031461"/>
<path fill-rule="evenodd" clip-rule="evenodd" d="M24.6047 22.2965C22.6521 24.2491 22.6521 27.4149 24.6047 29.3676C26.5573 31.3202 29.7231 31.3202 31.6758 29.3676C33.6284 27.4149 33.6284 24.2491 31.6758 22.2965C29.7231 20.3439 26.5573 20.3439 24.6047 22.2965ZM23.1905 30.7818C20.4568 28.0481 20.4568 23.616 23.1905 20.8823C25.9241 18.1486 30.3563 18.1486 33.09 20.8823C35.5836 23.3759 35.8026 27.2827 33.7469 30.0245L36.2753 32.5529C36.6658 32.9434 36.6658 33.5765 36.2753 33.9671C35.8847 34.3576 35.2516 34.3576 34.861 33.9671L32.3327 31.4388C29.5909 33.4944 25.6841 33.2754 23.1905 30.7818Z" fill="#031461"/>
<path fill-rule="evenodd" clip-rule="evenodd" d="M25.2092 24.3555C25.7615 24.3555 26.2092 24.8032 26.2092 25.3555V26.418C26.2092 26.9703 25.7615 27.418 25.2092 27.418C24.6569 27.418 24.2092 26.9703 24.2092 26.418V25.3555C24.2092 24.8032 24.6569 24.3555 25.2092 24.3555Z" fill="#031461"/>
<path fill-rule="evenodd" clip-rule="evenodd" d="M31.1938 24.3555C31.7461 24.3555 32.1938 24.8032 32.1938 25.3555V26.418C32.1938 26.9703 31.7461 27.418 31.1938 27.418C30.6416 27.418 30.1938 26.9703 30.1938 26.418V25.3555C30.1938 24.8032 30.6416 24.3555 31.1938 24.3555Z" fill="#031461"/>
<path fill-rule="evenodd" clip-rule="evenodd" d="M28.2014 22.9336C28.7537 22.9336 29.2014 23.3813 29.2014 23.9336L29.2014 27.8477C29.2014 28.3999 28.7537 28.8477 28.2014 28.8477C27.6491 28.8477 27.2014 28.3999 27.2014 27.8477L27.2014 23.9336C27.2014 23.3813 27.6491 22.9336 28.2014 22.9336Z" fill="#031461"/>
</svg>
