<svg width="48" height="49" viewBox="0 0 48 49" fill="none" xmlns="http://www.w3.org/2000/svg">
<mask id="mask0_263_16382" style="mask-type:alpha" maskUnits="userSpaceOnUse" x="0" y="0" width="48" height="49">
<rect y="0.300781" width="48" height="48" fill="#C4C4C4"/>
</mask>
<g mask="url(#mask0_263_16382)">
<path d="M40.5 13.0425L25.5 4.38222C24.5718 3.84632 23.4282 3.84633 22.5 4.38222L7.5 13.0425C6.5718 13.5784 6 14.5688 6 15.6406V32.9611C6 34.0329 6.5718 35.0232 7.5 35.5591L22.5 44.2194C23.4282 44.7553 24.5718 44.7553 25.5 44.2194L40.5 35.5591C41.4282 35.0232 42 34.0329 42 32.9611V15.6406C42 14.5688 41.4282 13.5784 40.5 13.0425Z" stroke="#031461" stroke-width="2"/>
<path d="M24 33.3008C28.9706 33.3008 33 29.2713 33 24.3008C33 19.3302 28.9706 15.3008 24 15.3008C19.0294 15.3008 15 19.3302 15 24.3008C15 29.2713 19.0294 33.3008 24 33.3008Z" fill="#FFDB00"/>
<path d="M12 21.1134L11 21.1134L11 21.1134L12 21.1134ZM12 31.3008L13 31.3008L13 31.3008L12 31.3008ZM18 31.3008H19C19 30.7485 18.5523 30.3008 18 30.3008V31.3008ZM33.9168 34.3008V35.3008C34.3297 35.3008 34.7 35.0471 34.8492 34.6622L33.9168 34.3008ZM30.0002 34.3008H29.0002C29.0002 34.8531 29.4479 35.3008 30.0002 35.3008V34.3008ZM30.0002 30.3008H31.0002C31.0002 29.8964 30.7566 29.5317 30.3829 29.3769C30.0093 29.2221 29.5792 29.3076 29.2932 29.5936L30.0002 30.3008ZM26.0002 30.3008L26.7071 29.5935C26.4211 29.3076 25.991 29.2221 25.6174 29.3769C25.2438 29.5317 25.0002 29.8964 25.0002 30.3008H26.0002ZM26.0002 34.3008V35.3008C26.5524 35.3008 27.0002 34.8531 27.0002 34.3008H26.0002ZM22 34.3008L21.0385 34.5755C21.1611 35.0048 21.5535 35.3008 22 35.3008V34.3008ZM17.4487 28.617C17.6233 28.0931 17.3402 27.5267 16.8162 27.3521C16.2923 27.1775 15.726 27.4606 15.5513 27.9846L17.4487 28.617ZM17.4348 15.4747L17.6773 16.4448L18.4348 16.2555V15.4747H17.4348ZM26.5382 13.8634C25.9859 13.8634 25.5382 14.3111 25.5382 14.8634C25.5382 15.4157 25.9859 15.8634 26.5382 15.8634V13.8634ZM15.5 31.3008L14.5513 30.9846C14.4497 31.2895 14.5008 31.6247 14.6888 31.8855C14.8767 32.1463 15.1786 32.3008 15.5 32.3008V31.3008ZM20 27.3008L20.9615 27.0261L20.6958 26.0961L19.7575 26.3306L20 27.3008ZM22.9502 22.7174H21.9502V24.7174H22.9502V22.7174ZM15.9486 24.9845C15.774 24.4606 15.2077 24.1774 14.6837 24.3521C14.1598 24.5268 13.8766 25.0931 14.0513 25.617L15.9486 24.9845ZM35.4594 30.3211L34.527 29.9597L35.4594 30.3211ZM35.0002 23.1968V27.4298H37.0002V23.1968H35.0002ZM27.6668 15.8634C31.7169 15.8634 35.0002 19.1467 35.0002 23.1968H37.0002C37.0002 18.0421 32.8215 13.8634 27.6668 13.8634V15.8634ZM11 21.1134L11 31.3008L13 31.3008L13 21.1134L11 21.1134ZM11 31.3008C11 32.2673 11.2833 33.2715 11.969 34.0484C12.6729 34.846 13.7107 35.3008 15 35.3008V33.3008C14.2059 33.3008 13.7437 33.0368 13.4685 32.725C13.1751 32.3925 13 31.8968 13 31.3008H11ZM15 35.3008C16.2892 35.3008 17.327 34.846 18.031 34.0485C18.7167 33.2716 19 32.2673 19 31.3008H17C17 31.8967 16.825 32.3925 16.5315 32.725C16.2563 33.0368 15.7941 33.3008 15 33.3008V35.3008ZM34.527 29.9597L32.9844 33.9394L34.8492 34.6622L36.3918 30.6826L34.527 29.9597ZM33.9168 33.3008H30.0002V35.3008H33.9168V33.3008ZM31.0002 34.3008V30.3008H29.0002V34.3008H31.0002ZM25.0002 30.3008V34.3008H27.0002V30.3008H25.0002ZM26.0002 33.3008H22V35.3008H26.0002V33.3008ZM26.5382 15.8634H27.6668V13.8634H26.5382V15.8634ZM17.1922 14.5046C16.1163 14.7736 14.5686 15.1789 13.2995 16.1374C11.9628 17.1469 11 18.7159 11 21.1134H13C13 19.3443 13.6676 18.3656 14.5048 17.7333C15.4097 17.05 16.5794 16.7193 17.6773 16.4448L17.1922 14.5046ZM18 30.3008H15.5V32.3008H18V30.3008ZM16.4487 31.617L17.4487 28.617L15.5513 27.9846L14.5513 30.9846L16.4487 31.617ZM22.9615 34.0261L20.9615 27.0261L19.0385 27.5755L21.0385 34.5755L22.9615 34.0261ZM26.5799 18.5091C26.5799 20.9904 25.0939 22.7174 22.9502 22.7174V24.7174C26.4885 24.7174 28.5799 21.7808 28.5799 18.5091H26.5799ZM22.9502 14.3008C25.0939 14.3008 26.5799 16.0278 26.5799 18.5091H28.5799C28.5799 15.2375 26.4885 12.3008 22.9502 12.3008V14.3008ZM22.9502 12.3008H19.6087V14.3008H22.9502V12.3008ZM19.6087 13.3008C19.6087 12.3008 19.6082 12.3008 19.6077 12.3008C19.6075 12.3008 19.607 12.3008 19.6066 12.3008C19.6059 12.3008 19.6052 12.3008 19.6044 12.3008C19.6028 12.3008 19.601 12.3008 19.5992 12.3008C19.5955 12.3009 19.5912 12.3009 19.5863 12.301C19.5767 12.3011 19.5648 12.3014 19.551 12.3019C19.5233 12.3028 19.4872 12.3045 19.444 12.3076C19.358 12.3137 19.2416 12.3255 19.1046 12.3484C18.8353 12.3932 18.461 12.4849 18.0745 12.6781C17.6842 12.8733 17.2634 13.1818 16.9424 13.6632C16.6173 14.1509 16.4348 14.7562 16.4348 15.4747H18.4348C18.4348 15.1062 18.524 14.8963 18.6065 14.7726C18.6932 14.6426 18.8158 14.5435 18.969 14.4669C19.126 14.3884 19.2951 14.3442 19.4334 14.3211C19.5002 14.31 19.5537 14.3048 19.5865 14.3025C19.6028 14.3013 19.6135 14.3009 19.6176 14.3008C19.6196 14.3007 19.62 14.3007 19.6186 14.3007C19.6179 14.3007 19.6167 14.3007 19.6151 14.3008C19.6142 14.3008 19.6133 14.3008 19.6122 14.3008C19.6117 14.3008 19.6111 14.3008 19.6106 14.3008C19.6103 14.3008 19.6098 14.3008 19.6096 14.3008C19.6092 14.3008 19.6087 14.3008 19.6087 13.3008ZM19.7575 26.3306C18.0468 26.7583 17.1294 26.3152 16.6402 25.9076C16.3733 25.6852 16.1932 25.4382 16.0806 25.2469C16.0249 25.1522 15.9878 25.0745 15.9664 25.0257C15.9557 25.0015 15.9492 24.9848 15.9463 24.9773C15.9449 24.9736 15.9444 24.9722 15.9448 24.9733C15.945 24.9739 15.9454 24.9751 15.9461 24.9769C15.9464 24.9779 15.9468 24.979 15.9472 24.9802C15.9474 24.9809 15.9476 24.9815 15.9479 24.9823C15.948 24.9826 15.9482 24.9832 15.9482 24.9834C15.9484 24.9839 15.9486 24.9845 15 25.3008C14.0513 25.617 14.0515 25.6176 14.0517 25.6183C14.0518 25.6185 14.052 25.6191 14.0521 25.6196C14.0524 25.6205 14.0528 25.6214 14.0531 25.6224C14.0538 25.6244 14.0545 25.6266 14.0553 25.629C14.057 25.6337 14.0589 25.6392 14.0611 25.6454C14.0655 25.6578 14.0711 25.6731 14.078 25.6911C14.0918 25.7271 14.1106 25.7739 14.1351 25.8297C14.184 25.9411 14.2563 26.09 14.3568 26.2609C14.5567 26.6008 14.8766 27.0414 15.3598 27.444C16.3706 28.2863 17.9532 28.8433 20.2425 28.2709L19.7575 26.3306ZM30.0002 30.3008C29.2932 29.5936 29.2937 29.593 29.2942 29.5925C29.2944 29.5924 29.2949 29.5918 29.2952 29.5915C29.2959 29.5908 29.2966 29.5902 29.2973 29.5895C29.2986 29.5882 29.2999 29.5869 29.3012 29.5856C29.3038 29.5831 29.3062 29.5808 29.3086 29.5785C29.3133 29.574 29.3177 29.5699 29.3216 29.5664C29.3295 29.5592 29.3357 29.5539 29.3401 29.5503C29.349 29.5429 29.3506 29.5424 29.344 29.5468C29.331 29.5555 29.283 29.5856 29.1912 29.6223C29.0096 29.695 28.6374 29.8008 28.0002 29.8008V31.8008C28.8628 31.8008 29.4906 31.6566 29.934 31.4793C30.1548 31.391 30.3256 31.2961 30.4532 31.211C30.5169 31.1686 30.5693 31.1289 30.6114 31.0943C30.6324 31.077 30.6508 31.0609 30.6668 31.0464C30.6747 31.0392 30.6821 31.0324 30.6888 31.0259C30.6922 31.0227 30.6954 31.0196 30.6984 31.0166C30.7 31.0151 30.7014 31.0137 30.7029 31.0122C30.7036 31.0115 30.7044 31.0108 30.7051 31.0101C30.7054 31.0098 30.7059 31.0092 30.7061 31.0091C30.7066 31.0085 30.7072 31.008 30.0002 30.3008ZM28.0002 29.8008C27.363 29.8008 26.9908 29.695 26.8091 29.6223C26.7174 29.5856 26.6694 29.5555 26.6564 29.5468C26.6497 29.5424 26.6513 29.5429 26.6602 29.5503C26.6646 29.5539 26.6708 29.5592 26.6787 29.5664C26.6826 29.5699 26.687 29.574 26.6917 29.5785C26.6941 29.5808 26.6966 29.5831 26.6991 29.5856C26.7004 29.5869 26.7017 29.5882 26.7031 29.5895C26.7037 29.5902 26.7044 29.5908 26.7051 29.5915C26.7054 29.5918 26.7059 29.5924 26.7061 29.5925C26.7066 29.593 26.7071 29.5935 26.0002 30.3008C25.2932 31.008 25.2937 31.0085 25.2942 31.0091C25.2944 31.0092 25.2949 31.0098 25.2953 31.0101C25.296 31.0108 25.2967 31.0115 25.2974 31.0122C25.2989 31.0137 25.3004 31.0151 25.3019 31.0166C25.305 31.0196 25.3082 31.0227 25.3116 31.0259C25.3183 31.0324 25.3256 31.0392 25.3336 31.0464C25.3495 31.0609 25.3679 31.077 25.389 31.0943C25.4311 31.1289 25.4835 31.1686 25.5471 31.211C25.6748 31.2961 25.8456 31.391 26.0664 31.4793C26.5097 31.6566 27.1375 31.8008 28.0002 31.8008V29.8008ZM35.0002 27.4298C35.0002 28.2951 34.8397 29.1529 34.527 29.9597L36.3918 30.6826C36.7939 29.6452 37.0002 28.5423 37.0002 27.4298H35.0002Z" fill="#031461"/>
</g>
</svg>
