<svg width="48" height="48" viewBox="0 0 48 48" fill="none" xmlns="http://www.w3.org/2000/svg">
<path fill-rule="evenodd" clip-rule="evenodd" d="M26 3.21546L41 11.8757C42.2376 12.5902 43 13.9108 43 15.3398V32.6603C43 34.0894 42.2376 35.4099 41 36.1244L26 44.7847C24.7624 45.4992 23.2376 45.4992 22 44.7847L7 36.1244C5.7624 35.4099 5 34.0894 5 32.6603V15.3398C5 13.9108 5.76239 12.5903 7 11.8757L22 3.21546C23.2376 2.50093 24.7624 2.50093 26 3.21546ZM25 4.94751C24.3812 4.59025 23.6188 4.59025 23 4.94752L8 13.6078C7.3812 13.965 7 14.6253 7 15.3398V32.6603C7 33.3749 7.3812 34.0351 8 34.3924L23 43.0526C23.6188 43.4099 24.3812 43.4099 25 43.0526L40 34.3924C40.6188 34.0351 41 33.3749 41 32.6603V15.3398C41 14.6253 40.6188 13.965 40 13.6078L25 4.94751Z" fill="#031461"/>
<path d="M33 17H15V23H33V17Z" fill="#FFDB00"/>
<path fill-rule="evenodd" clip-rule="evenodd" d="M25.0001 31.1707C26.1652 31.5826 27 32.6938 27 34C27 35.6569 25.6569 37 24 37C22.3431 37 21 35.6569 21 34C21 32.6938 21.8348 31.5825 23.0001 31.1707V12H25.0001V31.1707ZM18.0001 15V24.5858L16.2935 26.2924C15.9018 26.105 15.4632 26 15 26C13.3431 26 12 27.3431 12 29C12 30.6569 13.3431 32 15 32C16.6569 32 18 30.6569 18 29C18 28.5369 17.8951 28.0983 17.7077 27.7066L20.0001 25.4142V15H18.0001ZM30.0001 15H28.0001V25.4142L30.2924 27.7065C30.105 28.0982 30 28.5368 30 29C30 30.6569 31.3431 32 33 32C34.6569 32 36 30.6569 36 29C36 27.3431 34.6569 26 33 26C32.5369 26 32.0983 26.1049 31.7066 26.2923L30.0001 24.5858V15ZM23 34C23 33.4477 23.4477 33 24 33C24.5523 33 25 33.4477 25 34C25 34.5523 24.5523 35 24 35C23.4477 35 23 34.5523 23 34ZM15 28C14.4477 28 14 28.4477 14 29C14 29.5523 14.4477 30 15 30C15.5523 30 16 29.5523 16 29C16 28.4477 15.5523 28 15 28ZM32 29C32 28.4477 32.4477 28 33 28C33.5523 28 34 28.4477 34 29C34 29.5523 33.5523 30 33 30C32.4477 30 32 29.5523 32 29Z" fill="#031461"/>
</svg>
