<svg width="49" height="48" viewBox="0 0 49 48" fill="none" xmlns="http://www.w3.org/2000/svg">
<path fill-rule="evenodd" clip-rule="evenodd" d="M26.3477 3.21546L41.3477 11.8757C42.5853 12.5902 43.3477 13.9108 43.3477 15.3398V32.6603C43.3477 34.0894 42.5853 35.4099 41.3477 36.1244L26.3477 44.7847C25.1101 45.4992 23.5853 45.4992 22.3477 44.7847L7.34766 36.1244C6.11006 35.4099 5.34766 34.0894 5.34766 32.6603V15.3398C5.34766 13.9108 6.11005 12.5903 7.34766 11.8757L22.3477 3.21546C23.5853 2.50093 25.1101 2.50093 26.3477 3.21546ZM25.3477 4.94751C24.7289 4.59025 23.9665 4.59025 23.3477 4.94752L8.34766 13.6078C7.72885 13.965 7.34766 14.6253 7.34766 15.3398V32.6603C7.34766 33.3749 7.72886 34.0351 8.34766 34.3924L23.3477 43.0526C23.9665 43.4099 24.7289 43.4099 25.3477 43.0526L40.3477 34.3924C40.9665 34.0351 41.3477 33.3749 41.3477 32.6603V15.3398C41.3477 14.6253 40.9665 13.965 40.3477 13.6078L25.3477 4.94751Z" fill="#031461"/>
<path d="M14.3477 32L14.3477 23L35.3477 23L35.3477 32L14.3477 32Z" fill="#FFDB00"/>
<path d="M13.8477 24.9999V23.9999L12.8477 23.4999V21L23.6095 20.9999L22.5338 23L15.8477 23V25.9999L14.8477 26.5138V31H34.8477V26.4999L33.8477 25.9999V23H26.9799L28.7611 21H36.8477V23.4999L35.8477 23.9999V24.9999L36.8477 25.4999V33H12.8477V25.4999L13.8477 24.9999Z" fill="#031461"/>
<path fill-rule="evenodd" clip-rule="evenodd" d="M26.3477 23.7177L26.3477 28.9999L24.3477 28.9999L24.3477 25.9301L26.3477 23.7177Z" fill="#031461"/>
<path fill-rule="evenodd" clip-rule="evenodd" d="M19.3477 23.9999L19.3477 28.9999L17.3477 28.9999L17.3477 23.9999L19.3477 23.9999Z" fill="#031461"/>
<path fill-rule="evenodd" clip-rule="evenodd" d="M32.3477 24L32.3477 29L30.3477 29L30.3477 24L32.3477 24Z" fill="#031461"/>
<path fill-rule="evenodd" clip-rule="evenodd" d="M29.3477 24L29.3477 29L27.3477 29L27.3477 24L29.3477 24Z" fill="#031461"/>
<path fill-rule="evenodd" clip-rule="evenodd" d="M33.3477 30L33.3477 32L25.3477 32L25.3477 30L33.3477 30Z" fill="#031461"/>
<path fill-rule="evenodd" clip-rule="evenodd" d="M23.3477 30L23.3477 32L16.3477 32L16.3477 30L23.3477 30Z" fill="#031461"/>
<path d="M21.0496 19.5L24.7338 11H30.1072L27.1247 16.8846H30.348L20.5234 28L23.8949 19.5L21.0496 19.5Z" fill="#031461"/>
</svg>
