<svg width="48" height="49" viewBox="0 0 48 49" fill="none" xmlns="http://www.w3.org/2000/svg">
<mask id="mask0_263_16378" style="mask-type:alpha" maskUnits="userSpaceOnUse" x="0" y="0" width="48" height="49">
<rect y="0.300781" width="48" height="48" fill="#C4C4C4"/>
</mask>
<g mask="url(#mask0_263_16378)">
<path d="M40.5 13.0425L25.5 4.38222C24.5718 3.84632 23.4282 3.84633 22.5 4.38222L7.5 13.0425C6.5718 13.5784 6 14.5688 6 15.6406V32.9611C6 34.0329 6.5718 35.0232 7.5 35.5591L22.5 44.2194C23.4282 44.7553 24.5718 44.7553 25.5 44.2194L40.5 35.5591C41.4282 35.0232 42 34.0329 42 32.9611V15.6406C42 14.5688 41.4282 13.5784 40.5 13.0425Z" stroke="#031461" stroke-width="2"/>
<path d="M24 33.3008C28.9706 33.3008 33 29.2713 33 24.3008C33 19.3302 28.9706 15.3008 24 15.3008C19.0294 15.3008 15 19.3302 15 24.3008C15 29.2713 19.0294 33.3008 24 33.3008Z" fill="#FFDB00"/>
<path fill-rule="evenodd" clip-rule="evenodd" d="M16.6252 22.3041H14.2177C13.5452 22.3041 13 21.7589 13 21.0864C13 20.3507 13.4473 19.689 14.1299 19.4146L14.7122 19.1798C15.4085 16.1166 18.2137 13.8255 21.5684 13.8255C21.7447 13.8255 21.8833 13.8193 21.9874 13.8078L22.0062 13.8042C23.8627 13.8718 25.6008 14.4033 27.1081 15.2863C27.9362 14.7819 28.7298 14.4077 29.4887 14.1634C30.7639 13.753 31.8359 13.6872 32.7046 13.9661C32.8958 14.0275 33.0011 14.2323 32.9397 14.4236C32.9261 14.4659 32.9048 14.5055 32.8769 14.5402L30.153 17.931C31.6294 19.7919 32.5112 22.146 32.5112 24.706C32.5112 30.7309 27.627 35.6151 21.6021 35.6151C21.4859 35.6151 21.3702 35.6132 21.2549 35.6096C24.817 35.474 27.6627 32.5435 27.6627 28.9484C27.6627 25.3448 24.8036 22.4091 21.2301 22.2858L20.996 22.2817L16.9548 22.282C16.847 22.2966 16.737 22.3041 16.6252 22.3041Z" stroke="#031461" stroke-width="2"/>
<path d="M21.8921 35.6147H16.4512L19.8517 31.9983V27.1299L26.4017 33.6799" stroke="#031461" stroke-width="2" stroke-linejoin="round"/>
</g>
</svg>
