<svg width="48" height="49" viewBox="0 0 48 49" fill="none" xmlns="http://www.w3.org/2000/svg">
<mask id="mask0_499_3902" style="mask-type:alpha" maskUnits="userSpaceOnUse" x="0" y="0" width="48" height="49">
<rect y="0.300781" width="48" height="48" fill="#C4C4C4"/>
</mask>
<g mask="url(#mask0_499_3902)">
<path d="M40.5 13.0425L25.5 4.38222C24.5718 3.84632 23.4282 3.84633 22.5 4.38222L7.5 13.0425C6.5718 13.5784 6 14.5688 6 15.6406V32.9611C6 34.0329 6.5718 35.0232 7.5 35.5591L22.5 44.2194C23.4282 44.7553 24.5718 44.7553 25.5 44.2194L40.5 35.5591C41.4282 35.0232 42 34.0329 42 32.9611V15.6406C42 14.5688 41.4282 13.5784 40.5 13.0425Z" stroke="#031461" stroke-width="2"/>
<circle cx="29" cy="19.3008" r="8" fill="#FFDB00"/>
<path d="M20.5 14.8007C18.5 13.3008 13.4199 12.3131 12.2891 16.1627C12.0188 16.9738 11.9793 17.8538 12.0079 18.6543C12.0777 20.3385 14.3233 30.9874 17 29.8008C18.0798 29.3222 20.5 27.3008 20.5 27.3008" stroke="#031461" stroke-width="2"/>
<path d="M31.8862 23.8847C31.9505 24.7016 31.8632 26.0169 31.1654 26.8183L30.725 29.9572C30.5375 31.2648 29.7725 35.8129 28.7035 36.5681C27.7055 37.3028 26.0064 37.7185 25.0782 36.6665C24.0708 35.3855 24.3925 33.5305 24.288 31.9595C24.1863 30.7463 23.803 29.9549 23.803 29.9549L22.3828 28.0232C21.0928 27.8453 20.4669 27.3857 20.4669 27.3857C19.983 27.0834 19.2474 26.6972 19.0318 24.8749C18.9609 24.2319 19.0263 23.5662 19.0571 22.9138C19.0923 22.3008 19.0741 20.9737 19.0504 20.4269C19.0235 19.1698 19 15.3464 21.5102 14.3088C21.5102 14.3088 23.3428 12.7494 26.7778 13.5097C28.5325 13.8498 31.0537 15.0468 32 19.1942C32 20.0078 31.8867 20.3958 31.8438 20.9704C31.8015 21.3705 31.7708 21.7728 31.773 22.1751C31.773 22.7548 31.8422 23.305 31.8862 23.8847Z" stroke="#031461" stroke-width="2" stroke-linecap="round" stroke-linejoin="round"/>
<path d="M22.5272 22.888C22.7161 22.888 23.9891 22.888 23.9891 22.888C23.9891 22.888 23.9812 22.383 23.9891 21.8975C23.9891 21.6339 23.8986 21.3809 23.7371 21.1937C23.5756 21.0064 23.3562 20.8999 23.1268 20.8975C22.7326 20.8975 19 20.8975 19 20.8975L19 22.888C19 22.888 22.3466 22.888 22.5272 22.888Z" fill="#031461"/>
<path d="M29.5381 22.8881C29.727 22.8881 32 22.8881 32 22.8881L32.0164 20.8975C32.0164 20.8975 29.3492 20.8975 28.955 20.8975C28.8341 20.884 28.7121 20.8997 28.5969 20.9435C28.4816 20.9874 28.3755 21.0585 28.2856 21.1522C28.1957 21.2459 28.1238 21.3603 28.0746 21.4878C28.0254 21.6154 28 21.7533 28 21.8928C28 22.4033 28 22.8881 28 22.8881C28 22.8881 29.3574 22.8881 29.5381 22.8881Z" fill="#031461"/>
<path d="M32.5679 28.3008C32.7565 28.3008 33.6137 28.3008 34.0273 28.3008C34.0169 28.9727 33.1786 30.3007 32.0307 30.3007C30.6791 30.301 30 30.3007 30 30.3007L30 28.3008C30 28.3008 32.3875 28.3008 32.5679 28.3008Z" fill="#031461"/>
<path d="M20.9005 29.3008C20.7116 29.3008 19.853 29.3008 19.4386 29.3008C19.4491 29.9727 20.2888 31.3007 21.4386 31.3007C22.7924 31.301 23.4727 31.3007 23.4727 31.3007L23.4727 29.3008C23.4727 29.3008 21.0812 29.3008 20.9005 29.3008Z" fill="#031461"/>
<path d="M28 13.6795C30.2659 12.9656 33.4263 13.1866 35.2387 14.9845C36.6799 16.4186 36.6877 19.3063 35.7396 22.0397C35.1237 23.8153 33.0806 26.4925 32.8708 26.8008H31.9057" stroke="#031461" stroke-width="2" stroke-linejoin="round"/>
</g>
</svg>
