<svg width="48" height="49" viewBox="0 0 48 49" fill="none" xmlns="http://www.w3.org/2000/svg">
<g clip-path="url(#clip0_100_2889)">
<path fill-rule="evenodd" clip-rule="evenodd" d="M33.0468 26.2516C33.0468 25.1212 33.9632 24.2048 35.0936 24.2048C36.224 24.2048 37.1404 25.1212 37.1404 26.2516C37.1404 27.382 36.224 28.2984 35.0936 28.2984C33.9632 28.2984 33.0468 27.382 33.0468 26.2516ZM35.0936 22.2048C32.8586 22.2048 31.0468 24.0166 31.0468 26.2516C31.0468 28.4866 32.8586 30.2984 35.0936 30.2984C37.3286 30.2984 39.1404 28.4866 39.1404 26.2516C39.1404 24.0166 37.3286 22.2048 35.0936 22.2048ZM32.5163 33.1309C34.1176 32.2793 36.0696 32.2793 37.6708 33.1309C39.2389 33.9648 40.1872 35.5309 40.1872 37.2049H42.1872C42.1872 34.7602 40.8029 32.5313 38.6099 31.3651C36.4215 30.2012 33.7656 30.2012 31.5772 31.3651C29.3843 32.5313 28 34.7602 28 37.2049H30C30 35.5309 30.9483 33.9648 32.5163 33.1309Z" fill="#031461"/>
<path fill-rule="evenodd" clip-rule="evenodd" d="M11 11H10V12V30V31H11H22V34H19H18V36H19H26.2704C26.4446 35.3015 26.7004 34.6303 27.0297 34H27H24V31H29.5759C29.869 30.7806 30.1774 30.5785 30.5 30.3955C30.5446 30.3702 30.5894 30.3453 30.6343 30.3208C30.2629 29.927 29.9442 29.483 29.6895 29H24H22H12V13H23H34V20.2878C34.3252 20.2332 34.6593 20.2048 35 20.2048C35.3407 20.2048 35.6748 20.2332 36 20.2878V12V11H35H23H11Z" fill="#031461"/>
</g>
<defs>
<clipPath id="clip0_100_2889">
<rect width="48" height="48" fill="white" transform="translate(0 0.882324)"/>
</clipPath>
</defs>
</svg>
