<svg width="49" height="49" viewBox="0 0 49 49" fill="none" xmlns="http://www.w3.org/2000/svg">
<mask id="mask0_263_18502" style="mask-type:alpha" maskUnits="userSpaceOnUse" x="0" y="0" width="49" height="49">
<rect x="0.5" y="0.398926" width="48" height="48" fill="#C4C4C4"/>
</mask>
<g mask="url(#mask0_263_18502)">
<path d="M10.5 36.6779V38.601H38.5V36.6779H37.0481V19.2837H34.5288C33.4519 19.2837 32.3462 19.2837 31.25 19.2837H30.0288V20.4952C30.0288 24.4279 30.0288 28.4279 30.0288 32.2933V36.6491H28V24.9472H20.9904V36.6587H18.9519V27.3222H11.9615V36.6875L10.5 36.6779ZM31.9712 21.226H35.1154V36.6587H31.9712V21.226ZM22.9231 26.8798H26.0673V36.6491H22.9231V26.8798ZM13.8846 29.2548H17.0192V36.6491H13.8846V29.2548Z" fill="#031461"/>
<path d="M23.2117 20.7932L23.0098 20.6105L20.1252 17.7259L19.8079 17.4086L19.0194 16.572L18.1829 17.4086L12.3367 23.2547L12.2021 23.3893C12.0795 23.5041 11.9639 23.6261 11.856 23.7547L13.0771 25.2259C14.5194 23.7739 16.231 22.0528 17.6829 20.6105L18.6925 19.5624L18.856 19.4086L18.9713 19.2932L19.0771 19.3893L19.2406 19.5432L23.2886 23.5913L33.0483 13.8509C33.1013 13.7917 33.1592 13.737 33.2213 13.6874L33.3656 13.5528L33.4521 13.4759V13.5816C33.4521 13.7355 33.4521 13.8797 33.4521 14.0047C33.4521 14.2932 33.4521 14.8413 33.4521 15.1009H35.3752C35.3752 15.1009 35.3752 11.6297 35.3752 10.197C33.9425 10.197 31.6348 10.197 30.0579 10.197V12.1201H31.981L31.731 12.3605L23.2117 20.7932Z" fill="#031461"/>
</g>
</svg>
