<svg width="48" height="49" viewBox="0 0 48 49" fill="none" xmlns="http://www.w3.org/2000/svg">
<mask id="mask0_263_18513" style="mask-type:alpha" maskUnits="userSpaceOnUse" x="0" y="0" width="48" height="49">
<rect y="0.398926" width="48" height="48" fill="#C4C4C4"/>
</mask>
<g mask="url(#mask0_263_18513)">
<path d="M12.0001 12.3989L21.4092 12.3989L21.4092 21.808H12.0001L12.0001 12.3989Z" stroke="#031461" stroke-width="2"/>
<path d="M12.0001 25.9897L21.4092 25.9897L21.4092 35.3988H12.0001L12.0001 25.9897Z" stroke="#031461" stroke-width="2"/>
<path d="M25.5909 25.9897L35 25.9897V35.3988H25.5909V25.9897Z" stroke="#031461" stroke-width="2"/>
<path d="M30.2954 21.808C32.8936 21.808 34.9999 19.7017 34.9999 17.1035C34.9999 14.5052 32.8936 12.3989 30.2954 12.3989C27.6971 12.3989 25.5908 14.5052 25.5908 17.1035C25.5908 19.7017 27.6971 21.808 30.2954 21.808Z" stroke="#031461" stroke-width="2"/>
</g>
</svg>
