<svg width="49" height="49" viewBox="0 0 49 49" fill="none" xmlns="http://www.w3.org/2000/svg">
<mask id="mask0_263_18525" style="mask-type:alpha" maskUnits="userSpaceOnUse" x="0" y="0" width="49" height="49">
<rect x="0.5" y="0.398926" width="48" height="48" fill="#C4C4C4"/>
</mask>
<g mask="url(#mask0_263_18525)">
<path fill-rule="evenodd" clip-rule="evenodd" d="M38.7857 13.3989H10.5V35.3989H38.7857V13.3989Z" stroke="#031461" stroke-width="2"/>
<path d="M30.144 20.7361H35.3821" stroke="#031461" stroke-width="2"/>
<path d="M26.7382 35.3989L26.7382 13.3989" stroke="#031461" stroke-width="1.5"/>
<path d="M30.144 24.7473H35.3821" stroke="#031461" stroke-width="2"/>
<path d="M30.144 29.1548H35.3821" stroke="#031461" stroke-width="2"/>
<path d="M14.3147 31.0218C14.3147 29.3696 15.1919 27.8472 16.6064 27.0448C18.0316 26.2364 19.7645 26.2364 21.1897 27.0448C22.6041 27.8472 23.4814 29.3696 23.4814 31.0218" stroke="#031461" stroke-width="2"/>
<path d="M18.8981 23.0442C20.3446 23.0442 21.5171 21.8717 21.5171 20.4252C21.5171 18.9787 20.3446 17.8062 18.8981 17.8062C17.4516 17.8062 16.2791 18.9787 16.2791 20.4252C16.2791 21.8717 17.4516 23.0442 18.8981 23.0442Z" stroke="#031461" stroke-width="2" stroke-linejoin="round"/>
</g>
</svg>
