<svg width="48" height="49" viewBox="0 0 48 49" fill="none" xmlns="http://www.w3.org/2000/svg">
<mask id="mask0_99_2887" style="mask-type:alpha" maskUnits="userSpaceOnUse" x="0" y="0" width="48" height="49">
<rect y="0.824219" width="48" height="48" fill="#C4C4C4"/>
</mask>
<g mask="url(#mask0_99_2887)">
<path d="M14 19.8242V30.8242C14 33.5856 18.4772 35.8242 24 35.8242C29.5228 35.8242 34 33.5856 34 30.8242V19.8242" stroke="#031461" stroke-width="2" stroke-linecap="square" stroke-linejoin="round"/>
<path d="M14 24.8242C14 27.5856 18.4772 29.8242 24 29.8242C29.5228 29.8242 34 27.5856 34 24.8242" stroke="#031461" stroke-width="2" stroke-linecap="square"/>
<path d="M24 23.8242C29.5228 23.8242 34 21.5856 34 18.8242C34 16.0628 29.5228 13.8242 24 13.8242C18.4772 13.8242 14 16.0628 14 18.8242C14 21.5856 18.4772 23.8242 24 23.8242Z" stroke="#031461" stroke-width="1.5"/>
<path d="M24 23.8242C29.5228 23.8242 34 21.5856 34 18.8242C34 16.0628 29.5228 13.8242 24 13.8242C18.4772 13.8242 14 16.0628 14 18.8242C14 21.5856 18.4772 23.8242 24 23.8242Z" stroke="#031461" stroke-width="2"/>
<path d="M14 19.8242V30.8242C14 33.5856 18.4772 35.8242 24 35.8242C29.5228 35.8242 34 33.5856 34 30.8242V19.8242" stroke="#031461" stroke-width="2" stroke-linecap="square" stroke-linejoin="round"/>
<path d="M24 23.8242C29.5228 23.8242 34 21.5856 34 18.8242C34 16.0628 29.5228 13.8242 24 13.8242C18.4772 13.8242 14 16.0628 14 18.8242C14 21.5856 18.4772 23.8242 24 23.8242Z" stroke="#031461" stroke-width="2"/>
</g>
</svg>
