<svg width="48" height="49" viewBox="0 0 48 49" fill="none" xmlns="http://www.w3.org/2000/svg">
<mask id="mask0_480_2130" style="mask-type:alpha" maskUnits="userSpaceOnUse" x="0" y="0" width="48" height="49">
<rect y="0.83374" width="48" height="48" fill="#C4C4C4"/>
</mask>
<g mask="url(#mask0_480_2130)">
<path fill-rule="evenodd" clip-rule="evenodd" d="M15.6661 15.3272C13.7787 16.2632 13 17.3693 13 18.2883C13 19.2073 13.7787 20.3134 15.6661 21.2493C17.4913 22.1544 20.0829 22.7428 23 22.7428C25.9171 22.7428 28.5087 22.1544 30.3339 21.2493C32.2213 20.3134 33 19.2073 33 18.2883C33 17.3693 32.2213 16.2632 30.3339 15.3272C28.5087 14.4222 25.9171 13.8337 23 13.8337C20.0829 13.8337 17.4913 14.4222 15.6661 15.3272ZM14.7776 13.5354C16.9336 12.4663 19.842 11.8337 23 11.8337C26.158 11.8337 29.0664 12.4663 31.2224 13.5354C33.3162 14.5737 35 16.1949 35 18.2883C35 18.4103 34.9943 18.5308 34.9831 18.6496C34.9942 18.7093 35 18.7708 35 18.8337V22.8887C34.6717 22.8524 34.338 22.8337 34 22.8337C33.662 22.8337 33.3283 22.8524 33 22.8887V21.9217C32.4709 22.3478 31.866 22.722 31.2224 23.0411C29.0664 24.1102 26.158 24.7428 23 24.7428C19.842 24.7428 16.9336 24.1102 14.7776 23.0411C14.134 22.722 13.5291 22.3478 13 21.9217V23.8337V24.8337C13 25.7528 13.7787 26.8589 15.6661 27.7948C17.4913 28.6999 20.0829 29.2883 23 29.2883C23.8321 29.2883 24.6377 29.2404 25.4066 29.151C25.2026 29.8052 25.0712 30.4915 25.0219 31.2004C24.3633 31.2583 23.6875 31.2883 23 31.2883C19.842 31.2883 16.9336 30.6557 14.7776 29.5866C14.134 29.2675 13.5291 28.8932 13 28.4672V31.3792C13 32.2982 13.7787 33.4043 15.6661 34.3402C17.4913 35.2453 20.0829 35.8337 23 35.8337C23.9908 35.8337 24.944 35.7659 25.8425 35.6407C26.1515 36.3019 26.5386 36.9192 26.9919 37.481C25.7387 37.7105 24.3936 37.8337 23 37.8337C19.842 37.8337 16.9336 37.2011 14.7776 36.132C12.6838 35.0938 11 33.4726 11 31.3792V24.8337V23.8337V18.8337C11 18.7708 11.0058 18.7093 11.0169 18.6496C11.0057 18.5308 11 18.4103 11 18.2883C11 16.1949 12.6838 14.5737 14.7776 13.5354Z" fill="#031461"/>
<path d="M41 31.8337C41 35.6997 37.866 38.8337 34 38.8337C30.134 38.8337 27 35.6997 27 31.8337C27 27.9677 30.134 24.8337 34 24.8337C36.2901 24.8337 38.3234 25.9335 39.6005 27.6337L40.5 28.8337M34 27.8337V31.8337L31.5 34.3337" stroke="#031461" stroke-width="2"/>
<path d="M40.75 24.8337L40.75 28.8337L36.75 28.8337" stroke="#031461" stroke-width="2"/>
</g>
</svg>
