<svg width="48" height="49" viewBox="0 0 48 49" fill="none" xmlns="http://www.w3.org/2000/svg">
<g clip-path="url(#clip0_108_244)">
<path fill-rule="evenodd" clip-rule="evenodd" d="M9 10H8V11V29V30H9H20V32.9019V33H17H16V35H17H25V33H22V32.9019V30H25V28H10V12H21H32V16H34V11V10H33H21H9Z" fill="#031461"/>
<path fill-rule="evenodd" clip-rule="evenodd" d="M28 18H27V19V39V40H28H40H41V39V19V18H40H28ZM29 38V20H39V38H29ZM30.5 24.5H37.5V22.5H30.5V24.5ZM37.5 27.85H30.5V26.15H37.5V27.85ZM34 35C34.8284 35 35.5 34.3284 35.5 33.5C35.5 32.6716 34.8284 32 34 32C33.1716 32 32.5 32.6716 32.5 33.5C32.5 34.3284 33.1716 35 34 35Z" fill="#031461"/>
</g>
<defs>
<clipPath id="clip0_108_244">
<rect width="48" height="48" fill="white" transform="translate(0 0.235229)"/>
</clipPath>
</defs>
</svg>
