<svg width="48" height="48" viewBox="0 0 48 48" fill="none" xmlns="http://www.w3.org/2000/svg">
<mask id="mask0_102_2941" style="mask-type:alpha" maskUnits="userSpaceOnUse" x="0" y="0" width="48" height="48">
<rect width="48" height="48" fill="#C4C4C4"/>
</mask>
<g mask="url(#mask0_102_2941)">
<path d="M15 32.38V29.38" stroke="#031461" stroke-width="2"/>
<path d="M19 32.38V29.38" stroke="#031461" stroke-width="2"/>
<path fill-rule="evenodd" clip-rule="evenodd" d="M36 26H10V36H36V26Z" stroke="#031461" stroke-width="2"/>
<circle cx="31" cy="30.875" r="1" fill="#C4C4C4" stroke="#031461" stroke-width="2"/>
<path d="M18.5 18.875C17.95 18.875 17.4792 18.6792 17.0875 18.2875C16.6958 17.8958 16.5 17.425 16.5 16.875C16.5 16.325 16.6958 15.8542 17.0875 15.4625C17.4792 15.0708 17.95 14.875 18.5 14.875C19.05 14.875 19.5208 15.0708 19.9125 15.4625C20.3042 15.8542 20.5 16.325 20.5 16.875C20.5 17.425 20.3042 17.8958 19.9125 18.2875C19.5208 18.6792 19.05 18.875 18.5 18.875ZM18.5 22.875C16.8333 22.875 15.4167 22.2917 14.25 21.125C13.0833 19.9583 12.5 18.5417 12.5 16.875C12.5 15.2083 13.0833 13.7917 14.25 12.625C15.4167 11.4583 16.8333 10.875 18.5 10.875C19.6167 10.875 20.6292 11.15 21.5375 11.7C22.4458 12.25 23.1667 12.975 23.7 13.875H32.5L35.5 16.875L31 21.375L29 19.875L27 21.375L24.875 19.875H23.7C23.1667 20.775 22.4458 21.5 21.5375 22.05C20.6292 22.6 19.6167 22.875 18.5 22.875ZM18.5 20.875C19.4333 20.875 20.2542 20.5917 20.9625 20.025C21.6708 19.4583 22.1417 18.7417 22.375 17.875H25.5L26.95 18.9L29 17.375L30.775 18.75L32.65 16.875L31.65 15.875H22.375C22.1417 15.0083 21.6708 14.2917 20.9625 13.725C20.2542 13.1583 19.4333 12.875 18.5 12.875C17.4 12.875 16.4583 13.2667 15.675 14.05C14.8917 14.8333 14.5 15.775 14.5 16.875C14.5 17.975 14.8917 18.9167 15.675 19.7C16.4583 20.4833 17.4 20.875 18.5 20.875Z" fill="#031461"/>
</g>
</svg>
