<svg width="49" height="49" viewBox="0 0 49 49" fill="none" xmlns="http://www.w3.org/2000/svg">
<mask id="mask0_263_18568" style="mask-type:alpha" maskUnits="userSpaceOnUse" x="0" y="0" width="49" height="49">
<rect x="0.5" y="0.398926" width="48" height="48" fill="#C4C4C4"/>
</mask>
<g mask="url(#mask0_263_18568)">
<path d="M11.5 30.6802V17.6802H15.9687C15.9687 17.6802 15.9687 20.5239 18 20.5239C20.0312 20.5239 20.0312 17.6802 20.0312 17.6802H24.5V22.1489C24.5 22.1489 21.6562 22.1489 21.6562 24.1802C21.6562 26.2114 24.5 26.2114 24.5 26.2114V30.6802H20.0312C20.0312 30.6802 19.7738 33.5239 18 33.5239C16.2262 33.5239 15.9687 30.6802 15.9687 30.6802H11.5Z" stroke="#031461" stroke-width="2"/>
<path d="M24.5 22.1489L24.5 17.6802L28.9688 17.6802C28.9688 17.6802 29.2262 14.8364 31 14.8364C32.7738 14.8364 33.0313 17.6802 33.0313 17.6802L37.5 17.6802L37.5 30.6802L33.0313 30.6802C33.0313 30.6802 33.0313 27.8364 31 27.8364C28.9688 27.8364 28.9688 30.6802 28.9688 30.6802L24.5 30.6802L24.5 26.2114" stroke="#031461" stroke-width="2"/>
</g>
</svg>
