<svg width="48" height="49" viewBox="0 0 48 49" fill="none" xmlns="http://www.w3.org/2000/svg">
<mask id="mask0_7_13124" style="mask-type:alpha" maskUnits="userSpaceOnUse" x="10" y="10" width="28" height="29">
<ellipse cx="24" cy="24.1182" rx="13.9997" ry="13.9998" transform="rotate(90 24 24.1182)" fill="#031461"/>
</mask>
<g mask="url(#mask0_7_13124)">
<path d="M23.9989 17.9036C20.0983 17.9036 16.6135 16.8848 14.1348 15.2904C11.6453 13.6893 10.2839 11.5972 10.2839 9.43899C10.2839 7.28077 11.6453 5.18872 14.1348 3.58754C16.6135 1.99319 20.0983 0.974364 23.9989 0.974365C27.8994 0.974365 31.3842 1.99319 33.863 3.58754C36.3524 5.18872 37.7138 7.28077 37.7138 9.439C37.7138 11.5972 36.3524 13.6893 33.863 15.2905C31.3842 16.8848 27.8994 17.9036 23.9989 17.9036Z" stroke="#031461" stroke-width="2"/>
</g>
<mask id="mask1_7_13124" style="mask-type:alpha" maskUnits="userSpaceOnUse" x="10" y="10" width="28" height="29">
<ellipse cx="23.9999" cy="24.1182" rx="13.9997" ry="13.9998" transform="rotate(-90 23.9999 24.1182)" fill="#031461"/>
</mask>
<g mask="url(#mask1_7_13124)">
<path d="M24.001 30.3328C27.9016 30.3328 31.3863 31.3517 33.8651 32.946C36.3545 34.5472 37.716 36.6392 37.716 38.7975C37.716 40.9557 36.3545 43.0477 33.8651 44.6489C31.3863 46.2433 27.9016 47.2621 24.001 47.2621C20.1004 47.2621 16.6157 46.2433 14.1369 44.6489C11.6475 43.0477 10.286 40.9557 10.286 38.7975C10.286 36.6392 11.6475 34.5472 14.1369 32.946C16.6157 31.3517 20.1004 30.3328 24.001 30.3328Z" stroke="#031461" stroke-width="2"/>
</g>
<circle cx="24.0002" cy="24.118" r="12.9998" stroke="#031461" stroke-width="2"/>
<path d="M24.0001 38.1178V11.5477" stroke="#031461" stroke-width="2"/>
<path d="M10.715 24.8326L37.2851 24.8326" stroke="#031461" stroke-width="2"/>
<mask id="mask2_7_13124" style="mask-type:alpha" maskUnits="userSpaceOnUse" x="10" y="10" width="25" height="29">
<ellipse cx="22.5894" cy="24.1184" rx="11.8744" ry="13.9998" transform="rotate(-180 22.5894 24.1184)" fill="#031461"/>
</mask>
<g mask="url(#mask2_7_13124)">
<path d="M16.5669 24.1184C16.5669 20.2516 17.7497 16.789 19.6146 14.3153C21.4791 11.8421 23.9801 10.4034 26.6603 10.4034C29.3405 10.4034 31.8415 11.8421 33.706 14.3153C35.5709 16.789 36.7537 20.2516 36.7537 24.1184C36.7537 27.9851 35.5709 31.4477 33.706 33.9214C31.8415 36.3947 29.3405 37.8333 26.6603 37.8333C23.9801 37.8333 21.4791 36.3947 19.6146 33.9214C17.7497 31.4477 16.5669 27.9851 16.5669 24.1184Z" stroke="#031461" stroke-width="2"/>
</g>
<mask id="mask3_7_13124" style="mask-type:alpha" maskUnits="userSpaceOnUse" x="13" y="10" width="25" height="29">
<ellipse cx="11.8744" cy="13.9998" rx="11.8744" ry="13.9998" transform="matrix(1 8.74228e-08 8.74228e-08 -1 13.5361 38.1182)" fill="#031461"/>
</mask>
<g mask="url(#mask3_7_13124)">
<path d="M31.433 24.1184C31.433 20.2516 30.2502 16.789 28.3854 14.3153C26.5208 11.8421 24.0199 10.4034 21.3397 10.4034C18.6594 10.4034 16.1585 11.8421 14.294 14.3153C12.4291 16.789 11.2463 20.2516 11.2463 24.1184C11.2463 27.9851 12.4291 31.4477 14.294 33.9214C16.1585 36.3947 18.6594 37.8333 21.3397 37.8333C24.0199 37.8333 26.5208 36.3947 28.3854 33.9214C30.2502 31.4477 31.433 27.9851 31.433 24.1184Z" stroke="#031461" stroke-width="2"/>
</g>
</svg>
