<svg width="49" height="49" viewBox="0 0 49 49" fill="none" xmlns="http://www.w3.org/2000/svg">
<mask id="mask0_263_18572" style="mask-type:alpha" maskUnits="userSpaceOnUse" x="8" y="8" width="33" height="33">
<rect x="8.5" y="8.39893" width="32" height="32" fill="#C4C4C4"/>
</mask>
<g mask="url(#mask0_263_18572)">
<path d="M32.5302 33.329V27.329H34.4702V28.249C34.4702 30.039 34.4702 31.889 34.4702 33.699V36.019H10.4702V16.459H13.0302C17.0302 16.459 21.0302 16.459 25.0302 16.459V18.459H12.5902V33.999H32.5302V33.329Z" fill="#031461"/>
<path d="M18.8701 31.4992L27.6801 26.2392L18.8701 20.9492V31.4992ZM20.9201 28.1492V24.3092L24.1301 26.1892L20.9201 28.1492Z" fill="#031461"/>
<path d="M39.2498 24.309C39.2498 24.169 39.2498 23.799 39.2498 23.639C39.2448 23.5657 39.2448 23.4922 39.2498 23.419V23.059C39.2498 22.799 39.1998 22.519 39.1598 22.249C38.7492 19.4611 37.3251 16.9224 35.1598 15.119C33.0983 13.3557 30.4725 12.3905 27.7598 12.399V12.399V14.399C28.0598 14.399 28.3598 14.399 28.6498 14.449C30.6304 14.6455 32.5006 15.4541 34.0005 16.7623C35.5005 18.0706 36.5558 19.8135 37.0198 21.749C37.1363 22.323 37.2132 22.9044 37.2498 23.489C37.2498 23.649 37.2498 24.139 37.2498 24.299L39.2498 24.309Z" fill="#031461"/>
<path d="M27.77 17.9288C28.9838 17.9375 30.1672 18.3099 31.1672 18.998C32.1673 19.6861 32.938 20.6582 33.38 21.7888C33.652 22.6011 33.7905 23.4521 33.79 24.3088H35.79V23.6188C35.735 22.5445 35.4672 21.4918 35.0019 20.5218C34.5367 19.5519 33.8834 18.6841 33.08 17.9688C31.6049 16.651 29.6877 15.9369 27.71 15.9688L27.77 17.9288Z" fill="#031461"/>
<path d="M32.2102 24.039C32.2267 23.4391 32.1208 22.8422 31.8991 22.2846C31.6775 21.727 31.3445 21.2204 30.9207 20.7956C30.4969 20.3708 29.991 20.0368 29.4338 19.8139C28.8767 19.591 28.28 19.4838 27.6802 19.499V21.499C28.0132 21.4976 28.3431 21.5625 28.6508 21.69C28.9584 21.8174 29.2377 22.0047 29.4722 22.2411C29.7067 22.4775 29.8919 22.7582 30.0169 23.0669C30.1418 23.3756 30.2042 23.706 30.2002 24.039H32.2102Z" fill="#031461"/>
</g>
</svg>
