<svg width="48" height="49" viewBox="0 0 48 49" fill="none" xmlns="http://www.w3.org/2000/svg">
<path d="M15.5147 16.3485L14.8076 15.6414L14.8076 15.6414L15.5147 16.3485ZM15.5147 33.319L16.2218 32.6119L16.2218 32.6119L15.5147 33.319ZM32.4853 16.3485L33.1924 15.6414L33.1924 15.6414L32.4853 16.3485ZM32.4853 33.319L31.7782 32.6119L31.7782 32.6119L32.4853 33.319ZM28.0974 36.1156L27.1348 36.3866L27.4265 37.4224L28.4382 37.0557L28.0974 36.1156ZM26.0118 28.7073L25.5507 27.82L24.8288 28.1951L25.0492 28.9783L26.0118 28.7073ZM27.0856 27.9193L26.3785 27.2122L26.3785 27.2122L27.0856 27.9193ZM27.0856 21.7482L26.3785 22.4553L26.3785 22.4553L27.0856 21.7482ZM20.9145 21.7482L21.6216 22.4553L21.6216 22.4553L20.9145 21.7482ZM21.9881 28.7072L22.9507 28.9782L23.1712 28.1951L22.4493 27.8199L21.9881 28.7072ZM19.9025 36.1156L19.5618 37.0557L20.5735 37.4224L20.8651 36.3865L19.9025 36.1156ZM14.8076 15.6414C9.7308 20.7182 9.7308 28.9493 14.8076 34.0261L16.2218 32.6119C11.9261 28.3161 11.9261 21.3513 16.2218 17.0556L14.8076 15.6414ZM33.1924 15.6414C28.1156 10.5645 19.8844 10.5645 14.8076 15.6414L16.2218 17.0556C20.5176 12.7598 27.4824 12.7598 31.7782 17.0556L33.1924 15.6414ZM33.1924 34.0261C38.2692 28.9493 38.2692 20.7182 33.1924 15.6414L31.7782 17.0556C36.0739 21.3513 36.0739 28.3161 31.7782 32.6119L33.1924 34.0261ZM28.4382 37.0557C30.1744 36.4264 31.8027 35.4158 33.1924 34.0261L31.7782 32.6119C30.5999 33.7902 29.2232 34.6439 27.7567 35.1754L28.4382 37.0557ZM25.0492 28.9783L27.1348 36.3866L29.06 35.8446L26.9744 28.4363L25.0492 28.9783ZM26.473 29.5946C26.9492 29.3471 27.3951 29.024 27.7927 28.6264L26.3785 27.2122C26.1272 27.4635 25.8476 27.6657 25.5507 27.82L26.473 29.5946ZM27.7927 28.6264C29.8873 26.5318 29.8873 23.1357 27.7927 21.0411L26.3785 22.4553C27.692 23.7689 27.692 25.8986 26.3785 27.2122L27.7927 28.6264ZM27.7927 21.0411C25.698 18.9465 22.302 18.9465 20.2073 21.0411L21.6216 22.4553C22.9351 21.1417 25.0649 21.1417 26.3785 22.4553L27.7927 21.0411ZM20.2073 21.0411C18.1127 23.1357 18.1127 26.5318 20.2073 28.6264L21.6216 27.2122C20.308 25.8986 20.308 23.7689 21.6216 22.4553L20.2073 21.0411ZM20.2073 28.6264C20.6049 29.0239 21.0508 29.3471 21.527 29.5946L22.4493 27.8199C22.1524 27.6656 21.8728 27.4635 21.6216 27.2122L20.2073 28.6264ZM20.8651 36.3865L22.9507 28.9782L21.0256 28.4363L18.94 35.8446L20.8651 36.3865ZM14.8076 34.0261C16.1973 35.4158 17.8256 36.4264 19.5618 37.0557L20.2433 35.1754C18.7768 34.6439 17.4001 33.7902 16.2218 32.6119L14.8076 34.0261Z" fill="#031461"/>
</svg>
