<svg width="49" height="49" viewBox="0 0 49 49" fill="none" xmlns="http://www.w3.org/2000/svg">
<mask id="mask0_263_18591" style="mask-type:alpha" maskUnits="userSpaceOnUse" x="0" y="0" width="49" height="49">
<rect x="0.5" y="0.398926" width="48" height="48" fill="#C4C4C4"/>
</mask>
<g mask="url(#mask0_263_18591)">
<path d="M14.035 25.5596L14.0241 25.4467V23.3514H11.8762V24.399L11.8801 24.7185C12.0497 31.5141 17.6116 36.9709 24.448 36.9709C27.8998 36.9709 31.1315 35.5715 33.4843 33.1396L33.7992 32.8044C34.3115 32.2426 34.7605 31.6645 35.148 31.0608L35.2171 30.9469L36.6932 33.4603L38.5 32.3992L34.9783 26.4023L34.1835 28.3833L34.0323 28.7381C33.5566 29.7917 32.8809 30.7498 31.9784 31.6827C30.0164 33.7107 27.3262 34.8756 24.448 34.8756L24.1548 34.8715C18.894 34.727 14.602 30.7042 14.035 25.5596Z" fill="#031461"/>
<path d="M34.861 23.2384L34.8714 23.3514L34.861 25.4467H37.0199V24.399L37.0159 24.0795C36.8464 17.2839 31.2845 11.8271 24.448 11.8271C21.0693 11.8271 17.9002 13.1676 15.5584 15.5094L15.2462 15.8329C14.7358 16.3809 14.2757 16.9726 13.8712 17.6007L13.7486 17.7967L12.3178 15.2987L10.5 16.3407L13.9494 22.3583L14.766 20.3892L14.9314 20.0115C15.4497 18.8894 16.1644 17.8665 17.04 16.991C18.9927 15.0382 21.6307 13.9225 24.448 13.9225L24.7413 13.9265C30.002 14.0711 34.294 18.0938 34.861 23.2384Z" fill="#031461"/>
<path fill-rule="evenodd" clip-rule="evenodd" d="M22.2761 27.9841C21.6985 27.6336 21.2123 27.1475 20.8618 26.5699L18.1843 29.2474L19.5985 30.6616L22.2761 27.9841ZM23.447 28.4695V32.2563H25.447V28.4695C25.1266 28.5479 24.7916 28.5895 24.447 28.5895C24.1024 28.5895 23.7675 28.5479 23.447 28.4695ZM26.618 27.9841L29.2955 30.6616L30.7097 29.2474L28.0322 26.5699C27.6817 27.1475 27.1955 27.6336 26.618 27.9841ZM28.5176 25.3989H32.3044V23.3989H28.5176C28.596 23.7194 28.6376 24.0543 28.6376 24.3989C28.6376 24.7436 28.596 25.0785 28.5176 25.3989ZM28.0322 22.228L30.7106 19.5496L29.2964 18.1354L26.618 20.8138C27.1955 21.1642 27.6817 21.6504 28.0322 22.228ZM25.447 20.3284V16.5415H23.447V20.3284C23.7675 20.2499 24.1024 20.2083 24.447 20.2083C24.7916 20.2083 25.1266 20.2499 25.447 20.3284ZM22.2761 20.8138L19.5977 18.1354L18.1834 19.5496L20.8618 22.228C21.2123 21.6504 21.6985 21.1642 22.2761 20.8138ZM20.3765 23.3989H16.5896V25.3989H20.3765C20.298 25.0785 20.2564 24.7436 20.2564 24.3989C20.2564 24.0543 20.298 23.7194 20.3765 23.3989Z" fill="#031461"/>
<path fill-rule="evenodd" clip-rule="evenodd" d="M24.447 20.2085C26.7614 20.2085 28.6376 22.0847 28.6376 24.3991C28.6376 26.7135 26.7614 28.5897 24.447 28.5897C22.1326 28.5897 20.2563 26.7135 20.2563 24.3991C20.2563 22.0847 22.1326 20.2085 24.447 20.2085Z" stroke="#031461" stroke-width="2"/>
</g>
</svg>
