<svg width="49" height="49" viewBox="0 0 49 49" fill="none" xmlns="http://www.w3.org/2000/svg">
<mask id="mask0_263_18595" style="mask-type:alpha" maskUnits="userSpaceOnUse" x="0" y="0" width="49" height="49">
<rect x="0.5" y="0.398926" width="48" height="48" fill="#C4C4C4"/>
</mask>
<g mask="url(#mask0_263_18595)">
<path d="M19.6402 22.5395C19.613 21.804 19.329 21.1012 18.8376 20.5532C18.3462 20.0051 17.6785 19.6465 16.9502 19.5395C16.1975 19.4295 15.4329 19.4295 14.6802 19.5395C13.9278 19.6551 13.2424 20.0384 12.75 20.619C12.2576 21.1995 11.9914 21.9383 12.0002 22.6995C12.0002 23.6995 12.0002 23.9895 12.0002 24.8595V27.0395H19.6602V22.8595C19.6502 22.7595 19.6502 22.6495 19.6402 22.5395ZM17.7802 23.3795V25.1395H13.8802V22.7595C13.8802 22.5678 13.918 22.3779 13.9913 22.2008C14.0647 22.0237 14.1723 21.8627 14.3078 21.7271C14.4434 21.5916 14.6044 21.484 14.7815 21.4107C14.9586 21.3373 15.1485 21.2995 15.3402 21.2995H15.6802C16.0142 21.2972 16.3481 21.3139 16.6802 21.3495C16.984 21.3933 17.2614 21.5465 17.4603 21.7804C17.6591 22.0142 17.7658 22.3126 17.7602 22.6195C17.7602 22.8995 17.7602 23.0995 17.7602 23.2295V23.3995L17.7802 23.3795Z" fill="#031461"/>
<path d="M15.8201 12.3994C14.9659 12.3994 14.1464 12.7366 13.5396 13.3378C12.9328 13.9389 12.588 14.7553 12.5801 15.6094C12.5814 16.0357 12.6668 16.4576 12.8315 16.8509C12.9961 17.2441 13.2368 17.601 13.5397 17.9011C13.8425 18.2011 14.2016 18.4385 14.5964 18.5995C14.9911 18.7605 15.4138 18.842 15.8401 18.8394C16.6941 18.8394 17.5131 18.5002 18.117 17.8963C18.7208 17.2924 19.0601 16.4734 19.0601 15.6194C19.0601 14.7654 18.7208 13.9464 18.117 13.3425C17.5131 12.7387 16.6941 12.3994 15.8401 12.3994H15.8201ZM17.2001 15.6194C17.1988 15.8002 17.1617 15.9789 17.091 16.1453C17.0203 16.3116 16.9174 16.4624 16.7882 16.5888C16.659 16.7152 16.5061 16.8148 16.3382 16.8819C16.1703 16.9489 15.9908 16.9821 15.8101 16.9794C15.5425 16.9735 15.2825 16.8888 15.0629 16.7358C14.8432 16.5828 14.6735 16.3684 14.5752 16.1194C14.4768 15.8704 14.4542 15.598 14.51 15.3362C14.5658 15.0744 14.6976 14.8349 14.889 14.6476C15.0803 14.4604 15.3226 14.3339 15.5856 14.2838C15.8486 14.2337 16.1205 14.2623 16.3672 14.3661C16.614 14.4698 16.8246 14.6441 16.9728 14.8671C17.1209 15.09 17.2 15.3517 17.2001 15.6194V15.6194Z" fill="#031461"/>
<path d="M33.1702 12.3992C32.5342 12.4071 31.9149 12.6031 31.3902 12.9626C30.8656 13.3221 30.4591 13.8289 30.2221 14.4191C29.9851 15.0093 29.9282 15.6564 30.0586 16.2789C30.189 16.9014 30.5007 17.4713 30.9546 17.9169C31.4085 18.3624 31.9841 18.6635 32.6089 18.7823C33.2337 18.9011 33.8797 18.8321 34.4654 18.5842C35.0511 18.3363 35.5502 17.9205 35.8999 17.3893C36.2496 16.858 36.4341 16.2352 36.4302 15.5992C36.4263 15.1742 36.3385 14.7541 36.1719 14.363C36.0053 13.972 35.7632 13.6177 35.4594 13.3204C35.1556 13.0231 34.7962 12.7887 34.4016 12.6306C34.0071 12.4725 33.5852 12.3939 33.1602 12.3992H33.1702ZM34.5802 15.6192C34.5775 15.9808 34.432 16.3267 34.1754 16.5815C33.9188 16.8362 33.5718 16.9792 33.2102 16.9792C32.8385 16.9861 32.4791 16.8459 32.2102 16.5892C32.0799 16.4578 31.9773 16.3016 31.9086 16.1298C31.8399 15.958 31.8064 15.7742 31.8102 15.5892C31.8053 15.4032 31.8393 15.2182 31.9099 15.046C31.9805 14.8738 32.0861 14.7183 32.2202 14.5892C32.3527 14.4611 32.5093 14.3607 32.681 14.2938C32.8527 14.2268 33.036 14.1947 33.2202 14.1992C33.4039 14.199 33.5858 14.2361 33.7549 14.3081C33.9239 14.3802 34.0766 14.4858 34.2037 14.6185C34.3308 14.7512 34.4297 14.9083 34.4944 15.0803C34.5591 15.2523 34.5883 15.4356 34.5802 15.6192V15.6192Z" fill="#031461"/>
<path d="M26.8298 13.3791C26.5363 13.0706 26.1846 12.8233 25.795 12.6517C25.4053 12.48 24.9855 12.3874 24.5598 12.3791H24.4998C23.6509 12.371 22.8332 12.6985 22.2246 13.2903C21.6159 13.8821 21.2656 14.6903 21.2498 15.5391C21.2404 15.9622 21.3161 16.383 21.4724 16.7764C21.6287 17.1698 21.8625 17.5278 22.1598 17.8291C22.4587 18.1414 22.817 18.3908 23.2137 18.5625C23.6104 18.7343 24.0375 18.8249 24.4698 18.8291V18.8291C25.318 18.824 26.1306 18.4875 26.7341 17.8915C27.3376 17.2955 27.6842 16.4871 27.6998 15.6391C27.7139 15.2232 27.6441 14.8089 27.4946 14.4206C27.3452 14.0323 27.1191 13.6781 26.8298 13.3791V13.3791ZM25.8798 15.6091C25.8842 15.7941 25.8509 15.9781 25.7822 16.15C25.7134 16.3219 25.6106 16.478 25.4798 16.6091C25.2125 16.8695 24.8529 17.0133 24.4798 17.0091C24.2941 17.0115 24.1098 16.9765 23.938 16.906C23.7662 16.8356 23.6103 16.7312 23.4798 16.5991C23.3486 16.4684 23.2454 16.3123 23.1766 16.1403C23.1078 15.9684 23.0749 15.7842 23.0798 15.5991C23.0877 15.2356 23.2376 14.8897 23.4974 14.6355C23.7572 14.3813 24.1063 14.239 24.4698 14.2391C24.6531 14.2337 24.8355 14.2652 25.0064 14.3316C25.1772 14.3981 25.333 14.4981 25.4645 14.6259C25.596 14.7536 25.7005 14.9065 25.7718 15.0754C25.8432 15.2442 25.8799 15.4257 25.8798 15.6091V15.6091Z" fill="#031461"/>
<path d="M18.9002 35.9589H12.7402V25.8789H18.9002V35.9589ZM14.7402 33.9589H16.9002V27.8789H14.7402V33.9589Z" fill="#031461"/>
<path d="M28.32 22.5395C28.2928 21.804 28.0089 21.1012 27.5175 20.5531C27.0261 20.0051 26.3583 19.6465 25.63 19.5395C24.874 19.4295 24.1061 19.4295 23.35 19.5395C22.5985 19.6571 21.9143 20.0409 21.4223 20.621C20.9303 21.2012 20.6633 21.9389 20.67 22.6995V27.0395H28.33V22.8595C28.33 22.7595 28.33 22.6495 28.32 22.5395ZM26.45 23.3795V25.1395H22.58V22.7595C22.5827 22.3714 22.7387 22 23.0141 21.7265C23.2895 21.453 23.6619 21.2995 24.05 21.2995H24.39C24.7241 21.2927 25.0583 21.3094 25.39 21.3495C25.693 21.3953 25.9691 21.5491 26.1676 21.7825C26.3661 22.0159 26.4735 22.3132 26.47 22.6195V23.3995L26.45 23.3795Z" fill="#031461"/>
<path d="M27.5799 35.9589H21.4199V25.8789H27.5799V35.9589ZM23.4199 33.9589H25.5799V27.8789H23.4199V33.9589Z" fill="#031461"/>
<path d="M37.0002 22.5395C36.9711 21.8045 36.6865 21.1028 36.1954 20.5551C35.7044 20.0075 35.0377 19.6483 34.3102 19.5395C33.5542 19.4295 32.7862 19.4295 32.0302 19.5395C31.2787 19.6571 30.5945 20.0409 30.1025 20.621C29.6105 21.2012 29.3435 21.9389 29.3502 22.6995C29.3502 23.6995 29.3502 23.9895 29.3502 24.8595V27.0395H37.0002V22.5395ZM35.1302 23.3795V25.1395H31.2202V22.7595C31.2229 22.3714 31.3789 22 31.6543 21.7265C31.9297 21.453 32.3021 21.2995 32.6902 21.2995H33.0202C33.3542 21.2978 33.6881 21.3145 34.0202 21.3495C34.3223 21.3973 34.5972 21.5516 34.7953 21.7846C34.9934 22.0175 35.1016 22.3137 35.1002 22.6195V23.3995L35.1302 23.3795Z" fill="#031461"/>
<path d="M36.2498 35.9589H30.0898V25.8789H36.2498V35.9589ZM32.0898 33.9589H34.2498V27.8789H32.0898V33.9589Z" fill="#031461"/>
<path d="M39.7602 25.5293H9.24023V28.5393H39.7602V25.5293Z" fill="#031461" stroke="#031461" stroke-width="2" stroke-miterlimit="10"/>
<path d="M40.0898 27.7695H38.0898V35.9695H40.0898V27.7695Z" fill="#031461"/>
<path d="M10.98 27.7695H8.97998V35.9695H10.98V27.7695Z" fill="#031461"/>
</g>
</svg>
