<svg width="49" height="49" viewBox="0 0 49 49" fill="none" xmlns="http://www.w3.org/2000/svg">
<mask id="mask0_263_18629" style="mask-type:alpha" maskUnits="userSpaceOnUse" x="0" y="0" width="49" height="49">
<rect x="0.5" y="0.398926" width="48" height="48" fill="#C4C4C4"/>
</mask>
<g mask="url(#mask0_263_18629)">
<path d="M32.9899 26.679C32.9899 26.679 35.2399 26.729 36.3499 26.629C37.8405 26.4544 39.2075 25.7154 40.1702 24.5641C41.1328 23.4127 41.6179 21.9363 41.5257 20.4384C41.4335 18.9404 40.7711 17.5347 39.6745 16.51C38.578 15.4853 37.1306 14.9196 35.6299 14.929H13.4999C13.1389 14.9238 12.778 14.9439 12.4199 14.989C11.1973 15.1745 10.0644 15.7413 9.18299 16.6087C8.30156 17.476 7.71657 18.5996 7.51148 19.8191C7.30638 21.0386 7.49166 22.2917 8.04087 23.3997C8.59008 24.5076 9.47518 25.4138 10.5699 25.989C11.3615 26.4114 12.2428 26.6377 13.1399 26.649C14.8799 26.649 16.8499 26.649 18.5799 26.649V24.539C16.8199 24.539 14.7699 24.539 13.0099 24.539C12.0206 24.4939 11.0898 24.0577 10.4222 23.3263C9.75454 22.5949 9.4048 21.6283 9.44989 20.639C9.49497 19.6498 9.93119 18.7189 10.6626 18.0513C11.394 17.3837 12.3606 17.0339 13.3499 17.079H35.6399C35.8508 17.0808 36.0613 17.0975 36.2699 17.129C37.1304 17.2617 37.9173 17.6912 38.4944 18.3431C39.0715 18.995 39.4024 19.8283 39.4297 20.6985C39.457 21.5687 39.179 22.4211 38.6439 23.1079C38.1088 23.7947 37.3504 24.2727 36.4999 24.459C36.2027 24.5109 35.9016 24.5376 35.5999 24.539H32.9599L32.9899 26.679Z" fill="#031461"/>
<path d="M32.3202 33.8689C31.2702 32.8689 30.1402 31.6889 29.1102 30.6289C28.9502 30.4689 28.8502 30.4489 28.6602 30.5689C27.4906 31.2614 26.1078 31.5015 24.7732 31.2437C23.4386 30.9859 22.2446 30.2482 21.417 29.1699C20.5894 28.0917 20.1854 26.7476 20.2815 25.3917C20.3775 24.0358 20.967 22.7621 21.9383 21.8113C22.9097 20.8605 24.1958 20.2984 25.5534 20.2314C26.911 20.1643 28.2461 20.597 29.3065 21.4474C30.3668 22.2979 31.0788 23.5074 31.308 24.8472C31.5372 26.187 31.2676 27.5644 30.5502 28.7189L30.4302 28.9189L31.5502 30.0689L33.8002 32.2989L32.3202 33.8689ZM25.7802 22.3989C25.1019 22.4029 24.4399 22.6079 23.878 22.9881C23.3162 23.3683 22.8797 23.9065 22.6238 24.5348C22.3678 25.1631 22.3039 25.8531 22.4402 26.5177C22.5764 27.1822 22.9066 27.7915 23.3891 28.2684C23.8716 28.7452 24.4846 29.0683 25.1507 29.1968C25.8169 29.3253 26.5061 29.2533 27.1313 28.9901C27.7565 28.7268 28.2897 28.2841 28.6633 27.7179C29.0369 27.1516 29.2342 26.4873 29.2302 25.8089C29.2289 25.3581 29.1385 24.912 28.9642 24.4963C28.7898 24.0805 28.535 23.7034 28.2144 23.3864C27.8938 23.0695 27.5137 22.8191 27.0959 22.6497C26.6782 22.4802 26.231 22.395 25.7802 22.3989V22.3989Z" fill="#031461"/>
</g>
</svg>
