<svg width="48" height="49" viewBox="0 0 48 49" fill="none" xmlns="http://www.w3.org/2000/svg">
<mask id="mask0_480_2133" style="mask-type:alpha" maskUnits="userSpaceOnUse" x="0" y="0" width="48" height="49">
<rect y="0.83374" width="48" height="48" fill="#C4C4C4"/>
</mask>
<g mask="url(#mask0_480_2133)">
<path fill-rule="evenodd" clip-rule="evenodd" d="M11 11.8337H35V19.8337V21.8337V22.8887C34.6717 22.8524 34.338 22.8337 34 22.8337C33.662 22.8337 33.3283 22.8524 33 22.8887V21.8337H13V27.8337H25.9355C25.6232 28.4622 25.3822 29.1324 25.223 29.8337H13V35.8337H25.9355C26.2974 36.5618 26.7549 37.234 27.2917 37.8337H11V11.8337ZM25 31.8337H15V33.8337H25V31.8337ZM30.5184 23.5319C29.2698 24.0562 28.1644 24.8539 27.2771 25.8501C27.101 25.5522 27 25.2048 27 24.8337C27 23.7292 27.8954 22.8337 29 22.8337C29.6074 22.8337 30.1516 23.1045 30.5184 23.5319ZM13 13.8337H33V19.8337H13V13.8337ZM25 17.8337H15V15.8337H25V17.8337ZM25 25.8337H15V23.8337H25V25.8337ZM27 16.8337C27 15.7292 27.8954 14.8337 29 14.8337C30.1046 14.8337 31 15.7292 31 16.8337C31 17.9383 30.1046 18.8337 29 18.8337C27.8954 18.8337 27 17.9383 27 16.8337Z" fill="#031461"/>
<path d="M41 31.8337C41 35.6997 37.866 38.8337 34 38.8337C30.134 38.8337 27 35.6997 27 31.8337C27 27.9677 30.134 24.8337 34 24.8337C36.2901 24.8337 38.3234 25.9335 39.6005 27.6337L40.5 28.8337M34 27.8337V31.8337L31.5 34.3337" stroke="#031461" stroke-width="2"/>
<path d="M40.75 24.8337L40.75 28.8337L36.75 28.8337" stroke="#031461" stroke-width="2"/>
</g>
</svg>
