<svg width="49" height="49" viewBox="0 0 49 49" fill="none" xmlns="http://www.w3.org/2000/svg">
<mask id="mask0_263_18639" style="mask-type:alpha" maskUnits="userSpaceOnUse" x="0" y="0" width="49" height="49">
<rect x="0.5" y="0.398926" width="48" height="48" fill="#C4C4C4"/>
</mask>
<g mask="url(#mask0_263_18639)">
<path fill-rule="evenodd" clip-rule="evenodd" d="M19.1195 31.1936C18.5956 30.7781 18.1208 30.3034 17.7053 29.7794L14.6011 32.8836L16.0153 34.2978L19.1195 31.1936ZM23.5 33.0085V37.3989H25.5V33.0085C25.1719 33.0462 24.8382 33.0656 24.5 33.0656C24.1618 33.0656 23.8281 33.0462 23.5 33.0085ZM29.8805 31.1936L32.9847 34.2978L34.3989 32.8836L31.2947 29.7794C30.8792 30.3034 30.4044 30.7781 29.8805 31.1936ZM33.1096 25.3989H37.5V23.3989H33.1096C33.1473 23.727 33.1667 24.0607 33.1667 24.3989C33.1667 24.7371 33.1473 25.0708 33.1096 25.3989ZM31.2947 19.0185L34.4001 15.913L32.9859 14.4988L29.8805 17.6042C30.4044 18.0197 30.8792 18.4945 31.2947 19.0185ZM25.5 15.7893V11.3989H23.5V15.7893C23.8281 15.7516 24.1618 15.7323 24.5 15.7323C24.8382 15.7323 25.1719 15.7516 25.5 15.7893ZM19.1195 17.6042L16.0141 14.4988L14.5999 15.913L17.7053 19.0185C18.1208 18.4945 18.5956 18.0197 19.1195 17.6042ZM15.8904 23.3989H11.5V25.3989H15.8904C15.8527 25.0708 15.8333 24.7371 15.8333 24.3989C15.8333 24.0607 15.8527 23.727 15.8904 23.3989Z" fill="#031461"/>
<path fill-rule="evenodd" clip-rule="evenodd" d="M24.5 14.6489C29.8848 14.6489 34.25 19.0141 34.25 24.3989C34.25 29.7837 29.8848 34.1489 24.5 34.1489C19.1152 34.1489 14.75 29.7837 14.75 24.3989C14.75 19.0141 19.1152 14.6489 24.5 14.6489Z" stroke="#031461" stroke-width="2"/>
<path fill-rule="evenodd" clip-rule="evenodd" d="M24.5 21.1489C26.2949 21.1489 27.75 22.604 27.75 24.3989C27.75 26.1939 26.2949 27.6489 24.5 27.6489C22.7051 27.6489 21.25 26.1939 21.25 24.3989C21.25 22.604 22.7051 21.1489 24.5 21.1489Z" stroke="#031461" stroke-width="2"/>
</g>
</svg>
