<svg width="48" height="49" viewBox="0 0 48 49" fill="none" xmlns="http://www.w3.org/2000/svg">
<path fill-rule="evenodd" clip-rule="evenodd" d="M9 14.9257L24 9.47119L39 14.9257V18.0557C39 27.638 33.0054 36.1965 24 39.4712C14.9946 36.1965 9 27.638 9 18.0557V14.9257Z" stroke="#031461" stroke-width="2"/>
<path d="M19.2344 24.5815C19.2344 24.4709 19.2181 24.3716 19.1855 24.2837C19.153 24.1925 19.0928 24.1079 19.0049 24.0298C18.917 23.9517 18.79 23.8735 18.624 23.7954C18.4613 23.714 18.2464 23.6294 17.9795 23.5415C17.667 23.4373 17.3659 23.3201 17.0762 23.1899C16.7865 23.0565 16.5277 22.9019 16.2998 22.7261C16.0719 22.547 15.8913 22.3387 15.7578 22.1011C15.6243 21.8602 15.5576 21.5802 15.5576 21.2612C15.5576 20.9552 15.626 20.6802 15.7627 20.436C15.8994 20.1886 16.0898 19.9787 16.334 19.8062C16.5814 19.6304 16.8711 19.4969 17.2031 19.4058C17.5352 19.3114 17.8981 19.2642 18.292 19.2642C18.8128 19.2642 19.2718 19.3553 19.6689 19.5376C20.0693 19.7166 20.3818 19.9722 20.6064 20.3042C20.8343 20.633 20.9482 21.022 20.9482 21.4712H19.2441C19.2441 21.2922 19.2067 21.1343 19.1318 20.9976C19.0602 20.8608 18.9512 20.7534 18.8047 20.6753C18.6582 20.5972 18.4743 20.5581 18.2529 20.5581C18.0381 20.5581 17.8574 20.5907 17.7109 20.6558C17.5645 20.7209 17.4538 20.8088 17.3789 20.9194C17.304 21.0269 17.2666 21.1457 17.2666 21.2759C17.2666 21.3833 17.2959 21.481 17.3545 21.5688C17.4163 21.6535 17.5026 21.7332 17.6133 21.8081C17.7272 21.883 17.8639 21.9546 18.0234 22.0229C18.1862 22.0913 18.3685 22.158 18.5703 22.2231C18.9479 22.3436 19.2832 22.4787 19.5762 22.6284C19.8724 22.7749 20.1214 22.9425 20.3232 23.1313C20.5283 23.3169 20.6829 23.5285 20.7871 23.7661C20.8945 24.0037 20.9482 24.2723 20.9482 24.5718C20.9482 24.8908 20.8864 25.174 20.7627 25.4214C20.639 25.6688 20.4616 25.8787 20.2305 26.0513C19.9993 26.2205 19.7227 26.3491 19.4004 26.437C19.0781 26.5249 18.7184 26.5688 18.3213 26.5688C17.9567 26.5688 17.597 26.5233 17.2422 26.4321C16.8906 26.3377 16.5716 26.1945 16.2852 26.0024C15.9987 25.8071 15.7692 25.5581 15.5967 25.2554C15.4274 24.9494 15.3428 24.5864 15.3428 24.1665H17.0615C17.0615 24.3748 17.0892 24.5506 17.1445 24.6938C17.1999 24.8371 17.2812 24.9526 17.3887 25.0405C17.4961 25.1252 17.6279 25.187 17.7842 25.2261C17.9404 25.2619 18.1195 25.2798 18.3213 25.2798C18.5394 25.2798 18.7152 25.2489 18.8486 25.187C18.9821 25.1219 19.0798 25.0373 19.1416 24.9331C19.2035 24.8257 19.2344 24.7085 19.2344 24.5815ZM25.4941 24.5815C25.4941 24.4709 25.4779 24.3716 25.4453 24.2837C25.4128 24.1925 25.3525 24.1079 25.2646 24.0298C25.1768 23.9517 25.0498 23.8735 24.8838 23.7954C24.721 23.714 24.5062 23.6294 24.2393 23.5415C23.9268 23.4373 23.6257 23.3201 23.3359 23.1899C23.0462 23.0565 22.7874 22.9019 22.5596 22.7261C22.3317 22.547 22.151 22.3387 22.0176 22.1011C21.8841 21.8602 21.8174 21.5802 21.8174 21.2612C21.8174 20.9552 21.8857 20.6802 22.0225 20.436C22.1592 20.1886 22.3496 19.9787 22.5938 19.8062C22.8411 19.6304 23.1309 19.4969 23.4629 19.4058C23.7949 19.3114 24.1579 19.2642 24.5518 19.2642C25.0726 19.2642 25.5316 19.3553 25.9287 19.5376C26.3291 19.7166 26.6416 19.9722 26.8662 20.3042C27.0941 20.633 27.208 21.022 27.208 21.4712H25.5039C25.5039 21.2922 25.4665 21.1343 25.3916 20.9976C25.32 20.8608 25.2109 20.7534 25.0645 20.6753C24.918 20.5972 24.734 20.5581 24.5127 20.5581C24.2979 20.5581 24.1172 20.5907 23.9707 20.6558C23.8242 20.7209 23.7135 20.8088 23.6387 20.9194C23.5638 21.0269 23.5264 21.1457 23.5264 21.2759C23.5264 21.3833 23.5557 21.481 23.6143 21.5688C23.6761 21.6535 23.7624 21.7332 23.873 21.8081C23.987 21.883 24.1237 21.9546 24.2832 22.0229C24.446 22.0913 24.6283 22.158 24.8301 22.2231C25.2077 22.3436 25.543 22.4787 25.8359 22.6284C26.1322 22.7749 26.3812 22.9425 26.583 23.1313C26.7881 23.3169 26.9427 23.5285 27.0469 23.7661C27.1543 24.0037 27.208 24.2723 27.208 24.5718C27.208 24.8908 27.1462 25.174 27.0225 25.4214C26.8988 25.6688 26.7214 25.8787 26.4902 26.0513C26.2591 26.2205 25.9824 26.3491 25.6602 26.437C25.3379 26.5249 24.9782 26.5688 24.5811 26.5688C24.2165 26.5688 23.8568 26.5233 23.502 26.4321C23.1504 26.3377 22.8314 26.1945 22.5449 26.0024C22.2585 25.8071 22.029 25.5581 21.8564 25.2554C21.6872 24.9494 21.6025 24.5864 21.6025 24.1665H23.3213C23.3213 24.3748 23.349 24.5506 23.4043 24.6938C23.4596 24.8371 23.541 24.9526 23.6484 25.0405C23.7559 25.1252 23.8877 25.187 24.0439 25.2261C24.2002 25.2619 24.3792 25.2798 24.5811 25.2798C24.7992 25.2798 24.9749 25.2489 25.1084 25.187C25.2419 25.1219 25.3395 25.0373 25.4014 24.9331C25.4632 24.8257 25.4941 24.7085 25.4941 24.5815ZM32.7891 25.1528V26.4712H29.1953V25.1528H32.7891ZM29.8057 19.3618V26.4712H28.0918V19.3618H29.8057Z" fill="#031461"/>
</svg>
