<svg width="48" height="49" viewBox="0 0 48 49" fill="none" xmlns="http://www.w3.org/2000/svg">
<mask id="mask0_104_3124" style="mask-type:alpha" maskUnits="userSpaceOnUse" x="0" y="0" width="48" height="49">
<rect y="0.059082" width="48" height="48" fill="#C4C4C4"/>
</mask>
<g mask="url(#mask0_104_3124)">
<path fill-rule="evenodd" clip-rule="evenodd" d="M10 11.0591H34V19.0591V20.998C33.1951 20.8195 32.3586 20.7255 31.5 20.7255C30.5482 20.7255 29.6234 20.8411 28.7389 21.0591H12V27.0591H21.223C20.9031 27.6943 20.6403 28.3632 20.4414 29.0591H12V35.0591H20.3517C20.5276 35.7531 20.7665 36.4219 21.0621 37.0591H10V11.0591ZM20.0584 31.0591C20.0198 31.4426 20 31.8317 20 32.2255C20 32.5058 20.01 32.7838 20.0298 33.0591H14V31.0591H20.0584ZM24 23.5074C23.4549 23.9768 22.9543 24.4964 22.5054 25.0591H14V23.0591H24V23.5074ZM12 13.0591H32V19.0591H12V13.0591ZM24 17.0591H14V15.0591H24V17.0591ZM26 16.0591C26 14.9545 26.8954 14.0591 28 14.0591C29.1046 14.0591 30 14.9545 30 16.0591C30 17.1637 29.1046 18.0591 28 18.0591C26.8954 18.0591 26 17.1637 26 16.0591Z" fill="#031461"/>
<path fill-rule="evenodd" clip-rule="evenodd" d="M28.5235 37.5559C27.9769 37.1667 27.4984 36.6882 27.1093 36.1417L24.9294 38.3216L26.3436 39.7358L28.5235 37.5559ZM31 38.5822V41.6652H33V38.5822C32.6748 38.6368 32.3407 38.6652 32 38.6652C31.6593 38.6652 31.3252 38.6368 31 38.5822ZM35.4765 37.5559L37.6564 39.7358L39.0706 38.3216L36.8907 36.1417C36.5016 36.6882 36.0231 37.1667 35.4765 37.5559ZM37.917 33.6652H41V31.6652H37.917C37.9716 31.9904 38 32.3244 38 32.6652C38 33.0059 37.9716 33.34 37.917 33.6652ZM36.8908 29.1886L39.0715 27.0079L37.6573 25.5937L35.4765 27.7744C36.0231 28.1636 36.5016 28.6421 36.8908 29.1886ZM33 26.7481V23.6652H31V26.7481C31.3252 26.6936 31.6593 26.6652 32 26.6652C32.3407 26.6652 32.6748 26.6936 33 26.7481ZM28.5235 27.7744L26.3427 25.5937L24.9285 27.0079L27.1093 29.1886C27.4984 28.6421 27.9769 28.1636 28.5235 27.7744ZM26.083 31.6652H23V33.6652H26.083C26.0284 33.34 26 33.0059 26 32.6652C26 32.3244 26.0284 31.9904 26.083 31.6652Z" fill="#031461"/>
<path fill-rule="evenodd" clip-rule="evenodd" d="M32 26.0897C35.4794 26.0897 38.3 28.9103 38.3 32.3897C38.3 35.8691 35.4794 38.6897 32 38.6897C28.5206 38.6897 25.7 35.8691 25.7 32.3897C25.7 28.9103 28.5206 26.0897 32 26.0897Z" stroke="#031461" stroke-width="2"/>
<path fill-rule="evenodd" clip-rule="evenodd" d="M32 30.9194C31.2544 30.9194 30.65 31.5238 30.65 32.2694C30.65 33.015 31.2544 33.6194 32 33.6194C32.7456 33.6194 33.35 33.015 33.35 32.2694C33.35 31.5238 32.7456 30.9194 32 30.9194Z" stroke="#031461" stroke-width="2"/>
</g>
</svg>
