<svg width="49" height="49" viewBox="0 0 49 49" fill="none" xmlns="http://www.w3.org/2000/svg">
<mask id="mask0_263_18655" style="mask-type:alpha" maskUnits="userSpaceOnUse" x="0" y="0" width="49" height="49">
<rect x="0.5" y="0.401367" width="48" height="48" fill="#C4C4C4"/>
</mask>
<g mask="url(#mask0_263_18655)">
<path d="M17.8584 17.7832L23.2356 23.1604" stroke="#031461" stroke-width="2"/>
<path d="M19.4715 15.6325L15.7074 19.3965L13.0188 15.0947L15.1697 12.9438L19.4715 15.6325Z" stroke="#031461" stroke-width="2" stroke-linecap="round"/>
<path d="M27.5374 23.6983L35.6033 32.3019L32.377 35.5282L23.9171 27.7545L27.5374 23.6983ZM27.5374 23.6983C27.5374 23.6983 18.9341 33.3773 17.3207 34.9906C15.7074 36.6038 14.6327 36.0661 13.5569 34.9906C12.4811 33.9152 12.481 32.8393 13.5567 31.7642C14.6323 30.689 24.8486 21.0099 24.8486 21.0099C24.434 19.5175 23.7733 16.0626 26.9997 13.4816C30.226 10.9006 32.9147 13.4816 32.9147 13.4816L29.1507 17.2456L31.3016 19.3965L35.2806 15.525C35.2806 15.525 38.1922 18.0595 35.8183 21.2248C33.4444 24.3901 31.6001 24.2787 27.5374 23.6983Z" stroke="#031461" stroke-width="2" stroke-linecap="round"/>
</g>
</svg>
