<svg width="48" height="49" viewBox="0 0 48 49" fill="none" xmlns="http://www.w3.org/2000/svg">
<path fill-rule="evenodd" clip-rule="evenodd" d="M9 14.7492L24 9.29468L39 14.7492V17.8792C39 27.4614 33.0054 36.02 24 39.2947C14.9946 36.02 9 27.4614 9 17.8792V14.7492Z" stroke="#031461" stroke-width="2"/>
<path d="M17.6592 24.6199L19.1387 19.1853H21.0576L18.6602 26.2947H17.4199L17.6592 24.6199ZM16.3164 19.1853L17.7959 24.6199L18.0449 26.2947H16.79L14.4072 19.1853H16.3164ZM24.417 23.8826H22.6494V22.5593H24.417C24.6579 22.5593 24.8532 22.5186 25.0029 22.4373C25.1527 22.3559 25.2617 22.2436 25.3301 22.1003C25.4017 21.9539 25.4375 21.7895 25.4375 21.6072C25.4375 21.4119 25.4017 21.2312 25.3301 21.0652C25.2617 20.8992 25.1527 20.7657 25.0029 20.6648C24.8532 20.5606 24.6579 20.5085 24.417 20.5085H23.2939V26.2947H21.5801V19.1853H24.417C24.9867 19.1853 25.4766 19.2895 25.8867 19.4978C26.3001 19.7061 26.6175 19.9926 26.8389 20.3572C27.0602 20.7185 27.1709 21.1319 27.1709 21.5974C27.1709 22.0564 27.0602 22.4568 26.8389 22.7986C26.6175 23.1404 26.3001 23.4073 25.8867 23.5994C25.4766 23.7882 24.9867 23.8826 24.417 23.8826ZM34.0312 19.1853V26.2947H32.3223L29.8076 21.8708V26.2947H28.0938V19.1853H29.8076L32.3223 23.6091V19.1853H34.0312Z" fill="#031461"/>
</svg>
