<svg width="48" height="49" viewBox="0 0 48 49" fill="none" xmlns="http://www.w3.org/2000/svg">
<path d="M40.5055 13.1121L25.5055 4.40968C24.5745 3.86957 23.4255 3.86957 22.4945 4.40968L7.49454 13.1121C6.56941 13.6488 6 14.6374 6 15.707V33.1286C6 34.1981 6.56942 35.1868 7.49454 35.7235L22.4945 44.4259C23.4255 44.966 24.5745 44.966 25.5055 44.4259L40.5055 35.7235C41.4306 35.1868 42 34.1981 42 33.1286V15.707C42 14.6374 41.4306 13.6488 40.5055 13.1121Z" stroke="#031461" stroke-width="2"/>
<path d="M24 33.4611C28.9706 33.4611 33 29.4121 33 24.4173C33 19.4226 28.9706 15.3735 24 15.3735C19.0294 15.3735 15 19.4226 15 24.4173C15 29.4121 19.0294 33.4611 24 33.4611Z" fill="#FFDB00"/>
<ellipse cx="24" cy="24.4178" rx="12" ry="12.0584" stroke="#031461" stroke-width="2"/>
<mask id="mask0_263_16392" style="mask-type:alpha" maskUnits="userSpaceOnUse" x="15" y="15" width="18" height="19">
<ellipse cx="24" cy="24.4178" rx="9" ry="9.04378" fill="#EDEDED"/>
</mask>
<g mask="url(#mask0_263_16392)">
<path d="M27.8117 24.102L28.5206 23.3966L27.1029 23.3966L27.8117 24.102ZM19.4167 32.5378H18.4167V34.9603L20.1256 33.2432L19.4167 32.5378ZM19.4167 20.3983V19.3983L18.4167 20.3983H19.4167ZM26.2912 11.654L11.2912 26.727L12.7088 28.1377L27.7088 13.0648L26.2912 11.654ZM29.642 32.1891L24.7063 27.2294L23.2887 28.6402L28.2244 33.5999L29.642 32.1891ZM33.8348 28.7367L28.5206 23.3966L27.1029 24.8074L32.4172 30.1475L33.8348 28.7367ZM27.1029 23.3966L23.2887 27.2294L24.7063 28.6402L28.5206 24.8074L27.1029 23.3966ZM23.2887 27.2294L18.7079 31.8324L20.1256 33.2432L24.7063 28.6402L23.2887 27.2294ZM20.4167 32.5378V20.3983H18.4167V32.5378H20.4167ZM19.4167 21.3983H33.126V19.3983H19.4167V21.3983Z" fill="#031461"/>
</g>
</svg>
