<svg width="49" height="48" viewBox="0 0 49 48" fill="none" xmlns="http://www.w3.org/2000/svg">
<path fill-rule="evenodd" clip-rule="evenodd" d="M26.3892 3.21559L41.3892 11.8758C42.6268 12.5904 43.3892 13.9109 43.3892 15.3399V32.6604C43.3892 34.0895 42.6268 35.41 41.3892 36.1245L26.3892 44.7848C25.1516 45.4993 23.6268 45.4993 22.3892 44.7848L7.38916 36.1245C6.15156 35.41 5.38916 34.0895 5.38916 32.6604V15.3399C5.38916 13.9109 6.15155 12.5904 7.38916 11.8758L22.3892 3.21559C23.6268 2.50106 25.1516 2.50105 26.3892 3.21559ZM25.3892 4.94764C24.7704 4.59037 24.008 4.59037 23.3892 4.94764L8.38916 13.6079C7.77036 13.9652 7.38916 14.6254 7.38916 15.3399V32.6604C7.38916 33.375 7.77036 34.0352 8.38916 34.3925L23.3892 43.0528C24.008 43.41 24.7704 43.41 25.3892 43.0528L40.3892 34.3925C41.008 34.0352 41.3892 33.375 41.3892 32.6604V15.3399C41.3892 14.6254 41.008 13.9652 40.3892 13.6079L25.3892 4.94764Z" fill="#031461"/>
<path fill-rule="evenodd" clip-rule="evenodd" d="M34.3828 18.2538C34.387 18.1697 34.3892 18.0851 34.3892 18C34.3892 15.2386 32.1506 13 29.3892 13C26.6277 13 24.3892 15.2386 24.3892 18H23.8892C21.4039 18 19.3892 20.0147 19.3892 22.5C19.3892 24.9853 21.4039 27 23.8892 27H32.8892C35.3744 27 37.3892 24.9853 37.3892 22.5C37.3892 20.5383 36.1339 18.8698 34.3828 18.2538Z" fill="#FFDB00"/>
<path fill-rule="evenodd" clip-rule="evenodd" d="M13.3892 16H12.3892V17V28V29H13.3892H20.3892V31.5H17.3892V33.5H21.8892L22.3892 31V29V27H14.3892V18H28.3892V22H30.3892V17V16H29.3892H13.3892ZM23.3892 25C23.3892 23.8954 24.2846 23 25.3892 23H34.3892C35.4937 23 36.3892 23.8954 36.3892 25V30.9173L36.7785 33.2534C36.9309 34.1677 36.2258 35 35.2989 35H24.4794C23.5525 35 22.8474 34.1677 22.9998 33.2534L23.3892 30.9171V25ZM25.3892 30H34.3892V25H25.3892V30ZM25.2363 32L25.0696 33H34.7087L34.542 32H25.2363Z" fill="#031461"/>
</svg>
