<svg width="49" height="49" viewBox="0 0 49 49" fill="none" xmlns="http://www.w3.org/2000/svg">
<mask id="mask0_263_18835" style="mask-type:alpha" maskUnits="userSpaceOnUse" x="0" y="0" width="49" height="49">
<rect x="0.691406" y="0.642578" width="48" height="48" fill="#C4C4C4"/>
</mask>
<g mask="url(#mask0_263_18835)">
<path d="M16.6914 34.6427C16.6914 31.3983 18.3183 28.409 20.9414 26.8334C22.6293 25.8195 25.138 25.8298 27.0436 26.1426C28.122 26.3196 29.1914 26.8334 29.6914 27.1426" stroke="#031461" stroke-width="2"/>
<path fill-rule="evenodd" clip-rule="evenodd" d="M30.4414 37.1426V34.8068L28.79 36.4582L27.3758 35.044L29.0272 33.3926H26.6914V31.3926H29.0272L27.3753 29.7407L28.7895 28.3265L30.4414 29.9784V27.6426H32.4414V29.9784L34.0933 28.3265L35.5075 29.7407L33.8556 31.3926H36.1914V33.3926H33.8556L35.507 35.044L34.0928 36.4582L32.4414 34.8068V37.1426H30.4414ZM33.9747 32.3926C33.9747 30.9935 32.8405 29.8592 31.4414 29.8592C30.0423 29.8592 28.9081 30.9935 28.9081 32.3926C28.9081 33.7917 30.0423 34.9259 31.4414 34.9259C32.8405 34.9259 33.9747 33.7917 33.9747 32.3926Z" fill="#031461"/>
<path fill-rule="evenodd" clip-rule="evenodd" d="M31.4415 29.8594C32.8407 29.8594 33.9749 30.9936 33.9749 32.3927C33.9749 33.7918 32.8407 34.926 31.4415 34.926C30.0424 34.926 28.9082 33.7918 28.9082 32.3927C28.9082 30.9936 30.0424 29.8594 31.4415 29.8594Z" stroke="#031461" stroke-width="2"/>
<path d="M25.1914 22.6426C27.6767 22.6426 29.6914 20.6279 29.6914 18.1426C29.6914 15.6573 27.6767 13.6426 25.1914 13.6426C22.7061 13.6426 20.6914 15.6573 20.6914 18.1426C20.6914 20.6279 22.7061 22.6426 25.1914 22.6426Z" stroke="#031461" stroke-width="2" stroke-linejoin="round"/>
</g>
</svg>
