<svg width="49" height="49" viewBox="0 0 49 49" fill="none" xmlns="http://www.w3.org/2000/svg">
<mask id="mask0_263_18868" style="mask-type:alpha" maskUnits="userSpaceOnUse" x="0" y="0" width="49" height="49">
<rect x="0.691406" y="0.642578" width="48" height="48" fill="#C4C4C4"/>
</mask>
<g mask="url(#mask0_263_18868)">
<path d="M12.7275 20.1526C12.7275 20.1526 11.9849 19.998 11.3582 19.3353C10.7314 18.6725 10.6877 18.065 10.6877 17.6423C10.6375 16.9352 10.9462 16.3134 11.4722 15.7142C11.9983 15.115 12.7408 14.7493 13.5364 14.6976C14.3321 14.6459 15.1157 14.9124 15.7149 15.4384C16.3141 15.9645 16.7314 16.5955 16.7314 17.5026C16.6959 18.0922 16.4872 18.6581 16.1314 19.1295C15.7756 19.6009 15.2886 19.9568 14.7314 20.1526C14.7314 21.2626 14.7314 22.3726 14.7314 23.4726C14.7275 23.5568 14.7484 23.6402 14.7914 23.7126C14.8188 23.6042 14.8522 23.4973 14.8914 23.3926C15.096 22.8139 15.4732 22.3118 15.9721 21.9541C16.471 21.5965 17.0676 21.4005 17.6814 21.3926C19.1814 21.3926 20.6814 21.3926 22.2014 21.3926H22.5114C22.4993 21.338 22.4826 21.2845 22.4614 21.2326C21.8215 20.1557 21.5876 18.8855 21.8022 17.6513C22.0168 16.4171 22.6656 15.3003 23.6314 14.5026C25.0944 13.2127 27.0034 12.5453 28.9514 12.6426C29.9127 12.6381 30.8654 12.824 31.7545 13.1895C32.6435 13.5551 33.4514 14.0932 34.1314 14.7726C34.9302 15.537 35.4724 16.5301 35.6838 17.6152C35.8951 18.7004 35.765 19.8244 35.3114 20.8326C35.1612 21.212 34.929 21.5534 34.6314 21.8326L34.0714 22.4126C34.5069 22.952 34.7528 23.6197 34.7714 24.3126H38.6714V33.3726H34.8014V36.3726H14.7314V33.3726H10.7314V24.1026L12.7314 24.0426L12.7275 20.1526ZM22.7314 25.4426L23.4214 23.3426H23.2714C21.4214 23.3426 19.5714 23.3426 17.7114 23.3426C17.5758 23.3425 17.4415 23.3699 17.3168 23.4232C17.1921 23.4766 17.0796 23.5548 16.986 23.653C16.8925 23.7512 16.8199 23.8674 16.7727 23.9946C16.7255 24.1217 16.7047 24.2572 16.7114 24.3926V34.3926H32.7314V33.3926C32.7314 30.3926 32.7314 27.3926 32.7314 24.3926C32.7314 24.2126 32.7314 23.3926 32.7314 23.3926C29.4856 24.4492 26.1312 25.1369 22.7314 25.4426ZM32.5314 21.0926C32.9017 20.793 33.2021 20.4161 33.4116 19.9883C33.621 19.5605 33.7345 19.0921 33.744 18.6159C33.7535 18.1396 33.6589 17.6671 33.4667 17.2312C33.2745 16.7954 32.9895 16.4068 32.6314 16.0926C32.3316 15.8064 31.9954 15.561 31.6314 15.3626C30.4219 14.6661 29.002 14.4282 27.6314 14.6926C26.4538 14.8456 25.3691 15.4128 24.5714 16.2926C24.2515 16.6249 24.0099 17.0246 23.8646 17.4624C23.7192 17.9002 23.6737 18.365 23.7314 18.8226C23.7812 19.364 23.9538 19.8868 24.2363 20.3512C24.5188 20.8157 24.9036 21.2095 25.3614 21.5026C25.552 21.6138 25.7005 21.785 25.7837 21.9893C25.8669 22.1937 25.8802 22.4199 25.8214 22.6326C25.7214 23.0326 25.6014 23.2026 25.4914 23.6326C25.4914 23.5726 30.7314 23.0726 32.5714 21.0926H32.5314ZM14.6714 31.3326V26.3326C14.2914 26.3326 13.0514 26.3326 12.6714 26.3326V31.3326H14.6714ZM36.7714 31.3626V30.9643V26.3626H34.7714V31.3626H36.7714ZM13.7122 16.6423C13.5144 16.6423 13.3211 16.701 13.1567 16.8109C12.9922 16.9207 12.864 17.0769 12.7883 17.2597C12.7127 17.4424 12.6929 17.6434 12.7314 17.8374C12.77 18.0314 12.8653 18.2096 13.0051 18.3494C13.145 18.4893 13.3232 18.5845 13.5171 18.6231C13.7111 18.6617 13.9122 18.6419 14.0949 18.5662C14.2776 18.4905 14.4338 18.3624 14.5437 18.1979C14.6536 18.0335 14.7122 17.8401 14.7122 17.6423C14.7122 17.3771 14.6069 17.1228 14.4193 16.9352C14.2318 16.7477 13.9774 16.6423 13.7122 16.6423Z" fill="#031461"/>
<path d="M27.2412 32.3525V30.3525C26.2412 30.3525 23.2412 30.3525 22.2412 30.3525V31.3525C22.2412 31.9125 22.2412 32.3525 22.2412 32.3525H27.2412Z" fill="#031461"/>
<path d="M27.7314 28.3428C27.5337 28.3428 27.3403 28.2841 27.1759 28.1742C27.0114 28.0644 26.8833 27.9082 26.8076 27.7255C26.7319 27.5427 26.7121 27.3417 26.7507 27.1477C26.7892 26.9537 26.8845 26.7755 27.0243 26.6357C27.1642 26.4958 27.3424 26.4006 27.5364 26.362C27.7303 26.3234 27.9314 26.3432 28.1141 26.4189C28.2969 26.4946 28.453 26.6228 28.5629 26.7872C28.6728 26.9517 28.7314 27.145 28.7314 27.3428C28.7314 27.608 28.6261 27.8623 28.4386 28.0499C28.251 28.2374 27.9967 28.3428 27.7314 28.3428Z" fill="#031461"/>
<path d="M21.7314 26.3325C21.9967 26.3325 22.251 26.4379 22.4386 26.6254C22.6261 26.8129 22.7314 27.0673 22.7314 27.3325C22.7314 27.5977 22.6261 27.8521 22.4386 28.0396C22.251 28.2272 21.9967 28.3325 21.7314 28.3325C21.4662 28.3325 21.2119 28.2272 21.0243 28.0396C20.8368 27.8521 20.7314 27.5977 20.7314 27.3325C20.7314 27.0673 20.8368 26.8129 21.0243 26.6254C21.2119 26.4379 21.4662 26.3325 21.7314 26.3325Z" fill="#031461"/>
<path d="M28.7314 16.3027H31.7314V17.3027V18.3027H25.7314V16.3027H28.7314Z" fill="#031461"/>
<path d="M28.7314 21.0723H25.7314C25.7314 21.0723 25.7314 20.6523 25.7314 20.0723V19.0723H31.7314C31.7314 19.0723 31.7314 19.4923 31.7314 20.0723C31.7314 20.6523 31.7314 21.0723 31.7314 21.0723H28.7314Z" fill="#031461"/>
</g>
</svg>
