<svg width="49" height="49" viewBox="0 0 49 49" fill="none" xmlns="http://www.w3.org/2000/svg">
<mask id="mask0_263_18812" style="mask-type:alpha" maskUnits="userSpaceOnUse" x="0" y="0" width="49" height="49">
<rect x="0.691406" y="0.642578" width="48" height="48" fill="#C4C4C4"/>
</mask>
<g mask="url(#mask0_263_18812)">
<path d="M32.3443 28.5376L30.5386 35.7479" stroke="#031461" stroke-width="2"/>
<path d="M16.6914 34.6427C16.6914 31.3983 18.3183 28.409 20.9414 26.8334C22.6293 25.8195 25.138 25.8298 27.0436 26.1426C28.122 26.3196 29.6914 27.1426 30.1914 27.6426" stroke="#031461" stroke-width="2"/>
<path d="M25.1914 22.6426C27.6767 22.6426 29.6914 20.6279 29.6914 18.1426C29.6914 15.6573 27.6767 13.6426 25.1914 13.6426C22.7061 13.6426 20.6914 15.6573 20.6914 18.1426C20.6914 20.6279 22.7061 22.6426 25.1914 22.6426Z" stroke="#031461" stroke-width="2" stroke-linejoin="round"/>
<path d="M28.6914 29.1426L25.6914 32.1426L28.6914 35.1426" stroke="#031461" stroke-width="2"/>
<path d="M34.1914 35.1426L37.1914 32.1426L34.1914 29.1426" stroke="#031461" stroke-width="2"/>
</g>
</svg>
