<svg width="49" height="49" viewBox="0 0 49 49" fill="none" xmlns="http://www.w3.org/2000/svg">
<mask id="mask0_263_18872" style="mask-type:alpha" maskUnits="userSpaceOnUse" x="0" y="0" width="49" height="49">
<rect x="0.5" y="0.642578" width="48" height="48" fill="#C4C4C4"/>
</mask>
<g mask="url(#mask0_263_18872)">
<path d="M17.5 26.6426V20.6426C17.5 16.7766 20.634 13.6426 24.5 13.6426V13.6426C28.366 13.6426 31.5 16.7766 31.5 20.6426V26.6426" stroke="#031461" stroke-width="2"/>
<path d="M31.5 22.6426V27.6426V28.6426C31.5 31.404 29.2614 33.6426 26.5 33.6426V33.6426" stroke="#031461" stroke-width="2"/>
<path d="M12.5 23.6426C12.5 21.4334 14.2909 19.6426 16.5 19.6426H17.5V28.6426H16.5C14.2909 28.6426 12.5 26.8517 12.5 24.6426V23.6426Z" stroke="#031461" stroke-width="2"/>
<path d="M36.5 23.6426C36.5 21.4334 34.7091 19.6426 32.5 19.6426H31.5V28.6426H32.5C34.7091 28.6426 36.5 26.8517 36.5 24.6426V23.6426Z" stroke="#031461" stroke-width="2"/>
<path d="M22.5 32.6426H26.5V34.6426H22.5V32.6426Z" stroke="#031461" stroke-width="2"/>
</g>
</svg>
