<svg width="49" height="49" viewBox="0 0 49 49" fill="none" xmlns="http://www.w3.org/2000/svg">
<mask id="mask0_263_18808" style="mask-type:alpha" maskUnits="userSpaceOnUse" x="0" y="0" width="49" height="49">
<rect x="0.5" y="0.642578" width="48" height="48" fill="#C4C4C4"/>
</mask>
<g mask="url(#mask0_263_18808)">
<path d="M8.5 32.6426C8.5 30.1192 9.70152 27.7941 11.6388 26.5687C13.5909 25.3339 15.9644 25.3339 17.9165 26.5687C19.0728 27.3001 19.967 28.4233 20.5 29.7465" stroke="#031461" stroke-width="2"/>
<path d="M18.5 34.6426C18.5 32.1192 19.6484 29.7941 21.5 28.5687C23.3657 27.3339 25.6343 27.3339 27.5 28.5687C29.3516 29.7941 30.5 32.1192 30.5 34.6426" stroke="#031461" stroke-width="2"/>
<path d="M40.5 32.6426C40.5 30.1192 39.2694 27.7941 37.2852 26.5687C35.286 25.3339 32.855 25.3339 30.8557 26.5687C29.8611 27.183 29.0558 28.0736 28.5 29.127" stroke="#031461" stroke-width="2"/>
<path d="M14.5 22.6426C16.1569 22.6426 17.5 21.2994 17.5 19.6426C17.5 17.9857 16.1569 16.6426 14.5 16.6426C12.8431 16.6426 11.5 17.9857 11.5 19.6426C11.5 21.2994 12.8431 22.6426 14.5 22.6426Z" stroke="#031461" stroke-width="2" stroke-linejoin="round"/>
<path d="M24.5 24.6426C26.433 24.6426 28 23.0756 28 21.1426C28 19.2096 26.433 17.6426 24.5 17.6426C22.567 17.6426 21 19.2096 21 21.1426C21 23.0756 22.567 24.6426 24.5 24.6426Z" stroke="#031461" stroke-width="2" stroke-linejoin="round"/>
<path d="M34.5 22.6426C36.1569 22.6426 37.5 21.2994 37.5 19.6426C37.5 17.9857 36.1569 16.6426 34.5 16.6426C32.8431 16.6426 31.5 17.9857 31.5 19.6426C31.5 21.2994 32.8431 22.6426 34.5 22.6426Z" stroke="#031461" stroke-width="2" stroke-linejoin="round"/>
</g>
</svg>
