<svg width="49" height="49" viewBox="0 0 49 49" fill="none" xmlns="http://www.w3.org/2000/svg">
<path d="M10.4959 26.9014C6.49587 31.7014 9.50013 36.4014 11 37.4014C12.4999 38.4014 14.5004 39.4014 17.5002 38.4014C20.5 37.4014 22 32.9014 20.0002 29.9014C18.0004 26.9014 16.8333 24.9014 16.5 22.9014C13.5 24.9014 12.5 29.4014 12.5 29.4014L10.4959 26.9014Z" stroke="#031461" stroke-width="2" stroke-linecap="round"/>
<path d="M13.4996 33.4014C11.9997 35.4014 12.9826 37.3395 13.7078 37.7793C14.433 38.2192 15.4003 38.659 16.8507 38.2192C18.3012 37.7793 19.0264 35.8 18.0595 34.4804C17.0926 33.1608 16.4998 32.4014 15.9998 31.4014C14.9998 32.4014 14.4331 34.2604 14.4331 34.2604L13.4996 33.4014Z" stroke="#031461" stroke-width="2" stroke-linecap="round"/>
<path fill-rule="evenodd" clip-rule="evenodd" d="M11.5 14.1426H37.5V35.1426H21.5969C21.788 34.5047 21.8971 33.8281 21.9093 33.1426H27.7V28.9897H21.3V30.1803C21.1674 29.8951 21.0119 29.6164 20.8322 29.3469C20.2475 28.4697 19.7452 27.6931 19.3195 26.9897H23.5V22.4604H17.4402L17.2321 21.2116L15.9453 22.0695C15.7607 22.1926 15.5833 22.3233 15.4128 22.4604H13.5V24.6039C13.0729 25.2476 12.732 25.8994 12.4646 26.4877C12.3323 26.7788 12.2159 27.059 12.1141 27.3215L11.5 26.5554V14.1426ZM13.5 16.1426V20.4604H19.3V16.1426H13.5ZM27.7 20.4604H21.3V16.1426H27.7V20.4604ZM29.7 20.4604H35.5V16.1426H29.7V20.4604ZM25.5 26.9897V22.4604H35.5V26.9897H25.5ZM29.7 33.1426H35.5V28.9897H29.7V33.1426Z" fill="#031461"/>
</svg>
