<svg width="48" height="49" viewBox="0 0 48 49" fill="none" xmlns="http://www.w3.org/2000/svg">
<path d="M20.1818 24.6581V36.1127" stroke="#031461" stroke-width="2"/>
<path fill-rule="evenodd" clip-rule="evenodd" d="M20.1488 22.4928L15.2838 27.3578L16.698 28.7721L20.1499 25.3201L23.5245 28.6947L24.9387 27.2805L21.3389 23.6807L21.3378 23.6818L20.1488 22.4928Z" fill="#031461"/>
<path d="M27.6771 38.6581V27.2036" stroke="#031461" stroke-width="2"/>
<path fill-rule="evenodd" clip-rule="evenodd" d="M27.708 40.8255L32.5752 35.9584L31.161 34.5441L27.709 37.9961L24.3345 34.6215L22.9203 36.0357L26.2948 39.4103L26.2938 39.4113L27.708 40.8255Z" fill="#031461"/>
<mask id="mask0_7_13105" style="mask-type:alpha" maskUnits="userSpaceOnUse" x="9" y="10" width="30" height="24">
<path d="M31.6123 19.5672L30.6151 19.6431L30.6854 20.5672H31.6123V19.5672ZM15.1065 19.6914L15.303 20.6719L16.0577 20.5206L16.1047 19.7523L15.1065 19.6914ZM31.6123 20.5672H31.6364V18.5672H31.6123V20.5672ZM31.6364 20.5672C34.5986 20.5672 37 22.9686 37 25.9309H39C39 21.864 35.7032 18.5672 31.6364 18.5672V20.5672ZM37 25.9309C37 28.8931 34.5986 31.2945 31.6364 31.2945V33.2945C35.7032 33.2945 39 29.9977 39 25.9309H37ZM31.6364 31.2945H16.3636V33.2945H31.6364V31.2945ZM16.3636 31.2945C13.4014 31.2945 11 28.8931 11 25.9309H9C9 29.9977 12.2968 33.2945 16.3636 33.2945V31.2945ZM11 25.9309C11 23.3325 12.8487 21.1637 15.303 20.6719L14.91 18.7109C11.5395 19.3862 9 22.3609 9 25.9309H11ZM16.1047 19.7523C16.3371 15.9464 19.4986 12.9308 23.3636 12.9308V10.9308C18.4349 10.9308 14.4049 14.7757 14.1084 19.6304L16.1047 19.7523ZM23.3636 12.9308C27.1916 12.9308 30.3296 15.8888 30.6151 19.6431L32.6094 19.4914C32.2451 14.7024 28.2453 10.9308 23.3636 10.9308V12.9308Z" fill="#031461"/>
</mask>
<g mask="url(#mask0_7_13105)">
<rect width="7.63636" height="25.4545" transform="matrix(-1 0 0 1 16.4774 9.38535)" fill="#031461"/>
<rect width="10.1818" height="25.4545" transform="matrix(-1 0 0 1 41.1818 9.38535)" fill="#031461"/>
<rect width="14" height="25.4545" transform="matrix(-4.37114e-08 1 1 4.37114e-08 11.3865 8.11261)" fill="#031461"/>
</g>
</svg>
