<svg width="49" height="49" viewBox="0 0 49 49" fill="none" xmlns="http://www.w3.org/2000/svg">
<path d="M31.6877 38.0505C35.2776 38.0505 38.1877 35.1404 38.1877 31.5505C38.1877 27.9607 35.2776 25.0505 31.6877 25.0505C28.0979 25.0505 25.1877 27.9607 25.1877 31.5505C25.1877 35.1404 28.0979 38.0505 31.6877 38.0505Z" fill="#031461"/>
<path d="M28.387 34.335H29.9397V29.0505H28.387V34.335Z" fill="white"/>
<path d="M30.6721 34.335H32.2249V32.8921H33.0342C34.272 32.8921 35.052 32.156 35.052 30.9841V30.9768C35.052 29.8049 34.272 29.0505 33.0342 29.0505H30.6721V34.335ZM32.6643 30.2188C33.177 30.2188 33.4846 30.4714 33.4846 30.9768V30.9841C33.4846 31.4895 33.177 31.7458 32.6643 31.7458H32.2249V30.2188H32.6643Z" fill="white"/>
<path fill-rule="evenodd" clip-rule="evenodd" d="M23.6877 10.5505C29.1557 10.5505 33.8352 13.9264 35.7557 18.7076C36.3569 20.2043 36.6877 21.8388 36.6877 23.5505C36.6877 24.1167 36.6516 24.6743 36.5814 25.2214C36.0031 24.7736 35.3617 24.4033 34.6729 24.1261C34.6828 23.9355 34.6877 23.7436 34.6877 23.5505C34.6877 23.4671 34.6868 23.3839 34.685 23.3009C34.499 23.4734 34.2818 23.6787 34.0452 23.9035C33.3339 23.6845 32.5802 23.562 31.7996 23.5513C32.7758 22.6557 33.9078 21.5903 34.4161 21.1104C34.2559 20.4028 34.0274 19.7211 33.738 19.0725L33.7375 19.0728C33.3183 18.1323 32.7706 17.2615 32.1168 16.4826C31.8129 16.1205 31.4861 15.7783 31.1387 15.4583L30.9223 15.4801C28.9596 15.7007 27.1199 16.2358 25.4976 17.0699C26.717 18.0843 27.7609 19.3036 28.5789 20.7205C29.1401 21.6926 29.5677 22.7103 29.868 23.7584C29.2044 23.9128 28.5724 24.1498 27.9836 24.4579C27.7266 23.5086 27.3495 22.5911 26.8468 21.7205C26.0389 20.3211 24.9639 19.1419 23.688 18.1939L23.5687 18.2832C22.3448 19.2157 21.3114 20.3647 20.5286 21.7205C19.7716 23.0318 19.2992 24.4496 19.0921 25.922C20.5564 26.5584 22.1211 26.9025 23.7435 26.9025C24.2511 26.9025 24.753 26.8688 25.248 26.803C24.7806 27.436 24.4043 28.1404 24.1384 28.8968C24.0071 28.9006 23.8755 28.9025 23.7435 28.9025C22.083 28.9025 20.4826 28.5994 18.974 28.0354L18.9758 28.1027L18.976 28.1096C18.9932 28.6708 19.0934 31.9579 20.1393 33.9656C21.0628 34.2802 22.0415 34.4754 23.0571 34.5328C23.2658 34.5446 23.4761 34.5505 23.6877 34.5505C23.8808 34.5505 24.0727 34.5456 24.2633 34.5357C24.5405 35.2245 24.9108 35.8659 25.3586 36.4442C24.8115 36.5144 24.2539 36.5505 23.6877 36.5505C23.0723 36.5505 22.4669 36.5078 21.8743 36.4251C15.553 35.5428 10.6877 30.1148 10.6877 23.5505C10.6877 21.4074 11.2063 19.3855 12.1249 17.6032C14.1731 13.6289 18.2103 10.8469 22.9206 10.5728C23.1744 10.558 23.4302 10.5505 23.6877 10.5505ZM28.7897 13.8028C27.7714 13.2687 26.6592 12.8895 25.4842 12.6965C24.8996 12.6005 24.2995 12.5505 23.6877 12.5505C21.9359 12.5505 20.2798 12.96 18.8097 13.6886C18.7345 13.7258 18.6597 13.764 18.5854 13.8029C20.4296 14.199 22.1537 14.8625 23.6877 15.7847C25.2215 14.8625 26.9457 14.1989 28.7897 13.8028ZM13.8475 18.6289C14.4248 17.477 15.1984 16.4405 16.1244 15.5633C16.6858 15.5893 17.7183 15.6686 18.8027 15.9098C20.2722 16.2368 20.8217 16.5219 21.6288 16.9408L21.6289 16.9409C21.7088 16.9823 21.7911 17.0251 21.8771 17.0693C20.6581 18.0847 19.6145 19.3038 18.7966 20.7205C18.0298 22.0487 17.5125 23.4618 17.2292 24.9231C15.6433 23.9011 14.2181 22.5177 13.0208 20.8536C13.0584 20.7044 13.099 20.5565 13.1426 20.4099C13.3267 19.7911 13.5638 19.1954 13.8489 18.6293L13.8475 18.6289ZM15.5488 30.9505C13.843 29.0755 12.7764 26.6087 12.693 23.8945L12.6887 23.6325L13.039 24.0129C14.2211 25.2621 15.5446 26.3083 16.9766 27.1079C16.9492 27.8131 17.1079 30.7382 17.6025 32.7155C16.847 32.2128 16.1572 31.6193 15.5488 30.9505Z" fill="#031461"/>
</svg>
