<svg width="48" height="48" viewBox="0 0 48 48" fill="none" xmlns="http://www.w3.org/2000/svg">
<mask id="mask0_266_17461" style="mask-type:alpha" maskUnits="userSpaceOnUse" x="0" y="0" width="48" height="48">
<rect width="48" height="48" fill="#C4C4C4"/>
</mask>
<g mask="url(#mask0_266_17461)">
<path d="M22.5 4.08132L23 4.94735L22.5 4.08132L7.5 12.7416C6.57179 13.2775 6 14.2679 6 15.3397V32.6602C6 33.732 6.5718 34.7224 7.50001 35.2582L22.5 43.9185C23.4282 44.4544 24.5718 44.4544 25.5 43.9185L40.5 35.2583C41.4282 34.7224 42 33.732 42 32.6602V15.3397C42 14.2679 41.4282 13.2775 40.5 12.7416L25.5 4.08132C24.5718 3.54542 23.4282 3.54542 22.5 4.08132Z" stroke="#031461" stroke-width="2"/>
<path d="M24 30C27.866 30 31 26.866 31 23C31 19.134 27.866 16 24 16C20.134 16 17 19.134 17 23C17 26.866 20.134 30 24 30Z" fill="#FFDB00"/>
<path fill-rule="evenodd" clip-rule="evenodd" d="M13 17L24 13L35 17V19.2953C35 26.3223 30.6039 32.5986 24 35C17.3961 32.5986 13 26.3223 13 19.2953V17Z" stroke="#031461" stroke-width="2"/>
<path d="M24 26C25.6569 26 27 24.6569 27 23C27 21.3431 25.6569 20 24 20C22.3431 20 21 21.3431 21 23C21 24.6569 22.3431 26 24 26Z" stroke="#031461" stroke-width="2"/>
</g>
</svg>
