<svg width="49" height="48" viewBox="0 0 49 48" fill="none" xmlns="http://www.w3.org/2000/svg">
<mask id="mask0_266_17464" style="mask-type:alpha" maskUnits="userSpaceOnUse" x="0" y="0" width="49" height="48">
<rect x="0.9375" width="48" height="48" fill="#C4C4C4"/>
</mask>
<g mask="url(#mask0_266_17464)">
<path d="M26.4375 4.08144C25.5093 3.54554 24.3657 3.54555 23.4375 4.08144L8.4375 12.7417C7.5093 13.2776 6.9375 14.268 6.9375 15.3398V32.6603C6.9375 33.7321 7.5093 34.7225 8.4375 35.2584L23.4375 43.9186C24.3657 44.4545 25.5093 44.4545 26.4375 43.9186L41.4375 35.2584C42.3657 34.7225 42.9375 33.7321 42.9375 32.6603V15.3398C42.9375 14.268 42.3657 13.2776 41.4375 12.7417L26.4375 4.08144Z" stroke="#031461" stroke-width="2"/>
<path d="M31.9375 35.4182L29.4375 31.0881" stroke="#031461" stroke-width="2"/>
<circle cx="24.9375" cy="23" r="10" stroke="#031461" stroke-width="2"/>
<circle cx="24.9375" cy="23" r="7" fill="#FFDB00"/>
<path fill-rule="evenodd" clip-rule="evenodd" d="M28.8155 22.232C29.3833 22.232 29.8708 21.9842 30.2056 21.5114C30.5322 21.0501 30.6995 20.3963 30.6995 19.592C30.6995 18.7934 30.5321 18.1499 30.2034 17.698C29.8662 17.2345 29.3782 17 28.8155 17C28.2542 17 27.767 17.2305 27.4305 17.6937C27.103 18.1446 26.9375 18.7885 26.9375 19.592C26.9375 20.3958 27.1031 21.0494 27.428 21.5107C27.7612 21.984 28.2475 22.232 28.8155 22.232ZM28.8155 20.804C28.7834 20.804 28.7695 20.7975 28.7601 20.7912C28.7487 20.7835 28.7189 20.7586 28.6841 20.6824C28.6094 20.5187 28.5455 20.1951 28.5455 19.592C28.5455 18.9908 28.6098 18.6807 28.682 18.5295C28.7148 18.4607 28.7419 18.4406 28.7511 18.4349C28.7601 18.4293 28.7765 18.422 28.8155 18.422C28.8545 18.422 28.8718 18.4293 28.8818 18.4355C28.8919 18.4418 28.9195 18.4624 28.9528 18.531C29.0258 18.6819 29.0915 18.9914 29.0915 19.592C29.0915 20.1945 29.0262 20.5177 28.9505 20.6809C28.9153 20.7569 28.885 20.7824 28.8728 20.7906C28.8624 20.7975 28.8477 20.804 28.8155 20.804ZM29.177 21.8889C29.0627 21.9174 28.9422 21.9318 28.8163 21.9318C27.8743 21.9318 27.2383 21.1278 27.2383 19.5918C27.2383 18.2705 27.7089 17.5264 28.44 17.3442C27.7084 17.5261 27.2375 18.2703 27.2375 19.592C27.2375 21.128 27.8735 21.932 28.8155 21.932C28.9417 21.932 29.0625 21.9176 29.177 21.8889ZM28.6994 18.1353C28.737 18.1258 28.7761 18.1218 28.8163 18.1218C29.1343 18.1218 29.3923 18.3738 29.3923 19.5918C29.3923 20.6753 29.1901 21.0253 28.9231 21.0914C29.1897 21.0249 29.3915 20.6744 29.3915 19.592C29.3915 18.374 29.1335 18.122 28.8155 18.122C28.7756 18.122 28.7368 18.126 28.6994 18.1353ZM18.9375 22.148V20.684H19.8855V18.746H19.0635V17.537L19.3082 17.4911C19.7585 17.4067 20.0346 17.2981 20.3103 17.1285L20.3826 17.084H21.5535V20.684H22.3575V22.148H18.9375ZM20.4675 17.384H20.468C20.2206 17.5362 19.9731 17.6431 19.6419 17.7258C19.9729 17.6431 20.2202 17.5362 20.4675 17.384ZM19.2383 21.8478H22.0575V21.848H19.2375V20.984H19.2383V21.8478ZM20.1863 20.9838H20.1855V18.446H19.3635V17.786L19.3643 17.7858V18.4458H20.1863V20.9838ZM23.0371 22.148V20.684H23.9851V18.746H23.1631V17.537L23.4078 17.4911C23.8581 17.4067 24.1343 17.2981 24.4099 17.1285L24.4822 17.084H25.6531V20.684H26.4571V22.148H23.0371ZM25.3519 20.9838V17.384H25.3531V20.9838H25.3519ZM26.1559 21.8478V20.984H26.1571V21.848H23.3371V21.8478H26.1559ZM24.2839 18.4458V18.446H23.4631V18.4458H24.2839ZM18.9375 28.264V26.8H19.8855V24.862H19.0635V23.653L19.3082 23.6071C19.7585 23.5227 20.0346 23.4141 20.3103 23.2445L20.3826 23.2H21.5535V26.8H22.3575V28.264H18.9375ZM20.4675 23.5H20.468C20.2206 23.6522 19.9731 23.7592 19.6419 23.8418C19.9729 23.7591 20.2202 23.6522 20.4675 23.5ZM19.2383 27.9638H22.0575V27.964H19.2375V27.1H19.2383V27.9638ZM20.1863 27.0998H20.1855V24.562H19.3635V23.902L19.3643 23.9019V24.5618H20.1863V27.0998ZM24.9151 28.432C25.4829 28.432 25.9704 28.1842 26.3052 27.7113C26.6318 27.25 26.7991 26.5963 26.7991 25.792C26.7991 24.9934 26.6317 24.3499 26.303 23.898C25.9658 23.4345 25.4778 23.2 24.9151 23.2C24.3538 23.2 23.8666 23.4304 23.5301 23.8936C23.2026 24.3446 23.0371 24.9884 23.0371 25.792C23.0371 26.5958 23.2027 27.2493 23.5276 27.7107C23.8608 28.1839 24.3471 28.432 24.9151 28.432ZM24.9151 27.004C24.883 27.004 24.8691 26.9975 24.8597 26.9912C24.8484 26.9835 24.8185 26.9585 24.7838 26.8823C24.709 26.7187 24.6451 26.395 24.6451 25.792C24.6451 25.1907 24.7094 24.8807 24.7816 24.7294C24.8144 24.6607 24.8415 24.6406 24.8507 24.6349C24.8597 24.6293 24.8761 24.622 24.9151 24.622C24.9542 24.622 24.9714 24.6293 24.9814 24.6354C24.9915 24.6417 25.0191 24.6624 25.0524 24.731C25.1254 24.8818 25.1911 25.1914 25.1911 25.792C25.1911 26.3944 25.1258 26.7176 25.0502 26.8808C25.0149 26.9569 24.9846 26.9823 24.9724 26.9905C24.962 26.9975 24.9473 27.004 24.9151 27.004ZM25.2767 28.0889C25.1623 28.1174 25.0418 28.1318 24.9159 28.1318C23.9739 28.1318 23.3379 27.3278 23.3379 25.7918C23.3379 24.4705 23.8085 23.7264 24.5397 23.5441C23.808 23.726 23.3371 24.4702 23.3371 25.792C23.3371 27.328 23.9731 28.132 24.9151 28.132C25.0413 28.132 25.1621 28.1175 25.2767 28.0889ZM24.799 24.3352C24.8366 24.3258 24.8757 24.3218 24.9159 24.3218C25.2339 24.3218 25.4919 24.5738 25.4919 25.7918C25.4919 26.8752 25.2897 27.2253 25.0227 27.2914C25.2893 27.2248 25.4911 26.8744 25.4911 25.792C25.4911 24.574 25.2331 24.322 24.9151 24.322C24.8752 24.322 24.8364 24.3259 24.799 24.3352ZM27.4375 28.264V26.8H28.3855V24.862H27.5635V23.653L27.8082 23.6071C28.2585 23.5227 28.5346 23.4141 28.8103 23.2445L28.8826 23.2H30.0535V26.8H30.8575V28.264H27.4375ZM28.9675 23.5H28.968C28.7206 23.6522 28.4731 23.7592 28.1419 23.8418C28.4729 23.7591 28.7202 23.6522 28.9675 23.5ZM27.7383 27.9638H30.5575V27.964H27.7375V27.1H27.7383V27.9638ZM28.6863 27.0998H28.6855V24.562H27.8635V23.902L27.8643 23.9019V24.5618H28.6863V27.0998Z" fill="#031461"/>
</g>
</svg>
