<svg width="49" height="48" viewBox="0 0 49 48" fill="none" xmlns="http://www.w3.org/2000/svg">
<mask id="mask0_266_17467" style="mask-type:alpha" maskUnits="userSpaceOnUse" x="0" y="0" width="49" height="48">
<rect x="0.9375" width="48" height="48" fill="#C4C4C4"/>
</mask>
<g mask="url(#mask0_266_17467)">
<path d="M26.4375 4.08144C25.5093 3.54554 24.3657 3.54555 23.4375 4.08144L8.4375 12.7417C7.5093 13.2776 6.9375 14.268 6.9375 15.3398V32.6603C6.9375 33.7321 7.5093 34.7225 8.4375 35.2584L23.4375 43.9186C24.3657 44.4545 25.5093 44.4545 26.4375 43.9186L41.4375 35.2584C42.3657 34.7225 42.9375 33.7321 42.9375 32.6603V15.3398C42.9375 14.268 42.3657 13.2776 41.4375 12.7417L26.4375 4.08144Z" stroke="#031461" stroke-width="2"/>
<path d="M31.9375 18.5H17.9375V27.5H31.9375V18.5Z" fill="#FFDB00"/>
<path fill-rule="evenodd" clip-rule="evenodd" d="M34.9375 16H14.9375V30H34.9375V16Z" stroke="#031461" stroke-width="2"/>
<path d="M24.9375 30V34" stroke="#031461" stroke-width="2"/>
<path d="M19.9375 33.5H29.9375" stroke="#031461" stroke-width="2"/>
<path d="M24.938 25.1817C26.3438 25.1817 27.4835 24.0421 27.4835 22.6363C27.4835 21.2305 26.3438 20.0908 24.938 20.0908C23.5322 20.0908 22.3926 21.2305 22.3926 22.6363C22.3926 24.0421 23.5322 25.1817 24.938 25.1817Z" fill="#FFDB00"/>
<path fill-rule="evenodd" clip-rule="evenodd" d="M20.9375 20.4545L24.9375 19L28.9375 20.4545V21.2892C28.9375 23.8445 27.3389 26.1268 24.9375 27C22.5361 26.1268 20.9375 23.8445 20.9375 21.2892V20.4545Z" stroke="#031461" stroke-width="2"/>
</g>
</svg>
