<svg width="48" height="48" viewBox="0 0 48 48" fill="none" xmlns="http://www.w3.org/2000/svg">
<mask id="mask0_19627_46024" style="mask-type:alpha" maskUnits="userSpaceOnUse" x="0" y="0" width="48" height="48">
<rect width="48" height="48" fill="#C4C4C4"/>
</mask>
<g mask="url(#mask0_19627_46024)">
<path d="M25.5 4.08144C24.5718 3.54554 23.4282 3.54555 22.5 4.08144L7.5 12.7417C6.5718 13.2776 6 14.268 6 15.3398V32.6603C6 33.7321 6.5718 34.7225 7.5 35.2584L22.5 43.9186C23.4282 44.4545 24.5718 44.4545 25.5 43.9186L40.5 35.2584C41.4282 34.7225 42 33.7321 42 32.6603V15.3398C42 14.268 41.4282 13.2776 40.5 12.7417L25.5 4.08144Z" stroke="#031461" stroke-width="2"/>
<path fill-rule="evenodd" clip-rule="evenodd" d="M24 16C27.866 16 31 17.567 31 19.5C31 19.6699 30.9758 19.837 30.929 20.0004L31 20V28.25C31 30.3211 27.866 32 24 32C20.134 32 17 30.3211 17 28.25V20L17.071 20.0004C17.0242 19.837 17 19.6699 17 19.5C17 17.567 20.134 16 24 16Z" fill="#FFDB00"/>
<path d="M14 19V30C14 32.7614 18.4772 35 24 35C29.5228 35 34 32.7614 34 30V19" stroke="#031461" stroke-width="2" stroke-linecap="square" stroke-linejoin="round"/>
<path d="M14 24C14 26.7614 18.4772 29 24 29C29.5228 29 34 26.7614 34 24" stroke="#031461" stroke-width="2" stroke-linecap="square"/>
<path d="M24 23C29.5228 23 34 20.7614 34 18C34 15.2386 29.5228 13 24 13C18.4772 13 14 15.2386 14 18C14 20.7614 18.4772 23 24 23Z" stroke="#031461" stroke-width="1.5"/>
<path d="M24 23C29.5228 23 34 20.7614 34 18C34 15.2386 29.5228 13 24 13C18.4772 13 14 15.2386 14 18C14 20.7614 18.4772 23 24 23Z" stroke="#031461" stroke-width="2"/>
<path d="M14 19V30C14 32.7614 18.4772 35 24 35C29.5228 35 34 32.7614 34 30V19" stroke="#031461" stroke-width="2" stroke-linecap="square" stroke-linejoin="round"/>
<path d="M24 23C29.5228 23 34 20.7614 34 18C34 15.2386 29.5228 13 24 13C18.4772 13 14 15.2386 14 18C14 20.7614 18.4772 23 24 23Z" stroke="#031461" stroke-width="2"/>
<path d="M20.5 23V35" stroke="#031461" stroke-width="2"/>
<path d="M27.5 23V35" stroke="#031461" stroke-width="2"/>
</g>
</svg>
