<svg width="48" height="49" viewBox="0 0 48 49" fill="none" xmlns="http://www.w3.org/2000/svg">
<mask id="mask0_263_16374" style="mask-type:alpha" maskUnits="userSpaceOnUse" x="0" y="0" width="48" height="49">
<rect y="0.300537" width="48" height="48" fill="#C4C4C4"/>
</mask>
<g mask="url(#mask0_263_16374)">
<path d="M40.5 13.0422L25.5 4.38198C24.5718 3.84608 23.4282 3.84608 22.5 4.38198L7.5 13.0422C6.5718 13.5781 6 14.5685 6 15.6403V32.9608C6 34.0326 6.5718 35.023 7.5 35.5589L22.5 44.2191C23.4282 44.755 24.5718 44.755 25.5 44.2191L40.5 35.5589C41.4282 35.023 42 34.0326 42 32.9608V15.6403C42 14.5685 41.4282 13.5781 40.5 13.0422Z" stroke="#031461" stroke-width="2"/>
<path fill-rule="evenodd" clip-rule="evenodd" d="M24 16.3005C27.866 16.3005 31 17.8675 31 19.8005C31 19.9704 30.9758 20.1375 30.929 20.301L31 20.3005V28.5505C31 30.6216 27.866 32.3005 24 32.3005C20.134 32.3005 17 30.6216 17 28.5505V20.3005L17.071 20.301C17.0242 20.1375 17 19.9704 17 19.8005C17 17.8675 20.134 16.3005 24 16.3005Z" fill="#FFDB00"/>
<path d="M14 24.3005C14 27.062 18.4772 29.3005 24 29.3005C29.5228 29.3005 34 27.062 34 24.3005" stroke="#031461" stroke-width="2" stroke-linecap="square"/>
<path d="M14 18.8005V30.3005C14 33.062 18.4772 35.3005 24 35.3005C29.5228 35.3005 34 33.062 34 30.3005V18.8005" stroke="#031461" stroke-width="2" stroke-linecap="round" stroke-linejoin="round"/>
<path d="M24 23.3005C29.5228 23.3005 34 21.062 34 18.3005C34 15.5391 29.5228 13.3005 24 13.3005C18.4772 13.3005 14 15.5391 14 18.3005C14 21.062 18.4772 23.3005 24 23.3005Z" stroke="#031461" stroke-width="2"/>
</g>
</svg>
