<svg width="48" height="49" viewBox="0 0 48 49" fill="none" xmlns="http://www.w3.org/2000/svg">
<mask id="mask0_263_16370" style="mask-type:alpha" maskUnits="userSpaceOnUse" x="0" y="0" width="48" height="49">
<rect y="0.300537" width="48" height="48" fill="#C4C4C4"/>
</mask>
<g mask="url(#mask0_263_16370)">
<path d="M40.5 13.042L25.5 4.38174C24.5718 3.84584 23.4282 3.84584 22.5 4.38174L7.5 13.042C6.5718 13.5779 6 14.5683 6 15.6401V32.9606C6 34.0324 6.5718 35.0228 7.50001 35.5587L22.5 44.2189C23.4282 44.7548 24.5718 44.7548 25.5 44.2189L40.5 35.5587C41.4282 35.0228 42 34.0324 42 32.9606V15.6401C42 14.5683 41.4282 13.5779 40.5 13.042Z" stroke="#031461" stroke-width="2"/>
<rect x="24" y="15.3005" width="12" height="12" rx="6" fill="#FFDB00"/>
<mask id="mask1_263_16370" style="mask-type:alpha" maskUnits="userSpaceOnUse" x="16" y="13" width="22" height="20">
<path d="M38 13.8005H16L16 20.8005H24.5V32.8005H38V13.8005Z" fill="#FFDB00"/>
</mask>
<g mask="url(#mask1_263_16370)">
<path d="M18.8202 22.3516L18.97 23.3403L19.7995 23.2146L19.8199 22.3758L18.8202 22.3516ZM31.2241 22.3005L30.2246 22.3329L30.256 23.3005H31.2241V22.3005ZM19.8199 22.3758C19.8882 19.5614 22.1917 17.3005 25.0229 17.3005V15.3005C21.1034 15.3005 17.9151 18.4302 17.8205 22.3273L19.8199 22.3758ZM25.0229 17.3005C27.8397 17.3005 30.1341 19.5386 30.2246 22.3329L32.2236 22.2682C32.0982 18.3985 28.9225 15.3005 25.0229 15.3005V17.3005ZM31.2241 23.3005H31.5V21.3005H31.2241V23.3005ZM31.5 23.3005C33.433 23.3005 35 24.8675 35 26.8005H37C37 23.763 34.5376 21.3005 31.5 21.3005V23.3005ZM35 26.8005C35 28.7335 33.433 30.3005 31.5 30.3005V32.3005C34.5376 32.3005 37 29.8381 37 26.8005H35ZM31.5 30.3005H19.5V32.3005H31.5V30.3005ZM19.5 30.3005C17.567 30.3005 16 28.7335 16 26.8005H14C14 29.8381 16.4624 32.3005 19.5 32.3005V30.3005ZM16 26.8005C16 25.0482 17.2888 23.595 18.97 23.3403L18.6704 21.3628C16.0262 21.7635 14 24.0445 14 26.8005H16Z" fill="#031461"/>
</g>
<path fill-rule="evenodd" clip-rule="evenodd" d="M14 23.3005C14 22.7483 14.4477 22.3005 15 22.3005H15.0114H15.0228H15.0342H15.0456H15.057H15.0683H15.0796H15.0909H15.1022H15.1134H15.1247H15.1359H15.1471H15.1583H15.1695H15.1806H15.1917H15.2028H15.2139H15.225H15.2361H15.2471H15.2581H15.2691H15.2801H15.2911H15.302H15.3129H15.3238H15.3347H15.3456H15.3565H15.3673H15.3782H15.389H15.3998H15.4105H15.4213H15.432H15.4428H15.4535H15.4642H15.4748H15.4855H15.4961H15.5068H15.5174H15.528H15.5385H15.5491H15.5597H15.5702H15.5807H15.5912H15.6017H15.6122H15.6226H15.6331H15.6435H15.6539H15.6643H15.6747H15.685H15.6954H15.7057H15.716H15.7263H15.7366H15.7469H15.7572H15.7674H15.7776H15.7879H15.7981H15.8083H15.8184H15.8286H15.8387H15.8489H15.859H15.8691H15.8792H15.8893H15.8994H15.9094H15.9195H15.9295H15.9395H15.9495H15.9595H15.9695H15.9794H15.9894H15.9993H16.0093H16.0192H16.0291H16.039H16.0489H16.0587H16.0686H16.0784H16.0883H16.0981H16.1079H16.1177H16.1275H16.1372H16.147H16.1567H16.1665H16.1762H16.1859H16.1956H16.2053H16.215H16.2247H16.2344H16.244H16.2537H16.2633H16.2729H16.2825H16.2921H16.3017H16.3113H16.3209H16.3304H16.34H16.3495H16.359H16.3686H16.3781H16.3876H16.3971H16.4066H16.416H16.4255H16.435H16.4444H16.4539H16.4633H16.4727H16.4821H16.4915H16.5009H16.5103H16.5197H16.5291H16.5384H16.5478H16.5571H16.5665H16.5758H16.5851H16.5944H16.6037H16.613H16.6223H16.6316H16.6409H16.6502H16.6594H16.6687H16.6779H16.6872H16.6964H16.7056H16.7149H16.7241H16.7333H16.7425H16.7517H16.7609H16.77H16.7792H16.7884H16.7976H16.8067H16.8159H16.825H16.8342H16.8433H16.8524H16.8615H16.8707H16.8798H16.8889H16.898H16.9071H16.9162H16.9253H16.9343H16.9434H16.9525H16.9616H16.9706H16.9797H16.9887H16.9978H17.0068H17.0159H17.0249H17.034H17.043H17.052H17.061H17.07H17.0791H17.0881H17.0971H17.1061H17.1151H17.1241H17.1331H17.1421H17.1511H17.16H17.169H17.178H17.187H17.196H17.2049H17.2139H17.2229H17.2318H17.2408H17.2497H17.2587H17.2677H17.2766H17.2856H17.2945H17.3035H17.3124H17.3213H17.3303H17.3392H17.3482H17.3571H17.366H17.375H17.3839H17.3928H17.4018H17.4107H17.4196H17.4286H17.4375H17.4464H17.4554H17.4643H17.4732H17.4821H17.4911H17.5H17.5089H17.5179H17.5268H17.5357H17.5446H17.5536H17.5625H17.5714H17.5804H17.5893H17.5982H17.6072H17.6161H17.625H17.634H17.6429H17.6518H17.6608H17.6697H17.6787H17.6876H17.6965H17.7055H17.7144H17.7234H17.7323H17.7413H17.7503H17.7592H17.7682H17.7771H17.7861H17.7951H17.804H17.813H17.822H17.831H17.84H17.8489H17.8579H17.8669H17.8759H17.8849H17.8939H17.9029H17.9119H17.9209H17.93H17.939H17.948H17.957H17.966H17.9751H17.9841H17.9932H18.0022H18.0113H18.0203H18.0294H18.0384H18.0475H18.0566H18.0657H18.0747H18.0838H18.0929H18.102H18.1111H18.1202H18.1293H18.1385H18.1476H18.1567H18.1658H18.175H18.1841H18.1933H18.2024H18.2116H18.2208H18.23H18.2391H18.2483H18.2575H18.2667H18.2759H18.2851H18.2944H18.3036H18.3128H18.3221H18.3313H18.3406H18.3498H18.3591H18.3684H18.3777H18.387H18.3963H18.4056H18.4149H18.4242H18.4335H18.4429H18.4522H18.4616H18.4709H18.4803H18.4897H18.4991H18.5085H18.5179H18.5273H18.5367H18.5461H18.5556H18.565H18.5745H18.584H18.5934H18.6029H18.6124H18.6219H18.6314H18.641H18.6505H18.66H18.6696H18.6791H18.6887H18.6983H18.7079H18.7175H18.7271H18.7367H18.7463H18.756H18.7656H18.7753H18.785H18.7947H18.8044H18.8141H18.8238H18.8335H18.8433H18.853H18.8628H18.8725H18.8823H18.8921H18.9019H18.9117H18.9216H18.9314H18.9413H18.9511H18.961H18.9709H18.9808H18.9907H19.0007H19.0106H19.0206H19.0305H19.0405H19.0505H19.0605H19.0705H19.0805H19.0906H19.1006H19.1107H19.1208H19.1309H19.141H19.1511H19.1613H19.1714H19.1816H19.1917H19.2019H19.2121H19.2224H19.2326H19.2428H19.2531H19.2634H19.2737H19.284H19.2943H19.3046H19.315H19.3253H19.3357H19.3461H19.3565H19.3669H19.3774H19.3878H19.3983H19.4088H19.4193H19.4298H19.4403H19.4509H19.4615H19.472H19.4826H19.4932H19.5039H19.5145H19.5252H19.5358H19.5465H19.5572H19.568H19.5787H19.5895H19.6002H19.611H19.6218H19.6327H19.6435H19.6544H19.6653H19.6762H19.6871H19.698H19.7089H19.7199H19.7309H19.7419H19.7529H19.7639H19.775H19.7861H19.7972H19.8083H19.8194H19.8305H19.8417H19.8529H19.8641H19.8753H19.8866H19.8978H19.9091H19.9204H19.9317H19.943H19.9544H19.9658H19.9772H19.9886H20C20.5523 22.3005 21 22.7483 21 23.3005C21 23.8528 20.5523 24.3005 20 24.3005H19.9886H19.9772H19.9658H19.9544H19.943H19.9317H19.9204H19.9091H19.8978H19.8866H19.8753H19.8641H19.8529H19.8417H19.8305H19.8194H19.8083H19.7972H19.7861H19.775H19.7639H19.7529H19.7419H19.7309H19.7199H19.7089H19.698H19.6871H19.6762H19.6653H19.6544H19.6435H19.6327H19.6218H19.611H19.6002H19.5895H19.5787H19.568H19.5572H19.5465H19.5358H19.5252H19.5145H19.5039H19.4932H19.4826H19.472H19.4615H19.4509H19.4403H19.4298H19.4193H19.4088H19.3983H19.3878H19.3774H19.3669H19.3565H19.3461H19.3357H19.3253H19.315H19.3046H19.2943H19.284H19.2737H19.2634H19.2531H19.2428H19.2326H19.2224H19.2121H19.2019H19.1917H19.1816H19.1714H19.1613H19.1511H19.141H19.1309H19.1208H19.1107H19.1006L19.0906 24.3005H19.0805H19.0705H19.0605H19.0505H19.0405H19.0305H19.0206H19.0106H19.0007H18.9907H18.9808H18.9709H18.961H18.9511H18.9413H18.9314H18.9216H18.9117H18.9019H18.8921H18.8823H18.8725H18.8628H18.853H18.8433H18.8335H18.8238H18.8141H18.8044H18.7947H18.785H18.7753H18.7656H18.756H18.7463H18.7367H18.7271H18.7175H18.7079H18.6983H18.6887H18.6791H18.6696H18.66H18.6505H18.641H18.6314H18.6219H18.6124H18.6029H18.5934H18.584H18.5745H18.565H18.5556H18.5461H18.5367H18.5273H18.5179H18.5085H18.4991H18.4897H18.4803H18.4709H18.4616H18.4522H18.4429H18.4335H18.4242H18.4149H18.4056H18.3963H18.387H18.3777H18.3684H18.3591H18.3498H18.3406H18.3313H18.3221H18.3128H18.3036H18.2944H18.2851H18.2759H18.2667H18.2575H18.2483H18.2391H18.23H18.2208H18.2116H18.2024H18.1933H18.1841H18.175H18.1658H18.1567H18.1476H18.1385H18.1293H18.1202H18.1111H18.102H18.0929H18.0838H18.0747H18.0657H18.0566H18.0475H18.0384H18.0294H18.0203H18.0113H18.0022H17.9932H17.9841H17.9751H17.966H17.957H17.948H17.939H17.93H17.9209H17.9119H17.9029H17.8939H17.8849H17.8759H17.8669H17.8579H17.8489H17.84H17.831H17.822H17.813H17.804H17.7951H17.7861H17.7771H17.7682H17.7592H17.7503H17.7413H17.7323H17.7234H17.7144H17.7055H17.6965H17.6876H17.6787H17.6697H17.6608H17.6518H17.6429H17.634H17.625H17.6161H17.6072H17.5982H17.5893H17.5804H17.5714H17.5625H17.5536H17.5446H17.5357H17.5268H17.5179H17.5089H17.5H17.4911H17.4821H17.4732H17.4643H17.4554H17.4464H17.4375H17.4286H17.4196H17.4107H17.4018H17.3928H17.3839H17.375H17.366H17.3571H17.3482H17.3392H17.3303H17.3213H17.3124H17.3035H17.2945H17.2856H17.2766H17.2677H17.2587H17.2497H17.2408H17.2318H17.2229H17.2139H17.2049H17.196H17.187H17.178H17.169H17.16H17.1511H17.1421H17.1331H17.1241H17.1151H17.1061H17.0971H17.0881H17.0791H17.07H17.061H17.052H17.043H17.034H17.0249H17.0159H17.0068H16.9978H16.9887H16.9797H16.9706H16.9616H16.9525H16.9434H16.9343H16.9253H16.9162H16.9071H16.898H16.8889H16.8798H16.8707H16.8615H16.8524H16.8433H16.8342H16.825H16.8159H16.8067H16.7976H16.7884H16.7792H16.77H16.7609H16.7517H16.7425H16.7333H16.7241H16.7149H16.7056H16.6964H16.6872H16.6779H16.6687H16.6594H16.6502H16.6409H16.6316H16.6223H16.613H16.6037H16.5944H16.5851H16.5758H16.5665H16.5571H16.5478H16.5384H16.5291H16.5197H16.5103H16.5009H16.4915H16.4821H16.4727H16.4633H16.4539H16.4444H16.435H16.4255H16.416H16.4066H16.3971H16.3876H16.3781H16.3686L16.359 24.3005H16.3495H16.34H16.3304H16.3209H16.3113H16.3017H16.2921H16.2825H16.2729H16.2633H16.2537H16.244H16.2344H16.2247H16.215H16.2053H16.1956H16.1859H16.1762H16.1665H16.1567H16.147H16.1372H16.1275H16.1177H16.1079H16.0981H16.0883H16.0784H16.0686H16.0587H16.0489H16.039H16.0291H16.0192H16.0093H15.9993H15.9894H15.9794H15.9695H15.9595H15.9495H15.9395H15.9295H15.9195H15.9094H15.8994H15.8893H15.8792H15.8691H15.859H15.8489H15.8387H15.8286H15.8184H15.8083H15.7981H15.7879H15.7776H15.7674H15.7572H15.7469H15.7366H15.7263H15.716H15.7057H15.6954H15.685H15.6747H15.6643H15.6539H15.6435H15.6331H15.6226H15.6122H15.6017H15.5912H15.5807H15.5702H15.5597H15.5491H15.5385H15.528H15.5174H15.5068H15.4961H15.4855H15.4748H15.4642H15.4535H15.4428H15.432H15.4213H15.4105H15.3998H15.389H15.3782H15.3673H15.3565H15.3456H15.3347H15.3238H15.3129H15.302H15.2911H15.2801H15.2691H15.2581H15.2471H15.2361H15.225H15.2139H15.2028H15.1917H15.1806H15.1695H15.1583H15.1471H15.1359H15.1247H15.1134H15.1022H15.0909H15.0796H15.0683H15.057H15.0456H15.0342H15.0228H15.0114H15C14.4477 24.3005 14 23.8528 14 23.3005ZM11 27.3005C11 26.7483 11.4477 26.3005 12 26.3005H18C18.5523 26.3005 19 26.7483 19 27.3005C19 27.8528 18.5523 28.3005 18 28.3005H12C11.4477 28.3005 11 27.8528 11 27.3005ZM15 30.3005C14.4477 30.3005 14 30.7483 14 31.3005C14 31.8528 14.4477 32.3005 15 32.3005H20C20.5523 32.3005 21 31.8528 21 31.3005C21 30.7483 20.5523 30.3005 20 30.3005H15Z" fill="#031461"/>
<path d="M23 31.3005L29 31.3005" stroke="#031461" stroke-width="2" stroke-linecap="round"/>
</g>
</svg>
