<svg width="48" height="49" viewBox="0 0 48 49" fill="none" xmlns="http://www.w3.org/2000/svg">
<mask id="mask0_263_16371" style="mask-type:alpha" maskUnits="userSpaceOnUse" x="0" y="0" width="48" height="49">
<rect y="0.300537" width="48" height="48" fill="#C4C4C4"/>
</mask>
<g mask="url(#mask0_263_16371)">
<path d="M40.5 13.0423L25.5 4.38198C24.5718 3.84608 23.4282 3.84608 22.5 4.38198L7.5 13.0423C6.5718 13.5782 6 14.5685 6 15.6403V32.9608C6 34.0326 6.5718 35.023 7.50001 35.5589L22.5 44.2191C23.4282 44.755 24.5718 44.755 25.5 44.2191L40.5 35.5589C41.4282 35.023 42 34.0326 42 32.9608V15.6403C42 14.5685 41.4282 13.5782 40.5 13.0423Z" stroke="#031461" stroke-width="2"/>
<path d="M24 32.3005C28.4183 32.3005 32 28.7188 32 24.3005C32 19.8823 28.4183 16.3005 24 16.3005C19.5817 16.3005 16 19.8823 16 24.3005C16 28.7188 19.5817 32.3005 24 32.3005Z" fill="#FFDB00"/>
<path d="M24.2544 36.3005C21.8059 36.3005 19.9221 33.4138 19.0817 29.3011L21.1365 29.3019C21.8196 32.3039 23.057 34.3005 24.2544 34.3005C25.4518 34.3005 26.6892 32.3038 27.3722 29.3017L29.427 29.3011C28.5866 33.4137 26.7029 36.3005 24.2544 36.3005ZM33 23.8005H35V25.8005H33V23.8005ZM15 25.8005H12V23.8005H15V25.8005ZM24.2544 12.3005C26.897 12.3005 28.8818 15.6633 29.607 20.3006L27.5725 20.301C26.9719 16.8431 25.6524 14.4304 24.3593 14.3056L24.2544 14.3005C22.9305 14.3005 21.5578 16.7411 20.9394 20.2826L20.936 20.3005L18.9017 20.3006C19.6269 15.6633 21.6117 12.3005 24.2544 12.3005Z" fill="#031461"/>
<path fill-rule="evenodd" clip-rule="evenodd" d="M24.0001 36.3005C30.6274 36.3005 36 30.9279 36 24.3005C36 17.6732 30.6274 12.3005 24.0001 12.3005C17.3726 12.3005 12 17.6732 12 24.3005C12 30.9279 17.3726 36.3005 24.0001 36.3005Z" stroke="#031461" stroke-width="2" stroke-linejoin="round"/>
<path d="M16.543 27.3005H18.8025C20.4028 27.3005 21.3477 26.3118 21.3477 24.6199V24.6125C21.3477 22.9243 20.4028 22.0161 18.8025 22.0161H16.543V27.3005ZM18.0957 26.0664V23.2502H18.5828C19.3225 23.2502 19.7656 23.7263 19.7656 24.6125V24.6199C19.7656 25.594 19.3591 26.0664 18.5828 26.0664H18.0957Z" fill="#031461"/>
<path d="M21.9556 27.3005H23.5083V24.554H23.5339L25.4163 27.3005H26.6943V22.0161H25.1416V24.7188H25.116L23.2483 22.0161H21.9556V27.3005Z" fill="#031461"/>
<path d="M29.5581 27.3958C31.0156 27.3958 31.8652 26.7036 31.8652 25.6123V25.6086C31.8652 24.7517 31.3269 24.2903 30.1953 24.0852L29.6643 23.99C29.137 23.8948 28.9099 23.7812 28.9099 23.5432V23.5396C28.9099 23.2979 29.1296 23.1111 29.5581 23.1111C29.9829 23.1111 30.2905 23.2942 30.3198 23.5835L30.3235 23.6201H31.7517L31.748 23.5396C31.7041 22.5508 30.9534 21.9209 29.5398 21.9209C28.2874 21.9209 27.3718 22.5911 27.3718 23.6531V23.6567C27.3718 24.4771 27.9468 25.0081 28.9978 25.1948L29.5288 25.29C30.1147 25.3962 30.3271 25.4988 30.3271 25.7478V25.7515C30.3271 26.0151 30.0415 26.2056 29.5764 26.2056C29.137 26.2056 28.7781 26.0151 28.7158 25.7295L28.7085 25.6965H27.2803L27.2839 25.7661C27.3389 26.8098 28.1885 27.3958 29.5581 27.3958Z" fill="#031461"/>
</g>
</svg>
