<svg width="48" height="49" viewBox="0 0 48 49" fill="none" xmlns="http://www.w3.org/2000/svg">
<mask id="mask0_263_16369" style="mask-type:alpha" maskUnits="userSpaceOnUse" x="0" y="0" width="48" height="49">
<rect y="0.300537" width="48" height="48" fill="#C4C4C4"/>
</mask>
<g mask="url(#mask0_263_16369)">
<path d="M40.5 13.0423L25.5 4.38198C24.5718 3.84608 23.4282 3.84608 22.5 4.38198L7.49999 13.0423C6.57179 13.5782 6 14.5686 6 15.6404V32.9609C6 34.0326 6.5718 35.023 7.50001 35.5589L22.5 44.2191C23.4282 44.755 24.5718 44.755 25.5 44.2191L40.5 35.5589C41.4282 35.023 42 34.0326 42 32.9608V15.6404C42 14.5686 41.4282 13.5782 40.5 13.0423Z" stroke="#031461" stroke-width="2"/>
<path d="M32.999 16.3005H15V32.3005H32.999V16.3005Z" fill="#FFDB00"/>
<path d="M19 24.3005L29 31.3005" stroke="#031461" stroke-width="2"/>
<path d="M19 24.3005L29 17.3005" stroke="#031461" stroke-width="2"/>
<path fill-rule="evenodd" clip-rule="evenodd" d="M19 21.8005H14V26.8005H19V21.8005Z" fill="#031461" stroke="#031461" stroke-width="2"/>
<path fill-rule="evenodd" clip-rule="evenodd" d="M34 15.3005H29V20.3005H34V15.3005Z" stroke="#031461" stroke-width="2"/>
<path fill-rule="evenodd" clip-rule="evenodd" d="M34 28.3005H29V33.3005H34V28.3005Z" stroke="#031461" stroke-width="2"/>
</g>
</svg>
