<svg width="48" height="49" viewBox="0 0 48 49" fill="none" xmlns="http://www.w3.org/2000/svg">
<mask id="mask0_263_16368" style="mask-type:alpha" maskUnits="userSpaceOnUse" x="0" y="0" width="48" height="49">
<rect y="0.300537" width="48" height="48" fill="#C4C4C4"/>
</mask>
<g mask="url(#mask0_263_16368)">
<path d="M40.5 13.0422L25.5 4.38198C24.5718 3.84608 23.4282 3.84608 22.5 4.38198L7.5 13.0422C6.5718 13.5781 6 14.5685 6 15.6403V32.9608C6 34.0326 6.5718 35.023 7.5 35.5589L22.5 44.2191C23.4282 44.755 24.5718 44.755 25.5 44.2191L40.5 35.5589C41.4282 35.023 42 34.0326 42 32.9608V15.6403C42 14.5685 41.4282 13.5781 40.5 13.0422Z" stroke="#031461" stroke-width="2"/>
<path fill-rule="evenodd" clip-rule="evenodd" d="M32 24.3005C32 19.8823 28.4183 16.3005 24 16.3005C19.5817 16.3005 16 19.8823 16 24.3005C16 28.7188 19.5817 32.3005 24 32.3005C28.4183 32.3005 32 28.7188 32 24.3005ZM20.5712 27.7293C22.4649 29.6229 25.5351 29.6229 27.4287 27.7293C29.3223 25.8356 29.3223 22.7654 27.4287 20.8718C25.5351 18.9782 22.4649 18.9782 20.5712 20.8718C18.6776 22.7654 18.6776 25.8356 20.5712 27.7293Z" fill="#FFDB00"/>
<path fill-rule="evenodd" clip-rule="evenodd" d="M24.9923 12.6422C25.4479 13.0979 25.4479 13.8366 24.9923 14.2922C24.5367 14.7478 23.798 14.7478 23.3424 14.2922C22.8868 13.8366 22.8868 13.0979 23.3424 12.6422C23.798 12.1866 24.5367 12.1866 24.9923 12.6422ZM26.4065 15.7064C26.6422 15.4707 26.833 15.207 26.9789 14.9261C30.1105 15.9199 32.5628 18.4394 33.4627 21.6116C33.1487 21.7623 32.8544 21.9678 32.5942 22.228C32.2783 22.544 32.043 22.91 31.8885 23.3006L29.5064 23.3006C29.3107 22.2173 28.7942 21.1806 27.9568 20.3433C27.1196 19.5061 26.0831 18.9896 25 18.7938V16.523C25.5152 16.3831 26.002 16.1109 26.4065 15.7064ZM31.828 25.4673L29.4737 25.4673C29.2567 26.4899 28.7511 27.4635 27.9568 28.2578C27.1625 29.0521 26.1888 29.5578 25.166 29.7747V32.1892C25.5566 32.3437 25.9226 32.5789 26.2385 32.8948C26.4868 33.143 26.6852 33.4222 26.8338 33.72C29.9381 32.7879 32.3966 30.3631 33.3756 27.2794C33.0943 27.1334 32.8302 26.9424 32.5942 26.7064C32.2337 26.3459 31.9784 25.9202 31.828 25.4673ZM35.3723 27.5879C34.232 31.5393 31.0879 34.6409 27.1114 35.7211C26.9978 36.3263 26.7068 36.9048 26.2385 37.3731C25.0019 38.6098 22.9969 38.6098 21.7602 37.3731C21.2916 36.9045 21.0005 36.3255 20.8871 35.7199C16.9129 34.6385 13.7709 31.538 12.6309 27.5884C12.0073 27.4817 11.4095 27.1877 10.9282 26.7064C9.69151 25.4697 9.69151 23.4647 10.9282 22.228C11.3849 21.7713 11.9465 21.4832 12.5355 21.3639C13.6017 17.1884 16.8887 13.9013 21.0641 12.8348C21.1835 12.246 21.4716 11.6846 21.9282 11.228C23.1648 9.99137 25.1699 9.99137 26.4065 11.228C26.8876 11.7091 27.1816 12.3066 27.2883 12.9298C31.2972 14.0865 34.4315 17.3059 35.4677 21.3644C36.0558 21.484 36.6164 21.7719 37.0725 22.228C38.3092 23.4647 38.3092 25.4697 37.0725 26.7064C36.5918 27.1871 35.995 27.481 35.3723 27.5879ZM21.3125 14.8395C18.0432 15.7669 15.4672 18.3432 14.5401 21.6126C14.8533 21.7632 15.1468 21.9684 15.4065 22.228C15.7224 22.544 15.9576 22.91 16.1122 23.3006L18.4927 23.3006C18.6884 22.2173 19.205 21.1806 20.0423 20.3433C20.8798 19.5058 21.9166 18.9893 23 18.7936V16.4117C22.6097 16.2572 22.2439 16.0221 21.9282 15.7064C21.6684 15.4466 21.4632 15.1529 21.3125 14.8395ZM21.1655 33.7189C18.0626 32.7858 15.6055 30.3613 14.6271 27.2783C14.9077 27.1325 15.171 26.9419 15.4065 26.7064C15.7669 26.3459 16.0223 25.9202 16.1727 25.4673H18.5255C18.7424 26.4899 19.2481 27.4635 20.0423 28.2578C20.8796 29.0951 21.9162 29.6116 22.9994 29.8073V32.1286C22.5464 32.2789 22.1207 32.5343 21.7602 32.8948C21.5123 33.1427 21.314 33.4215 21.1655 33.7189ZM23.1744 34.309C23.255 34.2284 23.3445 34.162 23.4397 34.11H24.5591C24.6542 34.162 24.7437 34.2284 24.8243 34.309C25.2799 34.7646 25.2799 35.5033 24.8243 35.9589C24.3687 36.4145 23.63 36.4145 23.1744 35.9589C22.7188 35.5033 22.7188 34.7646 23.1744 34.309ZM26.5426 21.7575C27.9471 23.162 27.9471 25.4391 26.5426 26.8436C25.1381 28.2481 22.861 28.2481 21.4565 26.8436C20.0521 25.4391 20.0521 23.162 21.4565 21.7575C22.861 20.353 25.1381 20.353 26.5426 21.7575ZM13.9923 23.6422C14.4479 24.0979 14.4479 24.8365 13.9923 25.2922C13.5367 25.7478 12.798 25.7478 12.3424 25.2922C11.8868 24.8365 11.8868 24.0979 12.3424 23.6422C12.798 23.1866 13.5367 23.1866 13.9923 23.6422ZM35.6583 23.6422C36.1139 24.0979 36.1139 24.8365 35.6583 25.2922C35.2027 25.7478 34.464 25.7478 34.0084 25.2922C33.5528 24.8365 33.5528 24.0979 34.0084 23.6422C34.464 23.1866 35.2027 23.1866 35.6583 23.6422Z" fill="#031461"/>
</g>
</svg>
