<svg width="48" height="49" viewBox="0 0 48 49" fill="none" xmlns="http://www.w3.org/2000/svg">
<mask id="mask0_263_16367" style="mask-type:alpha" maskUnits="userSpaceOnUse" x="0" y="0" width="48" height="49">
<rect y="0.300537" width="48" height="48" fill="#C4C4C4"/>
</mask>
<g mask="url(#mask0_263_16367)">
<path d="M40.5 13.0422L25.5 4.38198C24.5718 3.84608 23.4282 3.84608 22.5 4.38198L7.5 13.0422C6.5718 13.5781 6 14.5685 6 15.6403V32.9608C6 34.0326 6.5718 35.023 7.5 35.5589L22.5 44.2191C23.4282 44.755 24.5718 44.755 25.5 44.2191L40.5 35.5589C41.4282 35.023 42 34.0326 42 32.9608V15.6403C42 14.5685 41.4282 13.5781 40.5 13.0422Z" stroke="#031461" stroke-width="2"/>
<path d="M24 33.3005C28.9706 33.3005 33 29.2711 33 24.3005C33 19.33 28.9706 15.3005 24 15.3005C19.0294 15.3005 15 19.33 15 24.3005C15 29.2711 19.0294 33.3005 24 33.3005Z" fill="#FFDB00"/>
<path d="M24 11.3005C29.468 11.3005 34.1475 14.6764 36.068 19.4576C35.963 19.4485 35.8571 19.4443 35.7503 19.4443C35.1422 19.4443 34.5658 19.58 34.0497 19.8228C33.4357 18.4451 32.5459 17.217 31.4509 16.2083L31.2346 16.2301C29.2718 16.4507 27.4321 16.9858 25.8098 17.8199C27.0293 18.8343 28.0731 20.0536 28.8911 21.4705C29.6692 22.8181 30.1903 24.2531 30.4716 25.7355C30.9783 25.4151 31.4689 25.058 31.9412 24.6667C32.1509 25.324 32.528 25.9086 33.022 26.3695C32.2907 26.9586 31.5191 27.4775 30.7137 27.9187C30.7789 29.7946 30.4906 31.7132 29.8808 33.5984C32.147 32.1622 33.8523 29.9197 34.5934 27.2742C34.9586 27.3848 35.3475 27.4443 35.7503 27.4443C36.0565 27.4443 36.3547 27.4099 36.6412 27.3448C35.6612 31.4315 32.75 34.7677 28.9265 36.3346L28.6569 36.4416C27.8118 36.7659 26.9242 37.0046 26.0048 37.1469L26.0058 37.1462L25.8134 37.1751C25.2208 37.2578 24.6154 37.3005 24 37.3005C23.3846 37.3005 22.7792 37.2578 22.1866 37.1751L21.9952 37.1469L21.7559 37.1067C22.2207 36.5835 22.5504 35.9375 22.6901 35.2235C23.1195 35.2743 23.5567 35.3005 24 35.3005C25.1385 35.3005 26.2367 35.1276 27.2696 34.8065C28.161 32.8391 28.656 30.8072 28.7127 28.8267C27.2374 29.3642 25.675 29.6525 24.0557 29.6525C22.3953 29.6525 20.7948 29.3494 19.2863 28.7854L19.2881 28.8527C19.3049 29.4017 19.3553 29.9546 19.4384 30.5089C19.2203 30.4704 18.9948 30.451 18.7646 30.451C18.3001 30.451 17.8541 30.5302 17.4393 30.6758C17.3038 29.7323 17.2526 28.7898 17.2889 27.8579C15.8569 27.0583 14.5333 26.0121 13.3513 24.7629L13.001 24.3825L13.0053 24.6445C13.0886 27.3587 14.1553 29.8255 15.861 31.7005C15.3787 32.2086 15.0288 32.8441 14.8663 33.5511C12.4796 31.1949 11 27.9205 11 24.3005C11 22.1574 11.5186 20.1355 12.4371 18.3532C12.9092 18.8304 13.4999 19.1879 14.1611 19.3793C13.8084 20.0796 13.5292 20.8251 13.333 21.6036C14.5304 23.2677 15.9556 24.6511 17.5415 25.6731C17.8248 24.2118 18.342 22.7987 19.1089 21.4705C19.9268 20.0538 20.9704 18.8347 22.1894 17.8193C21.2336 17.328 20.2024 16.9404 19.1149 16.6598C19.2196 16.3044 19.2755 15.927 19.2755 15.5366C19.2755 15.2193 19.2386 14.9107 19.1688 14.6147L18.8977 14.5529C20.7418 14.949 22.466 15.6125 23.9999 16.5347C25.5338 15.6124 27.2581 14.9488 29.1022 14.5527C27.5773 13.753 25.8415 13.3005 24 13.3005C22.2482 13.3005 20.592 13.71 19.122 14.4386C18.9349 13.7775 18.5801 13.1853 18.1069 12.7111C19.8742 11.8091 21.8777 11.3005 24 11.3005ZM24.0002 18.9439L23.881 19.0332C22.6571 19.9657 21.6237 21.1147 20.8409 22.4705C20.0838 23.7818 19.6114 25.1996 19.4043 26.672C20.8687 27.3084 22.4334 27.6525 24.0557 27.6525C25.639 27.6525 27.1673 27.3248 28.6007 26.7181C28.3984 25.229 27.9241 23.7955 27.1591 22.4705C26.3511 21.0711 25.2761 19.8919 24.0002 18.9439Z" fill="#031461"/>
<path d="M15.2949 17.4807C16.3995 17.4807 17.2949 16.5853 17.2949 15.4807C17.2949 14.3761 16.3995 13.4807 15.2949 13.4807C14.1904 13.4807 13.2949 14.3761 13.2949 15.4807C13.2949 16.5853 14.1904 17.4807 15.2949 17.4807Z" fill="#031461"/>
<path d="M18.7656 36.4509C19.8702 36.4509 20.7656 35.5555 20.7656 34.4509C20.7656 33.3464 19.8702 32.4509 18.7656 32.4509C17.6611 32.4509 16.7656 33.3464 16.7656 34.4509C16.7656 35.5555 17.6611 36.4509 18.7656 36.4509Z" fill="#031461"/>
<path d="M35.75 25.4443C36.8546 25.4443 37.75 24.5489 37.75 23.4443C37.75 22.3398 36.8546 21.4443 35.75 21.4443C34.6454 21.4443 33.75 22.3398 33.75 23.4443C33.75 24.5489 34.6454 25.4443 35.75 25.4443Z" fill="#031461"/>
</g>
</svg>
