<svg width="48" height="49" viewBox="0 0 48 49" fill="none" xmlns="http://www.w3.org/2000/svg">
<mask id="mask0_263_16393" style="mask-type:alpha" maskUnits="userSpaceOnUse" x="0" y="0" width="48" height="49">
<rect y="0.699219" width="48" height="48" fill="#C4C4C4"/>
</mask>
<g mask="url(#mask0_263_16393)">
<path d="M40.5 13.4409L25.5 4.78066C24.5718 4.24476 23.4282 4.24476 22.5 4.78066L7.5 13.4409C6.5718 13.9768 6 14.9672 6 16.039V33.3595C6 34.4313 6.5718 35.4217 7.50001 35.9576L22.5 44.6178C23.4282 45.1537 24.5718 45.1537 25.5 44.6178L40.5 35.9576C41.4282 35.4217 42 34.4313 42 33.3595V16.039C42 14.9672 41.4282 13.9768 40.5 13.4409Z" stroke="#031461" stroke-width="2"/>
<path d="M30 26.6992C33.3137 26.6992 36 24.0129 36 20.6992C36 17.3855 33.3137 14.6992 30 14.6992C26.6863 14.6992 24 17.3855 24 20.6992C24 24.0129 26.6863 26.6992 30 26.6992Z" fill="#FFDB00"/>
<path fill-rule="evenodd" clip-rule="evenodd" d="M23.5 16.6992C23.3173 16.6992 23.1367 16.7081 22.9585 16.7255C20.2865 16.9867 18.1749 19.1601 18.011 21.8573L18.0062 21.9351C18.0021 22.0226 18 22.1107 18 22.1992H17.9902L17.9643 22.6259L17.2092 22.7771C15.3787 23.1438 14 24.7616 14 26.6992C14 28.9083 15.7909 30.6992 18 30.6992H24V32.6992H18C14.6863 32.6992 12 30.0129 12 26.6992C12 24.0511 13.7147 21.8053 16.094 21.0086C16.3065 19.676 16.8701 18.4604 17.6869 17.4598C19.0621 15.775 21.1553 14.6992 23.5 14.6992C26.3781 14.6992 28.8775 16.3203 30.135 18.6992H27.7429C26.7341 17.4777 25.208 16.6992 23.5 16.6992Z" fill="#031461"/>
<path fill-rule="evenodd" clip-rule="evenodd" d="M25 33.6992L25 21.6992L35 21.6992L35 33.6992L25 33.6992Z" stroke="#031461" stroke-width="2"/>
<path d="M29 22.6992L29 32.6992L31 32.6992L31 22.6992L29 22.6992Z" fill="#031461"/>
<path d="M27 28.6992L27 30.6992L29 30.6992L29 28.6992L27 28.6992Z" fill="#031461"/>
<path d="M27 24.6992L27 26.6992L29 26.6992L29 24.6992L27 24.6992Z" fill="#031461"/>
<path d="M32 28.6992L32 30.6992L34 30.6992L34 28.6992L32 28.6992Z" fill="#031461"/>
<path d="M32 24.6992L32 26.6992L34 26.6992L34 24.6992L32 24.6992Z" fill="#031461"/>
</g>
</svg>
