<svg width="49" height="49" viewBox="0 0 49 49" fill="none" xmlns="http://www.w3.org/2000/svg">
<path d="M32.9033 16.3005H16.9033V32.3005H32.9033V16.3005Z" fill="#FFDB00"/>
<path d="M13.9033 13.3005L22.9033 13.3005L22.9033 22.3005H13.9033L13.9033 13.3005Z" stroke="#031461" stroke-width="2"/>
<path d="M13.9033 26.3005L22.9033 26.3005L22.9033 35.3005H13.9033L13.9033 26.3005Z" stroke="#031461" stroke-width="2"/>
<path d="M26.9033 26.3005L35.9033 26.3005V35.3005H26.9033V26.3005Z" stroke="#031461" stroke-width="2"/>
<path d="M31.4033 22.3005C33.8886 22.3005 35.9033 20.2858 35.9033 17.8005C35.9033 15.3153 33.8886 13.3005 31.4033 13.3005C28.918 13.3005 26.9033 15.3153 26.9033 17.8005C26.9033 20.2858 28.918 22.3005 31.4033 22.3005Z" stroke="#031461" stroke-width="2"/>
<rect x="8.90332" y="8.30054" width="32" height="32" rx="1" stroke="#031461" stroke-width="2"/>
</svg>
