<svg width="49" height="49" viewBox="0 0 49 49" fill="none" xmlns="http://www.w3.org/2000/svg">
<path fill-rule="evenodd" clip-rule="evenodd" d="M10.9033 7.30078H9.90332V8.30078V36.3008V38.1693L11.458 37.1328L16.8496 33.5384L21.2786 37.0816L21.9033 37.5814L22.528 37.0816L26.9033 33.5814L28.2059 34.6235C28.0085 33.8825 27.9033 33.1039 27.9033 32.3008C27.9033 32.1428 27.9074 31.9858 27.9154 31.8298L27.528 31.5199L26.9033 31.0202L26.2786 31.5199L21.9033 35.0202L17.528 31.5199L16.957 31.0631L16.3486 31.4687L11.9033 34.4323V9.30078H35.9033V23.3557C36.2317 23.3194 36.5653 23.3008 36.9033 23.3008C37.2413 23.3008 37.575 23.3194 37.9033 23.3557V8.30078V7.30078H36.9033H10.9033Z" fill="#031461"/>
<path fill-rule="evenodd" clip-rule="evenodd" d="M13.9033 11.3008H33.9033V23.8129C31.6895 24.5954 29.8732 26.2195 28.8388 28.3008H13.9033V11.3008Z" fill="#FFDB00"/>
<path d="M19.9033 14.3008H31.9033" stroke="#031461" stroke-width="2"/>
<rect x="15.9033" y="13.3008" width="2" height="2" fill="#031461"/>
<path d="M19.9033 18.3008H31.9033" stroke="#031461" stroke-width="2"/>
<rect x="15.9033" y="17.3008" width="2" height="2" fill="#031461"/>
<path d="M19.9033 22.3008H27.9033" stroke="#031461" stroke-width="2"/>
<rect x="15.9033" y="21.3008" width="2" height="2" fill="#031461"/>
<circle cx="36.9033" cy="32.3008" r="9" stroke="#031461" stroke-width="2"/>
<path d="M41.9033 29.3008L35.5397 35.3008L31.9033 31.3008" stroke="#031461" stroke-width="2"/>
</svg>
