<svg width="49" height="48" viewBox="0 0 49 48" fill="none" xmlns="http://www.w3.org/2000/svg">
<rect x="13" y="18" width="22" height="16" fill="#FFDB00"/>
<path d="M38 13H10C8.89543 13 8 13.8954 8 15V37C8 38.1046 8.89543 39 10 39H38C39.1046 39 40 38.1046 40 37V15C40 13.8954 39.1046 13 38 13Z" stroke="#031461" stroke-width="2"/>
<path d="M38 13H10C8.89543 13 8 13.8954 8 15V22C8 23.1046 8.89543 24 10 24H38C39.1046 24 40 23.1046 40 22V15C40 13.8954 39.1046 13 38 13Z" stroke="#031461" stroke-width="2"/>
<path d="M29 8H19C17.8954 8 17 8.89543 17 10V13H31V10C31 8.89543 30.1046 8 29 8Z" stroke="#031461" stroke-width="2"/>
<path d="M27 24H21V28C21 29.1046 21.8954 30 23 30H25C26.1046 30 27 29.1046 27 28V24Z" stroke="#031461" stroke-width="2"/>
</svg>
