<svg width="49" height="49" viewBox="0 0 49 49" fill="none" xmlns="http://www.w3.org/2000/svg">
<rect x="6.90332" y="21.3005" width="36" height="20" rx="2" stroke="#031461" stroke-width="2"/>
<rect x="9.90332" y="24.3005" width="30" height="14" fill="#FFDB00"/>
<rect x="11.9033" y="26.3005" width="2" height="10" fill="#031461"/>
<rect x="17.9033" y="26.3005" width="2" height="10" fill="#031461"/>
<rect x="23.9033" y="26.3005" width="2" height="10" fill="#031461"/>
<rect x="29.9033" y="26.3005" width="2" height="10" fill="#031461"/>
<rect x="35.9033" y="26.3005" width="2" height="10" fill="#031461"/>
<path d="M40.9033 21.3005L25.3505 13.5241C25.069 13.3834 24.7376 13.3834 24.4561 13.5241L8.90332 21.3005" stroke="#031461" stroke-width="2"/>
<path d="M21.9033 10.3005C21.9033 11.9574 23.2465 13.3005 24.9033 13.3005C26.5602 13.3005 27.9033 11.9574 27.9033 10.3005C27.9033 8.64368 26.5602 7.30054 24.9033 7.30054V3.30054" stroke="#031461" stroke-width="2"/>
</svg>
