<svg width="49" height="49" viewBox="0 0 49 49" fill="none" xmlns="http://www.w3.org/2000/svg">
<path fill-rule="evenodd" clip-rule="evenodd" d="M24.3975 34.972C22.7513 35.8212 20.8833 36.3008 18.9033 36.3008C12.2759 36.3008 6.90332 30.9282 6.90332 24.3008C6.90332 17.6734 12.2759 12.3008 18.9033 12.3008C25.5307 12.3008 30.9033 17.6734 30.9033 24.3008C30.9033 25.3367 30.7721 26.3419 30.5253 27.3008H26.5485L24.3975 34.972Z" fill="#FFDB00"/>
<path d="M19.1533 21.457C22.536 21.457 25.2783 18.7147 25.2783 15.332C25.2783 11.9493 22.536 9.20703 19.1533 9.20703C15.7706 9.20703 13.0283 11.9493 13.0283 15.332C13.0283 18.7147 15.7706 21.457 19.1533 21.457Z" stroke="#031461" stroke-width="2" stroke-linejoin="round"/>
<path fill-rule="evenodd" clip-rule="evenodd" d="M13.4979 27.2695C17.0134 25.3998 21.2931 25.3998 24.8087 27.2695C25.3348 27.5492 25.83 27.8667 26.2916 28.2172L26.5485 27.3009H28.3189C27.5514 26.6104 26.6901 26.0048 25.7478 25.5036C21.6451 23.3217 16.6615 23.3217 12.5587 25.5036C8.46593 27.6803 5.90332 31.8263 5.90332 36.3515H7.90332C7.90332 32.5969 10.0299 29.1138 13.4979 27.2695Z" fill="#031461"/>
<path d="M26.5485 27.3008H45.9033L42.2582 40.3008H22.9033L26.5485 27.3008Z" stroke="#031461" stroke-width="2" stroke-linejoin="round"/>
<path d="M35.5555 30.1958L33.7497 37.4061" stroke="#031461" stroke-width="2"/>
<path d="M31.9033 30.8008L28.9033 33.8008L31.9033 36.8008" stroke="#031461" stroke-width="2"/>
<path d="M37.4033 36.8008L40.4033 33.8008L37.4033 30.8008" stroke="#031461" stroke-width="2"/>
<line x1="23.9033" y1="40.3008" x2="5.90332" y2="40.3008" stroke="#031461" stroke-width="2"/>
</svg>
