<svg width="49" height="49" viewBox="0 0 49 49" fill="none" xmlns="http://www.w3.org/2000/svg">
<path fill-rule="evenodd" clip-rule="evenodd" d="M14.9461 16.3386C15.9688 12.302 19.6599 9.30078 24.0642 9.30078C29.2626 9.30078 33.4644 13.4797 33.4644 18.6186V18.6188V18.619V18.6192V18.6194V18.6196V18.6198V18.6199V18.6201V18.6203V18.6205V18.6207V18.6209V18.6211V18.6213V18.6214V18.6216V18.6218V18.622V18.6222V18.6224V18.6226V18.6228V18.6229V18.6231V18.6233V18.6235V18.6237V18.6239V18.6241V18.6243V18.6244V18.6246V18.6248V18.625V18.6252V18.6254V18.6256V18.6258V18.6259V18.6261V18.6263V18.6265V18.6267V18.6269V18.6271V18.6273V18.6274V18.6276V18.6278V18.628V18.6282V18.6284V18.6286V18.6287V18.6289V18.6291V18.6293V18.6295V18.6297V18.6299V18.63V18.6302V18.6304V18.6306V18.6308V18.631V18.6312V18.6314V18.6315V18.6317V18.6319V18.6321V18.6323V18.6325V18.6327V18.6328V18.633V18.6332V18.6334V18.6336V18.6338V18.634V18.6341V18.6343V18.6345V18.6347V18.6349V18.6351V18.6353V18.6354V18.6356V18.6358V18.636V18.6362V18.6364V18.6366V18.6367V18.6369V18.6371V18.6373V18.6375V18.6377V18.6379V18.638V18.6382V18.6384V18.6386V18.6388V18.639V18.6391V18.6393V18.6395V18.6397V18.6399V18.6401V18.6403V18.6404V18.6406V18.6408V18.641V18.6412V18.6414V18.6416V18.6417V18.6419V18.6421V18.6423V18.6425V18.6427V18.6428V18.643V18.6432V18.6434V18.6436V18.6438V18.644V18.6441V18.6443V18.6445V18.6447V18.6449V18.6451V18.6452V18.6454V18.6456V18.6458V18.646V18.6462V18.6464V18.6465V18.6467V18.6469V18.6471V18.6473V18.6475V18.6476V18.6478V18.648V18.6482V18.6484V18.6486V18.6487V18.6489V18.6491V18.6493V18.6495V18.6497V18.6499V18.65V18.6502V18.6504V18.6506V18.6508V18.651V18.6511V18.6513V18.6515V18.6517V18.6519V18.6521V18.6522V18.6524V18.6526V18.6528V18.653V18.6532V18.6533V18.6535V18.6537V18.6539V18.6541V18.6543V18.6545V18.6546V18.6548V18.655V18.6552V18.6554V18.6556V18.6557V18.6559V18.6561V18.6563V18.6565V18.6567V18.6568V18.657V18.6572V18.6574V18.6576V18.6578V18.6579V18.6581V18.6583V18.6585V18.6587V18.6589V18.659V18.6592V18.6594V18.6596V18.6598V18.66V18.6601V18.6603V18.6605V18.6607V18.6609V18.6611V18.6613V18.6614V18.6616V18.6618V18.662V18.6622V18.6624V18.6625V18.6627V18.6629V18.6631V18.6633V18.6635V18.6636V18.6638V18.664V18.6642V18.6644V18.6646V18.6647V18.6649V18.6651V18.6653V18.6655V18.6657V18.6658V18.666V18.6662V18.6664V18.6666V18.6668V18.6669V18.6671V18.6673V18.6675V18.6677V18.6679V18.668V18.6682V18.6684V18.6686V18.6688V18.669V18.6691V18.6693V18.6695V18.6697V18.6699V18.6701V18.6702V18.6704V18.6706V18.6708V18.671V18.6712V18.6713V18.6715V18.6717V18.6719V18.6721V18.6723V18.6724V18.6726V18.6728V18.673V18.6732V18.6734V18.6736V18.6737V18.6739V18.6741V18.6743V18.6745V18.6747V18.6748V18.675V18.6752V18.6754V18.6756V18.6758V18.6759V18.6761V18.6763V18.6765V18.6767V18.6769V18.677V18.6772V18.6774V18.6776V18.6778V18.678V18.6781V18.6783V18.6785V18.6787V18.6789V18.6791V18.6792V18.6794V18.6796V18.6798V18.68V18.6802V18.6804V18.6805V18.6807V18.6809V18.6811V18.6813V18.6815V18.6816V18.6818V18.682V18.6822V18.6824V18.6826V18.6827V18.6829V18.6831V18.6833V18.6835V18.6837V18.6839V18.684V18.6842V18.6844V18.6846V18.6848V18.685V18.6851V18.6853V18.6855V18.6857V18.6859V18.6861V18.6862V18.6864V18.6866V18.6868V18.687V18.6872V18.6874V18.6875V18.6877V18.6879V18.6881V18.6883V18.6885V18.6886V18.6888V18.689V18.6892V18.6894V18.6896V18.6898V18.6899V18.6901V18.6903V18.6905V18.6907V18.6909V18.691V18.6912V18.6914V18.6916V18.6918V18.692V18.6922V18.6923V18.6925V18.6927V18.6929V18.6931V18.6933V18.6935V18.6936V18.6938V18.694V18.6942V18.6944V18.6946V18.6948V18.6949V18.6951V18.6953V18.6955V18.6957V18.6959V18.696V18.6962V18.6964V18.6966V18.6968V18.697V18.6972V18.6973V18.6975V18.6977V18.6979V18.6981V18.6983V18.6985V18.6986V18.6988V18.699V18.6992V18.6994V18.6996V18.6998V18.6999V18.7001V18.7003V18.7005V18.7007V18.7009V18.7011V18.7013V18.7014V18.7016V18.7018V18.702V18.7022V18.7024V18.7026V18.7027V18.7029V18.7031V18.7033V18.7035V18.7037V18.7039V18.704V18.7042V18.7044V18.7046V18.7048V18.705V18.7052V18.7054V18.7055V18.7057V18.7059V18.7061V18.7063V18.7065V18.7067V18.7069V18.707V18.7072V18.7074V18.7076V18.7078V18.708V18.7082V18.7083V18.7085V18.7087V18.7089V18.7091V18.7093V18.7095V18.7097V18.7098V18.71V18.7102V18.7104V18.7106V18.7108V18.711V18.7112V18.7114V18.7115V18.7117V18.7119V18.7121V18.7123V18.7125V18.7127V18.7129V18.713V18.7132V18.7134H35.4644V18.7132V18.713V18.7129V18.7127V18.7125V18.7123V18.7121V18.7119V18.7117V18.7115V18.7114V18.7112V18.711V18.7108V18.7106V18.7104V18.7102V18.71V18.7098V18.7097V18.7095V18.7093V18.7091V18.7089V18.7087V18.7085V18.7083V18.7082V18.708V18.7078V18.7076V18.7074V18.7072V18.707V18.7069V18.7067V18.7065V18.7063V18.7061V18.7059V18.7057V18.7055V18.7054V18.7052V18.705V18.7048V18.7046V18.7044V18.7042V18.704V18.7039V18.7037V18.7035V18.7033V18.7031V18.7029V18.7027V18.7026V18.7024V18.7022V18.702V18.7018V18.7016V18.7014V18.7013V18.7011V18.7009V18.7007V18.7005V18.7003V18.7001V18.6999V18.6998V18.6996V18.6994V18.6992V18.699V18.6988V18.6986V18.6985V18.6983V18.6981V18.6979V18.6977V18.6975V18.6973V18.6972V18.697V18.6968V18.6966V18.6964V18.6962V18.696V18.6959V18.6957V18.6955V18.6953V18.6951V18.6949V18.6948V18.6946V18.6944V18.6942V18.694V18.6938V18.6936V18.6935V18.6933V18.6931V18.6929V18.6927V18.6925V18.6923V18.6922V18.692V18.6918V18.6916V18.6914V18.6912V18.691V18.6909V18.6907V18.6905V18.6903V18.6901V18.6899V18.6898V18.6896V18.6894V18.6892V18.689V18.6888V18.6886V18.6885V18.6883V18.6881V18.6879V18.6877V18.6875V18.6874V18.6872V18.687V18.6868V18.6866V18.6864V18.6862V18.6861V18.6859V18.6857V18.6855V18.6853V18.6851V18.685V18.6848V18.6846V18.6844V18.6842V18.684V18.6839V18.6837V18.6835V18.6833V18.6831V18.6829V18.6827V18.6826V18.6824V18.6822V18.682V18.6818V18.6816V18.6815V18.6813V18.6811V18.6809V18.6807V18.6805V18.6804V18.6802V18.68V18.6798V18.6796V18.6794V18.6792V18.6791V18.6789V18.6787V18.6785V18.6783V18.6781V18.678V18.6778V18.6776V18.6774V18.6772V18.677V18.6769V18.6767V18.6765V18.6763V18.6761V18.6759V18.6758V18.6756V18.6754V18.6752V18.675V18.6748V18.6747V18.6745V18.6743V18.6741V18.6739V18.6737V18.6736V18.6734V18.6732V18.673V18.6728V18.6726V18.6724V18.6723V18.6721V18.6719V18.6717V18.6715V18.6713V18.6712V18.671V18.6708V18.6706V18.6704V18.6702V18.6701V18.6699V18.6697V18.6695V18.6693V18.6691V18.669V18.6688V18.6686V18.6684V18.6682V18.668V18.6679V18.6677V18.6675V18.6673V18.6671V18.6669V18.6668V18.6666V18.6664V18.6662V18.666V18.6658V18.6657V18.6655V18.6653V18.6651V18.6649V18.6647V18.6646V18.6644V18.6642V18.664V18.6638V18.6636V18.6635V18.6633V18.6631V18.6629V18.6627V18.6625V18.6624V18.6622V18.662V18.6618V18.6616V18.6614V18.6613V18.6611V18.6609V18.6607V18.6605V18.6603V18.6601V18.66V18.6598V18.6596V18.6594V18.6592V18.659V18.6589V18.6587V18.6585V18.6583V18.6581V18.6579V18.6578V18.6576V18.6574V18.6572V18.657V18.6568V18.6567V18.6565V18.6563V18.6561V18.6559V18.6557V18.6556V18.6554V18.6552V18.655V18.6548V18.6546V18.6545V18.6543V18.6541V18.6539V18.6537V18.6535V18.6533V18.6532V18.653V18.6528V18.6526V18.6524V18.6522V18.6521V18.6519V18.6517V18.6515V18.6513V18.6511V18.651V18.6508V18.6506V18.6504V18.6502V18.65V18.6499V18.6497V18.6495V18.6493V18.6491V18.6489V18.6487V18.6486V18.6484V18.6482V18.648V18.6478V18.6476V18.6475V18.6473V18.6471V18.6469V18.6467V18.6465V18.6464V18.6462V18.646V18.6458V18.6456V18.6454V18.6452V18.6451V18.6449V18.6447V18.6445V18.6443V18.6441V18.644V18.6438V18.6436V18.6434V18.6432V18.643V18.6428V18.6427V18.6425V18.6423V18.6421V18.6419V18.6417V18.6416V18.6414V18.6412V18.641V18.6408V18.6406V18.6404V18.6403V18.6401V18.6399V18.6397V18.6395V18.6393V18.6391V18.639V18.6388V18.6386V18.6384V18.6382V18.638V18.6379V18.6377V18.6375V18.6373V18.6371V18.6369V18.6367V18.6366V18.6364V18.6362V18.636V18.6358V18.6356V18.6354V18.6353V18.6351V18.6349V18.6347V18.6345V18.6343V18.6341V18.634V18.6338V18.6336V18.6334V18.6332V18.633V18.6328V18.6327V18.6325V18.6323V18.6321V18.6319V18.6317V18.6315V18.6314V18.6312V18.631V18.6308V18.6306V18.6304V18.6302V18.63V18.6299V18.6297V18.6295V18.6293V18.6291V18.6289V18.6287V18.6286V18.6284V18.6282V18.628V18.6278V18.6276V18.6274V18.6273V18.6271V18.6269V18.6267V18.6265V18.6263V18.6261V18.6259V18.6258V18.6256V18.6254V18.6252V18.625V18.6248V18.6246V18.6244V18.6243V18.6241V18.6239V18.6237V18.6235V18.6233V18.6231V18.6229V18.6228V18.6226V18.6224V18.6222V18.622V18.6218V18.6216V18.6214V18.6213V18.6211V18.6209V18.6207V18.6205V18.6203V18.6201V18.6199V18.6198V18.6196V18.6194V18.6192V18.619V18.6188V18.6186C35.4644 12.36 30.352 7.30078 24.0642 7.30078C18.9933 7.30078 14.6918 10.5885 13.2127 15.1368C8.56038 15.5946 4.90332 19.4634 4.90332 24.1985C4.90332 29.2395 9.04857 33.3008 14.1297 33.3008H32.9177C34.3303 33.3008 35.6596 32.938 36.8133 32.3008H21.9033V31.3008H14.1297C10.1244 31.3008 6.90332 28.1064 6.90332 24.1985C6.90332 20.3343 10.053 17.1679 13.9957 17.0928L14.7587 17.0783L14.9461 16.3386Z" fill="#031461"/>
<path d="M40.9033 25.3008C40.9033 21.4353 37.8039 18.3008 33.9802 18.3008C33.0181 18.3041 32.0676 18.5063 31.1922 18.894C30.3168 19.2816 29.5366 19.8459 28.9033 20.5491" stroke="#031461" stroke-width="2" stroke-miterlimit="10"/>
<path d="M43.9033 25.3008H21.9033V32.3008H43.9033V25.3008Z" stroke="#031461" stroke-width="2"/>
<path d="M41.9033 27.3008H23.9033V38.3008H41.9033V27.3008Z" fill="#FFDB00"/>
<path d="M43.9033 32.3008H21.9033V40.3008H43.9033V32.3008Z" stroke="#031461" stroke-width="2"/>
<path d="M24.9033 28.8008H28.9033" stroke="#031461" stroke-width="2"/>
<path d="M24.9033 36.3008H28.9033" stroke="#031461" stroke-width="2"/>
</svg>
