<svg width="49" height="49" viewBox="0 0 49 49" fill="none" xmlns="http://www.w3.org/2000/svg">
<path d="M9.90332 30.3008H15.9033V40.3008H9.90332V30.3008Z" stroke="#031461" stroke-width="2"/>
<path d="M26.9033 39.3008H32.4033M32.4033 39.3008H36.9033C38.0079 39.3008 38.9033 40.1962 38.9033 41.3008V41.3008C38.9033 42.4054 38.0079 43.3008 36.9033 43.3008H22.444C22.0899 43.3008 21.7421 43.2068 21.4363 43.0283L15.9033 39.8008V30.3008C18.8306 30.3008 22.2338 31.2529 24.2552 34.5505C24.3489 34.7035 24.5141 34.8008 24.6935 34.8008H30.4033C31.5079 34.8008 32.4033 35.6962 32.4033 36.8008V39.3008Z" stroke="#031461" stroke-width="2"/>
<path fill-rule="evenodd" clip-rule="evenodd" d="M19.2856 25.3327C18.7636 24.9151 18.289 24.4405 17.8714 23.9185L15.0048 26.7851L16.419 28.1993L19.2856 25.3327ZM23.9033 27.2459V31.3008H25.9033V27.2459C25.575 27.2821 25.2413 27.3008 24.9033 27.3008C24.5653 27.3008 24.2317 27.2821 23.9033 27.2459ZM30.521 25.3327L33.3876 28.1993L34.8018 26.7851L31.9352 23.9185C31.5176 24.4405 31.0431 24.9151 30.521 25.3327ZM33.8484 19.3008H37.9033V17.3008H33.8484C33.8847 17.6291 33.9033 17.9628 33.9033 18.3008C33.9033 18.6388 33.8847 18.9724 33.8484 19.3008ZM31.9352 12.6831L34.8038 9.81453L33.3896 8.40032L30.521 11.2689C31.0431 11.6865 31.5176 12.161 31.9352 12.6831ZM25.9033 9.35571V5.30078H23.9033V9.35571C24.2317 9.31941 24.5653 9.30078 24.9033 9.30078C25.2413 9.30078 25.575 9.31941 25.9033 9.35571ZM19.2856 11.2689L16.4171 8.40032L15.0029 9.81453L17.8714 12.6831C18.289 12.161 18.7636 11.6865 19.2856 11.2689ZM15.9582 17.3008H11.9033V19.3008H15.9582C15.922 18.9724 15.9033 18.6388 15.9033 18.3008C15.9033 17.9628 15.922 17.6291 15.9582 17.3008Z" fill="#031461"/>
<path fill-rule="evenodd" clip-rule="evenodd" d="M24.9033 11.3008C28.7693 11.3008 31.9033 14.4348 31.9033 18.3008C31.9033 22.1668 28.7693 25.3008 24.9033 25.3008C21.0373 25.3008 17.9033 22.1668 17.9033 18.3008C17.9033 14.4348 21.0373 11.3008 24.9033 11.3008Z" fill="#FFDB00"/>
<path fill-rule="evenodd" clip-rule="evenodd" d="M24.9033 8.55078C30.2881 8.55078 34.6533 12.916 34.6533 18.3008C34.6533 23.6856 30.2881 28.0508 24.9033 28.0508C19.5185 28.0508 15.1533 23.6856 15.1533 18.3008C15.1533 12.916 19.5185 8.55078 24.9033 8.55078Z" stroke="#031461" stroke-width="2"/>
<path fill-rule="evenodd" clip-rule="evenodd" d="M24.9033 15.0508C26.6982 15.0508 28.1533 16.5059 28.1533 18.3008C28.1533 20.0957 26.6982 21.5508 24.9033 21.5508C23.1084 21.5508 21.6533 20.0957 21.6533 18.3008C21.6533 16.5059 23.1084 15.0508 24.9033 15.0508Z" stroke="#031461" stroke-width="2"/>
</svg>
