<svg width="48" height="49" viewBox="0 0 48 49" fill="none" xmlns="http://www.w3.org/2000/svg">
<rect x="16" y="19.1565" width="16" height="14" fill="#FFDB00"/>
<path fill-rule="evenodd" clip-rule="evenodd" d="M24 6.15649L41 15.4292V19.5219C41 24.7972 39.3499 29.7907 36.4603 33.9161C33.5708 38.0415 29.4418 41.2988 24.4841 43.1016C18.5582 41.2988 14.4292 38.0415 11.5397 33.9161C8.65011 29.7907 7 24.7972 7 19.5219V15.4292L24 6.15649Z" stroke="#031461" stroke-width="2"/>
<path fill-rule="evenodd" clip-rule="evenodd" d="M26.8332 19.1035C26.8332 17.5387 25.5646 16.2701 23.9998 16.2701C22.435 16.2701 21.1665 17.5387 21.1665 19.1035V21.9368H26.8332V19.1035Z" stroke="#031461" stroke-width="2"/>
<path fill-rule="evenodd" clip-rule="evenodd" d="M18.3334 21.9369H29.6668V30.4369H18.3334V21.9369Z" stroke="#031461" stroke-width="2"/>
</svg>
