<svg width="48" height="49" viewBox="0 0 48 49" fill="none" xmlns="http://www.w3.org/2000/svg">
<mask id="mask0_499_22102" style="mask-type:alpha" maskUnits="userSpaceOnUse" x="0" y="0" width="48" height="49">
<rect y="0.699219" width="48" height="48" fill="#C4C4C4"/>
</mask>
<g mask="url(#mask0_499_22102)">
<path d="M40.5 13.4409L25.5 4.78066C24.5718 4.24476 23.4282 4.24476 22.5 4.78066L7.5 13.4409C6.5718 13.9768 6 14.9672 6 16.039V33.3595C6 34.4313 6.5718 35.4217 7.5 35.9576L22.5 44.6178C23.4282 45.1537 24.5718 45.1537 25.5 44.6178L40.5 35.9576C41.4282 35.4217 42 34.4313 42 33.3595V16.039C42 14.9672 41.4282 13.9768 40.5 13.4409Z" stroke="#031461" stroke-width="2"/>
<path d="M24 29.6992C21.2385 29.6992 19 27.3711 19 24.4992C19 22.2229 20.6937 20.4024 22.183 18.7342L24 16.6992L25.817 18.7342C27.3063 20.4024 29 22.2229 29 24.4992C29 27.3711 26.7615 29.6992 24 29.6992Z" fill="#FFDB00"/>
<path d="M22.9997 29.693C19.1336 29.693 16 26.5972 16 23.6642C16 22.0183 16.9334 20.7313 17.8662 19.2648C18.7991 17.7983 19.9574 15.7712 19.733 13.8877C20.4885 13.9044 22.8274 15.5003 23.5 16.6992" stroke="#031461" stroke-width="2" stroke-linecap="round" stroke-linejoin="round"/>
<path d="M24.9989 29.6931C27.9857 29.8234 30.1972 27.8519 30.9296 26.8498C31.6072 25.8472 31.9991 24.5985 31.9991 23.1347V22.6321C31.9991 21.1195 31.6305 19.6331 30.9296 18.3198C29.3523 15.3644 25.9221 12.5401 23 11.1992C25 14.3992 24.1667 17.2796 23.5 18.3198C23.1667 18.802 22.5 19.6992 21 20.1992" stroke="#031461" stroke-width="2" stroke-linecap="round" stroke-linejoin="round"/>
<path fill-rule="evenodd" clip-rule="evenodd" d="M24 39.6992C21.6916 39.6992 19.7278 38.0296 19 35.6992H29C28.2722 38.0296 26.3084 39.6992 24 39.6992Z" stroke="#031461" stroke-width="2"/>
<path d="M15.4195 32.6992H32.0068M12.5 28.6992L15.4195 29.6992H32L35 28.6992" stroke="#031461" stroke-width="2" stroke-linecap="round"/>
</g>
</svg>
