<svg width="49" height="49" viewBox="0 0 49 49" fill="none" xmlns="http://www.w3.org/2000/svg">
<mask id="mask0_248_16905" style="mask-type:alpha" maskUnits="userSpaceOnUse" x="0" y="0" width="49" height="49">
<rect x="0.38916" y="0.699219" width="48" height="48" fill="#C4C4C4"/>
</mask>
<g mask="url(#mask0_248_16905)">
<path d="M40.8892 13.4409L25.8892 4.78066C24.961 4.24476 23.8174 4.24476 22.8892 4.78066L7.88916 13.4409C6.96096 13.9768 6.38916 14.9672 6.38916 16.039V33.3595C6.38916 34.4313 6.96096 35.4217 7.88917 35.9576L22.8892 44.6178C23.8174 45.1537 24.961 45.1537 25.8892 44.6178L40.8892 35.9576C41.8174 35.4217 42.3892 34.4313 42.3892 33.3595V16.039C42.3892 14.9672 41.8174 13.9768 40.8892 13.4409Z" stroke="#031461" stroke-width="2"/>
<path fill-rule="evenodd" clip-rule="evenodd" d="M28.603 20.5284L17.761 22.6703L21.3946 26.3398L24.2346 30.6661L28.603 20.5284Z" fill="#FFDB00"/>
<path fill-rule="evenodd" clip-rule="evenodd" d="M11.2915 20.6855L33.9512 16.2087L24.8223 37.3939L18.8926 28.3649L11.2915 20.6855ZM30.8939 18.6776L14.9888 21.8201L20.2582 27.1424L20.3728 27.2839L24.4862 33.5484L30.8939 18.6776Z" fill="#031461"/>
<path d="M17.9009 25.6763L21.3097 29.8859L25.3914 23.162L17.9009 25.6763Z" fill="#031461"/>
</g>
</svg>
