<svg width="48" height="49" viewBox="0 0 48 49" fill="none" xmlns="http://www.w3.org/2000/svg">
<mask id="mask0_263_16394" style="mask-type:alpha" maskUnits="userSpaceOnUse" x="0" y="0" width="48" height="49">
<rect y="0.699219" width="48" height="48" fill="#C4C4C4"/>
</mask>
<g mask="url(#mask0_263_16394)">
<path d="M40.5 13.4409L25.5 4.78066C24.5718 4.24476 23.4282 4.24476 22.5 4.78066L7.5 13.4409C6.5718 13.9768 6 14.9672 6 16.039V33.3595C6 34.4313 6.5718 35.4217 7.5 35.9576L22.5 44.6178C23.4282 45.1537 24.5718 45.1537 25.5 44.6178L40.5 35.9576C41.4282 35.4217 42 34.4313 42 33.3595V16.039C42 14.9672 41.4282 13.9768 40.5 13.4409Z" stroke="#031461" stroke-width="2"/>
<path d="M24 33.6992C28.9706 33.6992 33 29.6698 33 24.6992C33 19.7287 28.9706 15.6992 24 15.6992C19.0294 15.6992 15 19.7287 15 24.6992C15 29.6698 19.0294 33.6992 24 33.6992Z" fill="#FFDB00"/>
<path d="M15.5 34.1343C15.5 31.2617 17.1269 28.6148 19.75 27.2198C22.3931 25.8141 25.6069 25.8141 28.25 27.2198C30.8731 28.6148 32.5 31.2617 32.5 34.1343" stroke="#031461" stroke-width="2"/>
<path d="M24 23.1055C26.3472 23.1055 28.25 21.2027 28.25 18.8555C28.25 16.5083 26.3472 14.6055 24 14.6055C21.6528 14.6055 19.75 16.5083 19.75 18.8555C19.75 21.2027 21.6528 23.1055 24 23.1055Z" stroke="#031461" stroke-width="2" stroke-linejoin="round"/>
</g>
</svg>
