<svg width="48" height="49" viewBox="0 0 48 49" fill="none" xmlns="http://www.w3.org/2000/svg">
<mask id="mask0_499_22086" style="mask-type:alpha" maskUnits="userSpaceOnUse" x="0" y="0" width="48" height="49">
<rect y="0.699219" width="48" height="48" fill="#C4C4C4"/>
</mask>
<g mask="url(#mask0_499_22086)">
<path fill-rule="evenodd" clip-rule="evenodd" d="M21 13.6992C26.5228 13.6992 31 18.1764 31 23.6992C31 29.2221 26.5228 33.6992 21 33.6992C15.4772 33.6992 11 29.2221 11 23.6992C11 18.1764 15.4772 13.6992 21 13.6992Z" fill="#FFDB00"/>
<path fill-rule="evenodd" clip-rule="evenodd" d="M26 3.9148L41 12.5751C42.2376 13.2896 43 14.6101 43 16.0392V33.3597C43 34.7887 42.2376 36.1092 41 36.8238L26 45.484C24.7624 46.1986 23.2376 46.1986 22 45.484L7 36.8238C5.7624 36.1092 5 34.7887 5 33.3597V16.0392C5 14.6101 5.76239 13.2896 7 12.5751L22 3.91481C23.2376 3.20028 24.7624 3.20027 26 3.9148ZM25 5.64685C24.3812 5.28959 23.6188 5.28959 23 5.64686L8 14.3071C7.3812 14.6644 7 15.3246 7 16.0392V33.3597C7 34.0742 7.3812 34.7345 8 35.0917L23 43.752C23.6188 44.1092 24.3812 44.1092 25 43.752L40 35.0917C40.6188 34.7345 41 34.0742 41 33.3597V16.0392C41 15.3246 40.6188 14.6644 40 14.3071L25 5.64685Z" fill="#031461"/>
<path fill-rule="evenodd" clip-rule="evenodd" d="M17 12.6992C15.3431 12.6992 14 14.0424 14 15.6992C14 17.0054 14.8348 18.1167 16 18.5285V28.6992C16 30.9084 17.7909 32.6992 20 32.6992H22.5858L21.2929 33.9921L22.7071 35.4063L25.025 33.0884C25.2158 34.5614 26.475 35.6992 28 35.6992H34C35.6569 35.6992 37 34.3561 37 32.6992V30.6992C37 29.0424 35.6569 27.6992 34 27.6992H28C26.475 27.6992 25.2158 28.837 25.025 30.31L22.7071 27.9921L21.2929 29.4063L22.5858 30.6992H20C18.8954 30.6992 18 29.8038 18 28.6992V23.1641C18.5883 23.5044 19.2714 23.6992 20 23.6992H22.5858L21.2929 24.9921L22.7071 26.4063L25.025 24.0884C25.2158 25.5614 26.475 26.6992 28 26.6992H34C35.6569 26.6992 37 25.3561 37 23.6992V21.6992C37 20.0424 35.6569 18.6992 34 18.6992H28C26.475 18.6992 25.2158 19.837 25.025 21.31L22.7071 18.9921L21.2929 20.4063L22.5858 21.6992H20C18.8954 21.6992 18 20.8038 18 19.6992V18.5285C19.1652 18.1167 20 17.0054 20 15.6992C20 14.0424 18.6569 12.6992 17 12.6992ZM17 16.6992C17.5523 16.6992 18 16.2515 18 15.6992C18 15.1469 17.5523 14.6992 17 14.6992C16.4477 14.6992 16 15.1469 16 15.6992C16 16.2515 16.4477 16.6992 17 16.6992ZM27 30.6992C27 30.1469 27.4477 29.6992 28 29.6992H34C34.5523 29.6992 35 30.1469 35 30.6992V32.6992C35 33.2515 34.5523 33.6992 34 33.6992H28C27.4477 33.6992 27 33.2515 27 32.6992V30.6992ZM28 20.6992C27.4477 20.6992 27 21.1469 27 21.6992V23.6992C27 24.2515 27.4477 24.6992 28 24.6992H34C34.5523 24.6992 35 24.2515 35 23.6992V21.6992C35 21.1469 34.5523 20.6992 34 20.6992H28Z" fill="#031461"/>
</g>
</svg>
