<svg width="48" height="49" viewBox="0 0 48 49" fill="none" xmlns="http://www.w3.org/2000/svg">
<mask id="mask0_263_16366" style="mask-type:alpha" maskUnits="userSpaceOnUse" x="0" y="0" width="48" height="49">
<rect y="0.300537" width="48" height="48" fill="#C4C4C4"/>
</mask>
<g mask="url(#mask0_263_16366)">
<path d="M40.5 13.0422L25.5 4.38198C24.5718 3.84608 23.4282 3.84608 22.5 4.38198L7.5 13.0422C6.5718 13.5781 6 14.5685 6 15.6403V32.9608C6 34.0326 6.5718 35.023 7.5 35.5589L22.5 44.2191C23.4282 44.755 24.5718 44.755 25.5 44.2191L40.5 35.5589C41.4282 35.023 42 34.0326 42 32.9608V15.6403C42 14.5685 41.4282 13.5781 40.5 13.0422Z" stroke="#031461" stroke-width="2"/>
<path d="M29 16.3005H19V32.3005H29V16.3005Z" fill="#FFDB00"/>
<path fill-rule="evenodd" clip-rule="evenodd" d="M33 12.8005H15V19.8005V21.8005V26.8005V28.8005V35.8005H33V28.8005V26.8005V21.8005V19.8005V12.8005ZM31 26.8005H17V21.8005H31V26.8005ZM17 33.8005V28.8005H31V33.8005H17ZM31 19.8005V14.8005H17V19.8005H31ZM23 18.3005H19V16.3005H23V18.3005ZM19 25.3005H23V23.3005H19V25.3005ZM19 32.3005H23V30.3005H19V32.3005Z" fill="#031461"/>
</g>
</svg>
