<svg width="48" height="49" viewBox="0 0 48 49" fill="none" xmlns="http://www.w3.org/2000/svg">
<mask id="mask0_263_16365" style="mask-type:alpha" maskUnits="userSpaceOnUse" x="0" y="0" width="48" height="49">
<rect y="0.300537" width="48" height="48" fill="#C4C4C4"/>
</mask>
<g mask="url(#mask0_263_16365)">
<path d="M40.5 13.0422L25.5 4.38198C24.5718 3.84608 23.4282 3.84608 22.5 4.38198L7.5 13.0422C6.5718 13.5781 6 14.5685 6 15.6403V32.9608C6 34.0326 6.5718 35.023 7.5 35.5589L22.5 44.2191C23.4282 44.755 24.5718 44.755 25.5 44.2191L40.5 35.5589C41.4282 35.023 42 34.0326 42 32.9608V15.6403C42 14.5685 41.4282 13.5781 40.5 13.0422Z" stroke="#031461" stroke-width="2"/>
<path d="M32 16.3005H16V32.3005H32V16.3005Z" fill="#FFDB00"/>
<path fill-rule="evenodd" clip-rule="evenodd" d="M30 15.3005H33V18.3005H36V20.3005H33V23.3005H36V25.3005H33V28.3005H36V30.3005H33V33.3005H30V36.3005H28V33.3005H25V36.3005H23V33.3005H20V36.3005H18V33.3005H15V30.3005H12V28.3005H15V25.3005H12V23.3005H15V20.3005H12V18.3005H15V15.3005H18V12.3005H20V15.3005H23V12.3005H25V15.3005H28V12.3005H30V15.3005ZM17 31.3005V17.3005H31V31.3005H17ZM21 21.3005H23V23.3005H21V21.3005ZM21 21.3005H19V19.3005H21V21.3005ZM21 25.3005V23.3005H19V25.3005H21ZM23 25.3005H21V27.3005H19V29.3005H21V27.3005H23V29.3005H25V27.3005H27V29.3005H29V27.3005H27V25.3005H29V23.3005H27V21.3005H29V19.3005H27V21.3005H25V19.3005H23V21.3005H25V23.3005H23V25.3005ZM25 25.3005H27V23.3005H25V25.3005ZM25 25.3005H23V27.3005H25V25.3005Z" fill="#031461"/>
</g>
</svg>
